SplineFontDB: 3.0
FontName: GlassAntiqua-Regular
FullName: Glass Antiqua
FamilyName: Glass Antiqua
Weight: Book
Copyright: Copyright (c) 2011, Denis Masharov <denis.masharov@gmail.com>.
Version: 1.001
ItalicAngle: 0
UnderlinePosition: -50
UnderlineWidth: 50
Ascent: 800
Descent: 200
sfntRevision: 0x00010042
LayerCount: 2
Layer: 0 1 "Back"  1
Layer: 1 1 "Fore"  0
XUID: [1021 288 1196535210 6121298]
FSType: 0
OS2Version: 2
OS2_WeightWidthSlopeOnly: 0
OS2_UseTypoMetrics: 1
CreationTime: 1329487042
ModificationTime: 1329506948
PfmFamily: 17
TTFWeight: 400
TTFWidth: 5
LineGap: 0
VLineGap: 0
Panose: 2 0 5 6 0 0 0 2 0 4
OS2TypoAscent: 35
OS2TypoAOffset: 1
OS2TypoDescent: 0
OS2TypoDOffset: 1
OS2TypoLinegap: 0
OS2WinAscent: 1
OS2WinAOffset: 1
OS2WinDescent: 0
OS2WinDOffset: 1
HheadAscent: 1
HheadAOffset: 1
HheadDescent: 0
HheadDOffset: 1
OS2SubXSize: 700
OS2SubYSize: 650
OS2SubXOff: 0
OS2SubYOff: 140
OS2SupXSize: 700
OS2SupYSize: 650
OS2SupXOff: 0
OS2SupYOff: 477
OS2StrikeYSize: 50
OS2StrikeYPos: 250
OS2Vendor: 'pyrs'
OS2CodePages: 00000093.00000000
OS2UnicodeRanges: a000002f.50000042.00000000.00000000
Lookup: 4 0 1 "'liga' Standard Ligatures in Latin lookup 0"  {"'liga' Standard Ligatures in Latin lookup 0 subtable"  } ['liga' ('latn' <'dflt' > ) ]
Lookup: 258 0 0 "'kern' Horizontal Kerning in Latin lookup 0"  {"'kern' Horizontal Kerning in Latin lookup 0 subtable"  } ['kern' ('DFLT' <'dflt' > 'latn' <'dflt' > ) ]
DEI: 91125
TtTable: prep
PUSHW_1
 511
SCANCTRL
PUSHB_1
 4
SCANTYPE
EndTTInstrs
ShortTable: maxp 16
  1
  0
  358
  91
  7
  0
  0
  2
  0
  1
  1
  0
  64
  0
  0
  0
EndShort

StartChar: exclam
Encoding: 33 33 4
Width: 162
GlyphClass: 2
Flags: W
LayerCount: 2
Fore
SplineSet
91 151 m 2,0,1
 90 133 90 133 73 133 c 128,-1,2
 56 133 56 133 54 151 c 1,3,-1
 30 608 l 1,4,-1
 30 613 l 2,5,6
 30 628 30 628 42 638.5 c 128,-1,7
 54 649 54 649 72 649 c 128,-1,8
 90 649 90 649 102 640 c 128,-1,9
 114 631 114 631 114 613 c 2,10,-1
 114 608 l 1,11,-1
 91 151 l 2,0,1
39 71.5 m 128,-1,13
 53 85 53 85 73 85 c 128,-1,14
 93 85 93 85 107.5 72 c 128,-1,15
 122 59 122 59 122 39 c 128,-1,16
 122 19 122 19 107.5 6 c 128,-1,17
 93 -7 93 -7 73 -7 c 128,-1,18
 53 -7 53 -7 39 6 c 128,-1,19
 25 19 25 19 25 38.5 c 128,-1,12
 25 58 25 58 39 71.5 c 128,-1,13
EndSplineSet
EndChar

StartChar: quotedbl
Encoding: 34 34 5
Width: 219
GlyphClass: 2
Flags: W
LayerCount: 2
Fore
SplineSet
22 591 m 2,0,1
 20 605 20 605 20 617.5 c 128,-1,2
 20 630 20 630 29.5 641.5 c 128,-1,3
 39 653 39 653 53.5 653 c 128,-1,4
 68 653 68 653 77.5 641.5 c 128,-1,5
 87 630 87 630 87 617.5 c 128,-1,6
 87 605 87 605 85 591 c 2,7,-1
 71 506 l 2,8,9
 69 489 69 489 56.5 489 c 128,-1,10
 44 489 44 489 38 506 c 1,11,-1
 22 591 l 2,0,1
181 506 m 1,12,13
 175 489 175 489 162.5 489 c 128,-1,14
 150 489 150 489 148 506 c 2,15,-1
 134 591 l 2,16,17
 132 605 132 605 132 617.5 c 128,-1,18
 132 630 132 630 141.5 641.5 c 128,-1,19
 151 653 151 653 165.5 653 c 128,-1,20
 180 653 180 653 189.5 641.5 c 128,-1,21
 199 630 199 630 199 617.5 c 128,-1,22
 199 605 199 605 197 591 c 2,23,-1
 181 506 l 1,12,13
EndSplineSet
EndChar

StartChar: numbersign
Encoding: 35 35 6
Width: 576
GlyphClass: 2
Flags: W
LayerCount: 2
Fore
SplineSet
35 202 m 2,0,1
 10 202 10 202 10 228.5 c 128,-1,2
 10 255 10 255 35 255 c 2,3,-1
 168 255 l 1,4,-1
 199 363 l 1,5,-1
 85 363 l 2,6,7
 59 363 59 363 59 390 c 128,-1,8
 59 417 59 417 85 417 c 2,9,-1
 215 417 l 1,10,-1
 281 643 l 2,11,12
 285 656 285 656 302 658 c 1,13,14
 330 658 330 658 330 639 c 0,15,16
 330 633 330 633 329 630 c 2,17,-1
 267 417 l 1,18,-1
 377 417 l 1,19,-1
 444 643 l 2,20,21
 448 656 448 656 463 657 c 128,-1,22
 478 658 478 658 485.5 652 c 128,-1,23
 493 646 493 646 493 639 c 128,-1,24
 493 632 493 632 492 629 c 2,25,-1
 429 417 l 1,26,-1
 540 417 l 2,27,28
 566 417 566 417 566 390 c 128,-1,29
 566 363 566 363 540 363 c 2,30,-1
 414 363 l 1,31,-1
 382 255 l 1,32,-1
 489 255 l 2,33,34
 501 255 501 255 508.5 247.5 c 128,-1,35
 516 240 516 240 516 228.5 c 128,-1,36
 516 217 516 217 508.5 209.5 c 128,-1,37
 501 202 501 202 489 202 c 2,38,-1
 366 202 l 1,39,-1
 308 1 l 2,40,41
 307 -6 307 -6 298 -11 c 128,-1,42
 289 -16 289 -16 279 -16 c 0,43,44
 257 -16 257 -16 257 5 c 0,45,46
 257 10 257 10 258 12 c 2,47,-1
 314 202 l 1,48,-1
 203 202 l 1,49,-1
 144 1 l 2,50,51
 138 -16 138 -16 115.5 -16 c 128,-1,52
 93 -16 93 -16 93 5 c 0,53,54
 93 10 93 10 94 12 c 2,55,-1
 151 202 l 1,56,-1
 35 202 l 2,0,1
251 363 m 1,57,-1
 219 255 l 1,58,-1
 330 255 l 1,59,-1
 361 363 l 1,60,-1
 251 363 l 1,57,-1
EndSplineSet
EndChar

StartChar: dollar
Encoding: 36 36 7
Width: 404
GlyphClass: 2
Flags: W
LayerCount: 2
Fore
SplineSet
222 -81 m 128,-1,1
 215 -87 215 -87 205.5 -87 c 128,-1,2
 196 -87 196 -87 189 -81 c 128,-1,3
 182 -75 182 -75 182 -66 c 2,4,-1
 182 -3 l 1,5,6
 111 2 111 2 63 43 c 128,-1,7
 15 84 15 84 15 141 c 0,8,9
 15 176 15 176 32.5 197.5 c 128,-1,10
 50 219 50 219 67.5 219 c 128,-1,11
 85 219 85 219 95 206.5 c 128,-1,12
 105 194 105 194 105 175 c 0,13,14
 105 135 105 135 77 117 c 1,15,16
 91 45 91 45 182 37 c 1,17,-1
 182 330 l 1,18,19
 50 408 50 408 50 506 c 0,20,21
 50 562 50 562 87.5 601.5 c 128,-1,22
 125 641 125 641 182 647 c 1,23,-1
 182 698 l 2,24,25
 182 707 182 707 189 713 c 128,-1,26
 196 719 196 719 205.5 719 c 128,-1,27
 215 719 215 719 222 713 c 128,-1,28
 229 707 229 707 229 698 c 2,29,-1
 229 648 l 1,30,31
 280 646 280 646 320 620 c 128,-1,32
 360 594 360 594 360 559 c 0,33,34
 360 542 360 542 350 532 c 128,-1,35
 340 522 340 522 320.5 522 c 128,-1,36
 301 522 301 522 284.5 538.5 c 128,-1,37
 268 555 268 555 268 570 c 128,-1,38
 268 585 268 585 272 592 c 1,39,40
 260 604 260 604 229 608 c 1,41,-1
 229 388 l 1,42,43
 308 339 308 339 348.5 291 c 128,-1,44
 389 243 389 243 389 170 c 128,-1,45
 389 97 389 97 343 51.5 c 128,-1,46
 297 6 297 6 229 -2 c 1,47,-1
 229 -66 l 2,48,0
 229 -75 229 -75 222 -81 c 128,-1,1
338 161 m 128,-1,50
 338 209 338 209 309 241 c 128,-1,51
 280 273 280 273 229 302 c 1,52,-1
 229 37 l 1,53,54
 278 44 278 44 308 78.5 c 128,-1,49
 338 113 338 113 338 161 c 128,-1,50
102 521 m 0,55,56
 102 466 102 466 182 417 c 1,57,-1
 182 608 l 1,58,59
 148 601 148 601 125 577 c 128,-1,60
 102 553 102 553 102 521 c 0,55,56
EndSplineSet
EndChar

StartChar: percent
Encoding: 37 37 8
Width: 565
GlyphClass: 2
Flags: W
LayerCount: 2
Fore
SplineSet
231 600 m 128,-1,1
 262 557 262 557 262 491.5 c 128,-1,2
 262 426 262 426 231 384 c 128,-1,3
 200 342 200 342 138.5 342 c 128,-1,4
 77 342 77 342 46 384.5 c 128,-1,5
 15 427 15 427 15 491.5 c 128,-1,6
 15 556 15 556 46 599.5 c 128,-1,7
 77 643 77 643 138.5 643 c 128,-1,0
 200 643 200 643 231 600 c 128,-1,1
71 492 m 0,8,9
 71 438 71 438 88 407 c 128,-1,10
 105 376 105 376 138 376 c 0,11,12
 206 376 206 376 206 492 c 0,13,14
 206 547 206 547 189 578.5 c 128,-1,15
 172 610 172 610 138 610 c 0,16,17
 71 610 71 610 71 492 c 0,8,9
519 248 m 128,-1,19
 550 205 550 205 550 139.5 c 128,-1,20
 550 74 550 74 519 32 c 128,-1,21
 488 -10 488 -10 426.5 -10 c 128,-1,22
 365 -10 365 -10 334 32.5 c 128,-1,23
 303 75 303 75 303 139.5 c 128,-1,24
 303 204 303 204 334 247.5 c 128,-1,25
 365 291 365 291 426.5 291 c 128,-1,18
 488 291 488 291 519 248 c 128,-1,19
359 140 m 0,26,27
 359 86 359 86 376 55 c 128,-1,28
 393 24 393 24 426 24 c 0,29,30
 494 24 494 24 494 140 c 0,31,32
 494 195 494 195 477 226.5 c 128,-1,33
 460 258 460 258 426 258 c 0,34,35
 359 258 359 258 359 140 c 0,26,27
163 5 m 1,36,37
 154 -10 154 -10 140 -10 c 128,-1,38
 126 -10 126 -10 117.5 -2 c 128,-1,39
 109 6 109 6 109 14 c 128,-1,40
 109 22 109 22 112 30 c 2,41,-1
 404 635 l 2,42,43
 411 650 411 650 425.5 650 c 128,-1,44
 440 650 440 650 448.5 642 c 128,-1,45
 457 634 457 634 457 625.5 c 128,-1,46
 457 617 457 617 454 611 c 2,47,-1
 163 5 l 1,36,37
EndSplineSet
EndChar

StartChar: ampersand
Encoding: 38 38 9
Width: 596
GlyphClass: 2
Flags: W
LayerCount: 2
Fore
SplineSet
285 30 m 1,0,1
 224 -11 224 -11 159.5 -11 c 128,-1,2
 95 -11 95 -11 60 18 c 128,-1,3
 25 47 25 47 25 103 c 0,4,5
 25 172 25 172 76 220 c 0,6,7
 116 257 116 257 155 281 c 1,8,-1
 155 288 l 2,9,10
 155 366 155 366 191.5 428 c 128,-1,11
 228 490 228 490 289 490 c 0,12,13
 325 490 325 490 346.5 468 c 128,-1,14
 368 446 368 446 368 414 c 0,15,16
 368 383 368 383 352.5 364.5 c 128,-1,17
 337 346 337 346 328 337 c 128,-1,18
 319 328 319 328 300 315.5 c 128,-1,19
 281 303 281 303 271 297 c 0,20,21
 256 288 256 288 207 260 c 1,22,23
 211 213 211 213 234.5 166 c 128,-1,24
 258 119 258 119 291 88 c 1,25,26
 328 119 328 119 351 151 c 128,-1,27
 374 183 374 183 417 262 c 0,28,29
 426 279 426 279 439 279 c 0,30,31
 460 279 460 279 460 255 c 0,32,33
 460 245 460 245 455 235 c 0,34,35
 409 133 409 133 322 56 c 1,36,37
 362 32 362 32 402 32 c 0,38,39
 521 32 521 32 521 205 c 0,40,41
 521 283 521 283 494 324.5 c 128,-1,42
 467 366 467 366 424 391 c 1,43,44
 408 399 408 399 408 412 c 0,45,46
 408 439 408 439 431 439 c 0,47,48
 440 439 440 439 454 433 c 0,49,50
 494 415 494 415 532.5 351.5 c 128,-1,51
 571 288 571 288 571 209 c 2,52,-1
 571 205 l 2,53,54
 571 118 571 118 529.5 53.5 c 128,-1,55
 488 -11 488 -11 402 -11 c 0,56,57
 346 -11 346 -11 285 30 c 1,0,1
90.5 160.5 m 128,-1,59
 73 133 73 133 73 103 c 128,-1,60
 73 73 73 73 93.5 51 c 128,-1,61
 114 29 114 29 156.5 29 c 128,-1,62
 199 29 199 29 250 59 c 1,63,64
 179 127 179 127 161 230 c 1,65,66
 134 210 134 210 121 199 c 128,-1,58
 108 188 108 188 90.5 160.5 c 128,-1,59
286 446 m 0,67,68
 223 446 223 446 204 305 c 1,69,70
 323 372 323 372 323 415 c 0,71,72
 323 429 323 429 312 437.5 c 128,-1,73
 301 446 301 446 286 446 c 0,67,68
EndSplineSet
EndChar

StartChar: quotesingle
Encoding: 39 39 10
Width: 97
GlyphClass: 2
Flags: W
LayerCount: 2
Fore
SplineSet
17 591 m 2,0,1
 15 605 15 605 15 617.5 c 128,-1,2
 15 630 15 630 24.5 641.5 c 128,-1,3
 34 653 34 653 48.5 653 c 128,-1,4
 63 653 63 653 72.5 641.5 c 128,-1,5
 82 630 82 630 82 617.5 c 128,-1,6
 82 605 82 605 80 591 c 2,7,-1
 66 506 l 2,8,9
 64 489 64 489 51.5 489 c 128,-1,10
 39 489 39 489 33 506 c 1,11,-1
 17 591 l 2,0,1
EndSplineSet
EndChar

StartChar: parenleft
Encoding: 40 40 11
Width: 321
GlyphClass: 2
Flags: W
LayerCount: 2
Fore
SplineSet
25 329 m 0,0,1
 25 442 25 442 56 539 c 128,-1,2
 87 636 87 636 137 691 c 128,-1,3
 187 746 187 746 243 746 c 0,4,5
 277 746 277 746 296 733 c 128,-1,6
 315 720 315 720 315 701 c 128,-1,7
 315 682 315 682 302.5 673 c 128,-1,8
 290 664 290 664 273 664 c 128,-1,9
 256 664 256 664 242.5 676 c 128,-1,10
 229 688 229 688 229 706 c 1,11,12
 195 706 195 706 166.5 670 c 128,-1,13
 138 634 138 634 121 577 c 0,14,15
 85 456 85 456 85 329 c 0,16,17
 85 195 85 195 120 71 c 0,18,19
 137 11 137 11 165.5 -27.5 c 128,-1,20
 194 -66 194 -66 229 -66 c 1,21,22
 229 -49 229 -49 242.5 -37 c 128,-1,23
 256 -25 256 -25 273 -25 c 128,-1,24
 290 -25 290 -25 303 -34 c 128,-1,25
 316 -43 316 -43 316 -61.5 c 128,-1,26
 316 -80 316 -80 296 -92 c 128,-1,27
 276 -104 276 -104 241 -104 c 0,28,29
 156 -104 156 -104 90.5 25.5 c 128,-1,30
 25 155 25 155 25 329 c 0,0,1
EndSplineSet
EndChar

StartChar: parenright
Encoding: 41 41 12
Width: 321
GlyphClass: 2
Flags: W
LayerCount: 2
Fore
SplineSet
296 329 m 0,0,1
 296 155 296 155 230.5 25.5 c 128,-1,2
 165 -104 165 -104 80 -104 c 0,3,4
 45 -104 45 -104 25 -92 c 128,-1,5
 5 -80 5 -80 5 -61.5 c 128,-1,6
 5 -43 5 -43 18 -34 c 128,-1,7
 31 -25 31 -25 48 -25 c 128,-1,8
 65 -25 65 -25 78.5 -37 c 128,-1,9
 92 -49 92 -49 92 -66 c 1,10,11
 127 -66 127 -66 155.5 -27.5 c 128,-1,12
 184 11 184 11 201 71 c 0,13,14
 236 195 236 195 236 329 c 0,15,16
 236 456 236 456 200 577 c 0,17,18
 183 634 183 634 154.5 670 c 128,-1,19
 126 706 126 706 92 706 c 1,20,21
 92 688 92 688 78.5 676 c 128,-1,22
 65 664 65 664 48 664 c 128,-1,23
 31 664 31 664 18.5 673 c 128,-1,24
 6 682 6 682 6 701 c 128,-1,25
 6 720 6 720 25 733 c 128,-1,26
 44 746 44 746 78 746 c 0,27,28
 134 746 134 746 184 691 c 128,-1,29
 234 636 234 636 265 539 c 128,-1,30
 296 442 296 442 296 329 c 0,0,1
EndSplineSet
EndChar

StartChar: asterisk
Encoding: 42 42 13
Width: 297
GlyphClass: 2
Flags: W
LayerCount: 2
Fore
SplineSet
115 584 m 2,0,1
 113 592 113 592 113 602.5 c 128,-1,2
 113 613 113 613 123 625.5 c 128,-1,3
 133 638 133 638 148 638 c 128,-1,4
 163 638 163 638 173 625.5 c 128,-1,5
 183 613 183 613 183 602.5 c 128,-1,6
 183 592 183 592 181 584 c 2,7,-1
 165 525 l 1,8,-1
 171 521 l 1,9,-1
 221 551 l 2,10,11
 236 561 236 561 252.5 561 c 128,-1,12
 269 561 269 561 278 551 c 128,-1,13
 287 541 287 541 287 527 c 128,-1,14
 287 513 287 513 274 502.5 c 128,-1,15
 261 492 261 492 243 491 c 2,16,-1
 181 489 l 1,17,-1
 179 483 l 1,18,-1
 229 443 l 2,19,20
 248 427 248 427 248 409 c 0,21,22
 248 375 248 375 218.5 375 c 128,-1,23
 189 375 189 375 177 406 c 1,24,-1
 152 463 l 1,25,-1
 145 463 l 1,26,-1
 119 404 l 1,27,28
 108 375 108 375 78 375 c 0,29,30
 65 375 65 375 56.5 383 c 128,-1,31
 48 391 48 391 48 409.5 c 128,-1,32
 48 428 48 428 67 442 c 2,33,-1
 118 483 l 1,34,-1
 116 489 l 1,35,-1
 55 491 l 2,36,37
 36 492 36 492 23 502 c 128,-1,38
 10 512 10 512 10 526.5 c 128,-1,39
 10 541 10 541 19.5 551 c 128,-1,40
 29 561 29 561 44.5 561 c 128,-1,41
 60 561 60 561 75 551 c 1,42,-1
 126 521 l 1,43,-1
 131 525 l 1,44,-1
 115 584 l 2,0,1
EndSplineSet
EndChar

StartChar: plus
Encoding: 43 43 14
Width: 252
GlyphClass: 2
Flags: W
LayerCount: 2
Fore
SplineSet
97 155 m 2,0,-1
 97 215 l 1,1,-1
 39 215 l 2,2,3
 15 215 15 215 15 241.5 c 128,-1,4
 15 268 15 268 39 268 c 2,5,-1
 97 268 l 1,6,-1
 97 329 l 2,7,8
 97 340 97 340 105.5 347.5 c 128,-1,9
 114 355 114 355 125.5 355 c 128,-1,10
 137 355 137 355 145.5 347.5 c 128,-1,11
 154 340 154 340 154 329 c 2,12,-1
 154 268 l 1,13,-1
 212 268 l 2,14,15
 224 268 224 268 230.5 260.5 c 128,-1,16
 237 253 237 253 237 242 c 0,17,18
 237 215 237 215 212 215 c 2,19,-1
 154 215 l 1,20,-1
 154 155 l 2,21,22
 154 143 154 143 146 135.5 c 128,-1,23
 138 128 138 128 126 128 c 128,-1,24
 114 128 114 128 105.5 135.5 c 128,-1,25
 97 143 97 143 97 155 c 2,0,-1
EndSplineSet
EndChar

StartChar: comma
Encoding: 44 44 15
Width: 142
GlyphClass: 2
Flags: W
LayerCount: 2
Fore
SplineSet
102.5 74 m 128,-1,1
 117 56 117 56 117 22.5 c 128,-1,2
 117 -11 117 -11 93 -43 c 128,-1,3
 69 -75 69 -75 42 -75 c 0,4,5
 40 -75 40 -75 40 -73 c 128,-1,6
 40 -71 40 -71 42 -71 c 0,7,8
 52 -71 52 -71 61 -53 c 128,-1,9
 70 -35 70 -35 70 -6 c 1,10,11
 45 -6 45 -6 27.5 6 c 128,-1,12
 10 18 10 18 10 41.5 c 128,-1,13
 10 65 10 65 25 78.5 c 128,-1,14
 40 92 40 92 64 92 c 128,-1,0
 88 92 88 92 102.5 74 c 128,-1,1
EndSplineSet
EndChar

StartChar: hyphen
Encoding: 45 45 16
Width: 252
GlyphClass: 2
Flags: W
LayerCount: 2
Fore
SplineSet
212 215 m 2,0,-1
 39 215 l 2,1,2
 15 215 15 215 15 241.5 c 128,-1,3
 15 268 15 268 39 268 c 2,4,-1
 212 268 l 2,5,6
 224 268 224 268 230.5 260.5 c 128,-1,7
 237 253 237 253 237 242 c 0,8,9
 237 215 237 215 212 215 c 2,0,-1
EndSplineSet
EndChar

StartChar: period
Encoding: 46 46 17
Width: 135
GlyphClass: 2
Flags: W
LayerCount: 2
Fore
SplineSet
24 78.5 m 128,-1,1
 38 92 38 92 59.5 92 c 128,-1,2
 81 92 81 92 95.5 78.5 c 128,-1,3
 110 65 110 65 110 43.5 c 128,-1,4
 110 22 110 22 95.5 9 c 128,-1,5
 81 -4 81 -4 59.5 -4 c 128,-1,6
 38 -4 38 -4 24 9 c 128,-1,7
 10 22 10 22 10 43.5 c 128,-1,0
 10 65 10 65 24 78.5 c 128,-1,1
EndSplineSet
EndChar

StartChar: slash
Encoding: 47 47 18
Width: 358
GlyphClass: 2
Flags: W
LayerCount: 2
Fore
SplineSet
59 5 m 1,0,1
 50 -10 50 -10 36 -10 c 128,-1,2
 22 -10 22 -10 13.5 -2 c 128,-1,3
 5 6 5 6 5 14 c 128,-1,4
 5 22 5 22 8 30 c 2,5,-1
 300 635 l 2,6,7
 307 650 307 650 321.5 650 c 128,-1,8
 336 650 336 650 344.5 642 c 128,-1,9
 353 634 353 634 353 625.5 c 128,-1,10
 353 617 353 617 350 611 c 2,11,-1
 59 5 l 1,0,1
EndSplineSet
EndChar

StartChar: zero
Encoding: 48 48 19
Width: 497
GlyphClass: 2
Flags: W
LayerCount: 2
Fore
SplineSet
449 482.5 m 128,-1,1
 472 410 472 410 472 318 c 128,-1,2
 472 226 472 226 449.5 153.5 c 128,-1,3
 427 81 427 81 375.5 35 c 128,-1,4
 324 -11 324 -11 249 -11 c 128,-1,5
 174 -11 174 -11 122 36 c 0,6,7
 25 124 25 124 25 320 c 0,8,9
 25 511 25 511 122 602 c 0,10,11
 174 650 174 650 248 650 c 128,-1,12
 322 650 322 650 374 602.5 c 128,-1,0
 426 555 426 555 449 482.5 c 128,-1,1
98 320 m 0,13,14
 98 183 98 183 136 104.5 c 128,-1,15
 174 26 174 26 248 26 c 0,16,17
 399 26 399 26 399 319 c 0,18,19
 399 456 399 456 361 534.5 c 128,-1,20
 323 613 323 613 248 613 c 0,21,22
 98 612 98 612 98 320 c 0,13,14
EndSplineSet
EndChar

StartChar: one
Encoding: 49 49 20
Width: 257
GlyphClass: 2
Flags: W
LayerCount: 2
Fore
SplineSet
121 50 m 1,0,-1
 121 529 l 1,1,2
 95 495 95 495 38 495 c 2,3,-1
 25 495 l 1,4,5
 5 496 5 496 5 519.5 c 128,-1,6
 5 543 5 543 25 545 c 0,7,8
 69 548 69 548 92.5 571 c 128,-1,9
 116 594 116 594 129 637 c 0,10,11
 135 656 135 656 158.5 656 c 128,-1,12
 182 656 182 656 182 633 c 0,13,14
 182 620 182 620 175 607 c 1,15,-1
 175 50 l 1,16,-1
 204 50 l 2,17,18
 215 50 215 50 221 43 c 128,-1,19
 227 36 227 36 227 26 c 0,20,21
 227 0 227 0 204 0 c 2,22,-1
 90 0 l 2,23,24
 68 0 68 0 68 25 c 128,-1,25
 68 50 68 50 90 50 c 2,26,-1
 121 50 l 1,0,-1
EndSplineSet
EndChar

StartChar: two
Encoding: 50 50 21
Width: 375
GlyphClass: 2
Flags: W
LayerCount: 2
Fore
SplineSet
47 45 m 0,0,1
 47 28 47 28 67 28 c 128,-1,2
 87 28 87 28 104 43.5 c 128,-1,3
 121 59 121 59 121 65 c 1,4,5
 107 74 107 74 89 74 c 128,-1,6
 71 74 71 74 59 66.5 c 128,-1,7
 47 59 47 59 47 45 c 0,0,1
53 534 m 0,8,9
 53 584 53 584 90.5 618.5 c 128,-1,10
 128 653 128 653 189 653 c 128,-1,11
 250 653 250 653 289.5 612.5 c 128,-1,12
 329 572 329 572 329 498 c 128,-1,13
 329 424 329 424 279.5 296 c 128,-1,14
 230 168 230 168 178 89 c 1,15,16
 201 82 201 82 234 53 c 128,-1,17
 267 24 267 24 282 24 c 0,18,19
 313 24 313 24 313 56 c 1,20,21
 301 56 301 56 291 68 c 128,-1,22
 281 80 281 80 281 94 c 128,-1,23
 281 108 281 108 290 120.5 c 128,-1,24
 299 133 299 133 318 133 c 128,-1,25
 337 133 337 133 351 114.5 c 128,-1,26
 365 96 365 96 365 67.5 c 128,-1,27
 365 39 365 39 342 14 c 128,-1,28
 319 -11 319 -11 288 -11 c 128,-1,29
 257 -11 257 -11 234 -3 c 128,-1,30
 211 5 211 5 198.5 13.5 c 128,-1,31
 186 22 186 22 169.5 35.5 c 128,-1,32
 153 49 153 49 150 51 c 1,33,34
 107 -3 107 -3 70 -3 c 0,35,36
 47 -3 47 -3 28.5 11 c 128,-1,37
 10 25 10 25 10 50 c 128,-1,38
 10 75 10 75 34 94 c 128,-1,39
 58 113 58 113 88 113 c 128,-1,40
 118 113 118 113 143 104 c 1,41,42
 183 166 183 166 221 289 c 128,-1,43
 259 412 259 412 259 495 c 0,44,45
 259 548 259 548 231 579.5 c 128,-1,46
 203 611 203 611 169 611 c 0,47,48
 148 611 148 611 130 598.5 c 128,-1,49
 112 586 112 586 104 571 c 1,50,51
 118 566 118 566 128 550.5 c 128,-1,52
 138 535 138 535 138 515.5 c 128,-1,53
 138 496 138 496 127.5 482.5 c 128,-1,54
 117 469 117 469 98 469 c 128,-1,55
 79 469 79 469 66 489 c 128,-1,56
 53 509 53 509 53 534 c 0,8,9
EndSplineSet
EndChar

StartChar: three
Encoding: 51 51 22
Width: 420
GlyphClass: 2
Flags: W
LayerCount: 2
Fore
SplineSet
20 154 m 0,0,1
 20 186 20 186 35 203.5 c 128,-1,2
 50 221 50 221 67 221 c 128,-1,3
 84 221 84 221 97 207 c 128,-1,4
 110 193 110 193 110 173 c 0,5,6
 110 136 110 136 84 119 c 1,7,8
 93 74 93 74 121.5 48.5 c 128,-1,9
 150 23 150 23 192 23 c 0,10,11
 260 23 260 23 293 86.5 c 128,-1,12
 326 150 326 150 326 242 c 0,13,14
 326 298 326 298 309.5 347 c 128,-1,15
 293 396 293 396 268 413 c 1,16,17
 242 384 242 384 199 384 c 0,18,19
 175 384 175 384 159.5 394.5 c 128,-1,20
 144 405 144 405 144 418 c 128,-1,21
 144 431 144 431 154 440.5 c 128,-1,22
 164 450 164 450 183.5 450 c 128,-1,23
 203 450 203 450 220 433 c 1,24,25
 245 439 245 439 260.5 462 c 128,-1,26
 276 485 276 485 276 521.5 c 128,-1,27
 276 558 276 558 250.5 585 c 128,-1,28
 225 612 225 612 198 612 c 128,-1,29
 171 612 171 612 152.5 599.5 c 128,-1,30
 134 587 134 587 133 569 c 1,31,32
 143 557 143 557 143 540 c 128,-1,33
 143 523 143 523 133.5 509 c 128,-1,34
 124 495 124 495 107 495 c 128,-1,35
 90 495 90 495 81 509.5 c 128,-1,36
 72 524 72 524 72 545 c 0,37,38
 72 587 72 587 107.5 618 c 128,-1,39
 143 649 143 649 196 649 c 128,-1,40
 249 649 249 649 286.5 613 c 128,-1,41
 324 577 324 577 324 527.5 c 128,-1,42
 324 478 324 478 302 451 c 1,43,44
 339 423 339 423 367 366.5 c 128,-1,45
 395 310 395 310 395 243 c 0,46,47
 395 138 395 138 339.5 64 c 128,-1,48
 284 -10 284 -10 194 -10 c 0,49,50
 119 -10 119 -10 69.5 42 c 128,-1,51
 20 94 20 94 20 154 c 0,0,1
EndSplineSet
EndChar

StartChar: four
Encoding: 52 52 23
Width: 423
GlyphClass: 2
Flags: W
LayerCount: 2
Fore
SplineSet
322 185 m 1,0,-1
 396 185 l 2,1,2
 406 185 406 185 412 178 c 128,-1,3
 418 171 418 171 418 161 c 0,4,5
 418 136 418 136 396 136 c 2,6,-1
 322 136 l 1,7,-1
 322 50 l 1,8,-1
 359 50 l 2,9,10
 382 50 382 50 382 25 c 128,-1,11
 382 0 382 0 359 0 c 2,12,-1
 233 0 l 2,13,14
 211 0 211 0 211 25 c 128,-1,15
 211 50 211 50 233 50 c 2,16,-1
 270 50 l 1,17,-1
 270 136 l 1,18,-1
 35 136 l 2,19,20
 5 136 5 136 5 156 c 0,21,22
 5 161 5 161 9 169 c 2,23,-1
 260 645 l 2,24,25
 271 664 271 664 288 664 c 0,26,27
 322 664 322 664 322 632 c 2,28,-1
 322 185 l 1,0,-1
270 186 m 1,29,-1
 270 575 l 1,30,-1
 66 186 l 1,31,-1
 270 186 l 1,29,-1
EndSplineSet
EndChar

StartChar: five
Encoding: 53 53 24
Width: 417
GlyphClass: 2
Flags: W
LayerCount: 2
Fore
SplineSet
42 400 m 2,0,-1
 42 604 l 2,1,2
 42 634 42 634 66 634 c 0,3,4
 78 634 78 634 84 629 c 0,5,6
 133 591 133 591 188 591 c 0,7,8
 225 591 225 591 235 616 c 1,9,10
 227 624 227 624 227 637.5 c 128,-1,11
 227 651 227 651 246 666.5 c 128,-1,12
 265 682 265 682 287 682 c 0,13,14
 327 682 327 682 327 644.5 c 128,-1,15
 327 607 327 607 285 580.5 c 128,-1,16
 243 554 243 554 189 554 c 128,-1,17
 135 554 135 554 91 574 c 1,18,-1
 91 436 l 1,19,20
 137 476 137 476 194 476 c 0,21,22
 280 476 280 476 336 412 c 128,-1,23
 392 348 392 348 392 241.5 c 128,-1,24
 392 135 392 135 339 62 c 128,-1,25
 286 -11 286 -11 203 -11 c 128,-1,26
 120 -11 120 -11 70 41.5 c 128,-1,27
 20 94 20 94 20 153 c 0,28,29
 20 185 20 185 35 202.5 c 128,-1,30
 50 220 50 220 68 220 c 128,-1,31
 86 220 86 220 99 206 c 128,-1,32
 112 192 112 192 112 172 c 0,33,34
 112 135 112 135 86 118 c 1,35,36
 95 71 95 71 124.5 47 c 128,-1,37
 154 23 154 23 194 23 c 0,38,39
 259 23 259 23 291 84.5 c 128,-1,40
 323 146 323 146 323 233.5 c 128,-1,41
 323 321 323 321 292.5 377 c 128,-1,42
 262 433 262 433 196 433 c 0,43,44
 152 433 152 433 115 400 c 2,45,-1
 106 392 l 2,46,47
 84 373 84 373 70.5 373 c 128,-1,48
 57 373 57 373 49.5 380.5 c 128,-1,49
 42 388 42 388 42 400 c 2,0,-1
EndSplineSet
EndChar

StartChar: six
Encoding: 54 54 25
Width: 438
GlyphClass: 2
Flags: W
LayerCount: 2
Fore
SplineSet
227 -10 m 0,0,1
 132 -10 132 -10 78.5 80.5 c 128,-1,2
 25 171 25 171 25 319.5 c 128,-1,3
 25 468 25 468 88.5 558 c 128,-1,4
 152 648 152 648 253 648 c 0,5,6
 287 648 287 648 310.5 634 c 128,-1,7
 334 620 334 620 334 597.5 c 128,-1,8
 334 575 334 575 319 565 c 128,-1,9
 304 555 304 555 285.5 555 c 128,-1,10
 267 555 267 555 251 568.5 c 128,-1,11
 235 582 235 582 235 602 c 1,12,13
 94 602 94 602 94 314 c 128,-1,14
 94 26 94 26 225 26 c 0,15,16
 271 26 271 26 300.5 59.5 c 128,-1,17
 330 93 330 93 341 141.5 c 128,-1,18
 352 190 352 190 352 254 c 0,19,20
 352 433 352 433 263 433 c 0,21,22
 243 433 243 433 229.5 424.5 c 128,-1,23
 216 416 216 416 216 402 c 1,24,25
 225 393 225 393 225 369 c 128,-1,26
 225 345 225 345 212 327 c 128,-1,27
 199 309 199 309 181.5 309 c 128,-1,28
 164 309 164 309 152.5 325.5 c 128,-1,29
 141 342 141 342 141 363 c 0,30,31
 141 410 141 410 176.5 437.5 c 128,-1,32
 212 465 212 465 260 465 c 0,33,34
 335 465 335 465 376.5 400 c 128,-1,35
 418 335 418 335 418 251 c 0,36,37
 418 163 418 163 376 82 c 0,38,39
 354 41 354 41 315.5 15.5 c 128,-1,40
 277 -10 277 -10 227 -10 c 0,0,1
EndSplineSet
EndChar

StartChar: seven
Encoding: 55 55 26
Width: 367
GlyphClass: 2
Flags: W
LayerCount: 2
Fore
SplineSet
25 611.5 m 128,-1,1
 50 639 50 639 84 639 c 128,-1,2
 118 639 118 639 151.5 615.5 c 128,-1,3
 185 592 185 592 211 592 c 0,4,5
 254 592 254 592 301 633 c 0,6,7
 315 646 315 646 330.5 646 c 128,-1,8
 346 646 346 646 354 636.5 c 128,-1,9
 362 627 362 627 362 618 c 128,-1,10
 362 609 362 609 356 600 c 0,11,12
 346 584 346 584 329 567 c 1,13,14
 176 367 176 367 176 209 c 0,15,16
 176 137 176 137 202.5 86.5 c 128,-1,17
 229 36 229 36 262 36 c 1,18,19
 262 54 262 54 278.5 66 c 128,-1,20
 295 78 295 78 312.5 78 c 128,-1,21
 330 78 330 78 342.5 69 c 128,-1,22
 355 60 355 60 355 41 c 128,-1,23
 355 22 355 22 332.5 6 c 128,-1,24
 310 -10 310 -10 272 -10 c 0,25,26
 201 -10 201 -10 159.5 48 c 128,-1,27
 118 106 118 106 118 199.5 c 128,-1,28
 118 293 118 293 161 389.5 c 128,-1,29
 204 486 204 486 263 558 c 1,30,31
 248 544 248 544 211.5 544 c 128,-1,32
 175 544 175 544 138 569 c 128,-1,33
 101 594 101 594 85 594 c 128,-1,34
 69 594 69 594 57 584.5 c 128,-1,35
 45 575 45 575 42 560 c 1,36,37
 48 562 48 562 57.5 562 c 128,-1,38
 67 562 67 562 75.5 552.5 c 128,-1,39
 84 543 84 543 84 531 c 128,-1,40
 84 519 84 519 73.5 510.5 c 128,-1,41
 63 502 63 502 46 502 c 128,-1,42
 29 502 29 502 14.5 518 c 128,-1,43
 0 534 0 534 0 559 c 128,-1,0
 0 584 0 584 25 611.5 c 128,-1,1
EndSplineSet
EndChar

StartChar: eight
Encoding: 56 56 27
Width: 376
GlyphClass: 2
Flags: W
LayerCount: 2
Fore
SplineSet
243.5 481 m 128,-1,1
 257 506 257 506 257 532.5 c 128,-1,2
 257 559 257 559 249.5 576 c 128,-1,3
 242 593 242 593 227.5 601 c 128,-1,4
 213 609 213 609 201.5 612.5 c 128,-1,5
 190 616 190 616 172 618 c 128,-1,6
 154 620 154 620 154 634.5 c 128,-1,7
 154 649 154 649 179 649 c 0,8,9
 226 649 226 649 262.5 617 c 128,-1,10
 299 585 299 585 299 531 c 0,11,12
 299 460 299 460 232 392 c 1,13,14
 297 337 297 337 326.5 287 c 128,-1,15
 356 237 356 237 356 177 c 0,16,17
 356 94 356 94 307.5 42 c 128,-1,18
 259 -10 259 -10 190 -10 c 128,-1,19
 121 -10 121 -10 70.5 38.5 c 128,-1,20
 20 87 20 87 20 171 c 0,21,22
 20 221 20 221 42 265 c 128,-1,23
 64 309 64 309 85 330 c 128,-1,24
 106 351 106 351 138 376 c 1,25,26
 67 439 67 439 67 502 c 0,27,28
 67 540 67 540 91 565.5 c 128,-1,29
 115 591 115 591 149 591 c 128,-1,30
 183 591 183 591 203 577.5 c 128,-1,31
 223 564 223 564 223 546.5 c 128,-1,32
 223 529 223 529 214.5 517.5 c 128,-1,33
 206 506 206 506 191 506 c 128,-1,34
 176 506 176 506 166 522 c 128,-1,35
 156 538 156 538 156 560 c 1,36,37
 138 560 138 560 125.5 549 c 128,-1,38
 113 538 113 538 113 520.5 c 128,-1,39
 113 503 113 503 128 483 c 128,-1,40
 143 463 143 463 156.5 451.5 c 128,-1,41
 170 440 170 440 195 422 c 1,42,0
 230 456 230 456 243.5 481 c 128,-1,1
102 71.5 m 128,-1,44
 138 30 138 30 186 30 c 128,-1,45
 234 30 234 30 269 68 c 128,-1,46
 304 106 304 106 304 158 c 0,47,48
 304 257 304 257 174 343 c 1,49,50
 129 311 129 311 97.5 266 c 128,-1,51
 66 221 66 221 66 167 c 128,-1,43
 66 113 66 113 102 71.5 c 128,-1,44
EndSplineSet
EndChar

StartChar: nine
Encoding: 57 57 28
Width: 438
GlyphClass: 2
Flags: W
LayerCount: 2
Fore
SplineSet
213 648 m 0,0,1
 309 648 309 648 361 567 c 128,-1,2
 413 486 413 486 413 337.5 c 128,-1,3
 413 189 413 189 349 89.5 c 128,-1,4
 285 -10 285 -10 187 -10 c 0,5,6
 148 -10 148 -10 126 5 c 128,-1,7
 104 20 104 20 104 41 c 128,-1,8
 104 62 104 62 118.5 72.5 c 128,-1,9
 133 83 133 83 152.5 83 c 128,-1,10
 172 83 172 83 187.5 68 c 128,-1,11
 203 53 203 53 203 33 c 1,12,13
 243 33 243 33 271.5 59 c 128,-1,14
 300 85 300 85 315 131 c 0,15,16
 344 220 344 220 344 351 c 128,-1,17
 344 482 344 482 313 546.5 c 128,-1,18
 282 611 282 611 214 611 c 0,19,20
 84 611 84 611 84 395 c 0,21,22
 84 227 84 227 175 227 c 0,23,24
 195 227 195 227 208.5 235.5 c 128,-1,25
 222 244 222 244 222 258 c 1,26,27
 212 268 212 268 212 291 c 128,-1,28
 212 314 212 314 225 332.5 c 128,-1,29
 238 351 238 351 256 351 c 128,-1,30
 274 351 274 351 285.5 335 c 128,-1,31
 297 319 297 319 297 294 c 0,32,33
 297 250 297 250 261 222.5 c 128,-1,34
 225 195 225 195 175 195 c 0,35,36
 101 195 101 195 60.5 255.5 c 128,-1,37
 20 316 20 316 20 400 c 0,38,39
 20 485 20 485 62 562 c 1,40,41
 84 600 84 600 123 624 c 128,-1,42
 162 648 162 648 213 648 c 0,0,1
EndSplineSet
EndChar

StartChar: colon
Encoding: 58 58 29
Width: 140
GlyphClass: 2
Flags: W
LayerCount: 2
Fore
SplineSet
29 473.5 m 128,-1,1
 43 487 43 487 64.5 487 c 128,-1,2
 86 487 86 487 100.5 473.5 c 128,-1,3
 115 460 115 460 115 438.5 c 128,-1,4
 115 417 115 417 100.5 404 c 128,-1,5
 86 391 86 391 64.5 391 c 128,-1,6
 43 391 43 391 29 404 c 128,-1,7
 15 417 15 417 15 438.5 c 128,-1,0
 15 460 15 460 29 473.5 c 128,-1,1
29 76.5 m 128,-1,9
 43 90 43 90 64.5 90 c 128,-1,10
 86 90 86 90 100.5 76.5 c 128,-1,11
 115 63 115 63 115 41.5 c 128,-1,12
 115 20 115 20 100.5 7 c 128,-1,13
 86 -6 86 -6 64.5 -6 c 128,-1,14
 43 -6 43 -6 29 7 c 128,-1,15
 15 20 15 20 15 41.5 c 128,-1,8
 15 63 15 63 29 76.5 c 128,-1,9
EndSplineSet
EndChar

StartChar: semicolon
Encoding: 59 59 30
Width: 147
GlyphClass: 2
Flags: W
LayerCount: 2
Fore
SplineSet
35 473.5 m 128,-1,1
 49 487 49 487 70.5 487 c 128,-1,2
 92 487 92 487 106.5 473.5 c 128,-1,3
 121 460 121 460 121 438.5 c 128,-1,4
 121 417 121 417 106.5 404 c 128,-1,5
 92 391 92 391 70.5 391 c 128,-1,6
 49 391 49 391 35 404 c 128,-1,7
 21 417 21 417 21 438.5 c 128,-1,0
 21 460 21 460 35 473.5 c 128,-1,1
107.5 74 m 128,-1,9
 122 56 122 56 122 22.5 c 128,-1,10
 122 -11 122 -11 98 -43 c 128,-1,11
 74 -75 74 -75 47 -75 c 0,12,13
 45 -75 45 -75 45 -73 c 128,-1,14
 45 -71 45 -71 47 -71 c 0,15,16
 57 -71 57 -71 66 -53 c 128,-1,17
 75 -35 75 -35 75 -6 c 1,18,19
 50 -6 50 -6 32.5 6 c 128,-1,20
 15 18 15 18 15 41.5 c 128,-1,21
 15 65 15 65 30 78.5 c 128,-1,22
 45 92 45 92 69 92 c 128,-1,8
 93 92 93 92 107.5 74 c 128,-1,9
EndSplineSet
EndChar

StartChar: less
Encoding: 60 60 31
Width: 190
GlyphClass: 2
Flags: W
LayerCount: 2
Fore
SplineSet
133 348 m 2,0,1
 140 355 140 355 149.5 355 c 128,-1,2
 159 355 159 355 167 347 c 128,-1,3
 175 339 175 339 175 329 c 128,-1,4
 175 319 175 319 168 313 c 2,5,-1
 95 240 l 1,6,-1
 168 167 l 2,7,8
 175 160 175 160 175 151 c 128,-1,9
 175 142 175 142 166.5 133.5 c 128,-1,10
 158 125 158 125 149 125 c 128,-1,11
 140 125 140 125 133 132 c 2,12,-1
 25 240 l 1,13,-1
 133 348 l 2,0,1
EndSplineSet
EndChar

StartChar: equal
Encoding: 61 61 32
Width: 252
GlyphClass: 2
Flags: W
LayerCount: 2
Fore
SplineSet
212 270 m 2,0,-1
 39 270 l 2,1,2
 15 270 15 270 15 296.5 c 128,-1,3
 15 323 15 323 39 323 c 2,4,-1
 212 323 l 2,5,6
 224 323 224 323 230.5 315.5 c 128,-1,7
 237 308 237 308 237 297 c 0,8,9
 237 270 237 270 212 270 c 2,0,-1
212 161 m 2,10,-1
 39 161 l 2,11,12
 15 161 15 161 15 187.5 c 128,-1,13
 15 214 15 214 39 214 c 2,14,-1
 212 214 l 2,15,16
 224 214 224 214 230.5 206.5 c 128,-1,17
 237 199 237 199 237 188 c 0,18,19
 237 161 237 161 212 161 c 2,10,-1
EndSplineSet
EndChar

StartChar: greater
Encoding: 62 62 33
Width: 190
GlyphClass: 2
Flags: W
LayerCount: 2
Fore
SplineSet
57 132 m 2,0,1
 50 125 50 125 41 125 c 128,-1,2
 32 125 32 125 23.5 133.5 c 128,-1,3
 15 142 15 142 15 151 c 128,-1,4
 15 160 15 160 22 167 c 2,5,-1
 95 240 l 1,6,-1
 22 313 l 2,7,8
 15 319 15 319 15 329 c 128,-1,9
 15 339 15 339 23 347 c 128,-1,10
 31 355 31 355 40.5 355 c 128,-1,11
 50 355 50 355 57 348 c 2,12,-1
 165 240 l 1,13,-1
 57 132 l 2,0,1
EndSplineSet
EndChar

StartChar: question
Encoding: 63 63 34
Width: 412
GlyphClass: 2
Flags: W
LayerCount: 2
Fore
SplineSet
10 503 m 0,0,1
 10 563 10 563 63 609 c 128,-1,2
 116 655 116 655 194 655 c 128,-1,3
 272 655 272 655 329.5 609 c 128,-1,4
 387 563 387 563 387 479 c 128,-1,5
 387 395 387 395 290 302 c 2,6,-1
 270 283 l 2,7,8
 194 212 194 212 194 160 c 0,9,10
 194 137 194 137 173 137 c 0,11,12
 164 137 164 137 157.5 143 c 128,-1,13
 151 149 151 149 151 160 c 0,14,15
 151 210 151 210 179 259.5 c 128,-1,16
 207 309 207 309 240.5 342 c 128,-1,17
 274 375 274 375 302 416 c 128,-1,18
 330 457 330 457 330 501 c 128,-1,19
 330 545 330 545 295.5 580.5 c 128,-1,20
 261 616 261 616 195 616 c 0,21,22
 151 616 151 616 115.5 595 c 128,-1,23
 80 574 80 574 72 528 c 1,24,25
 100 510 100 510 100 470 c 0,26,27
 100 451 100 451 90 438.5 c 128,-1,28
 80 426 80 426 62.5 426 c 128,-1,29
 45 426 45 426 27.5 447.5 c 128,-1,30
 10 469 10 469 10 503 c 0,0,1
139 78.5 m 128,-1,32
 153 92 153 92 174.5 92 c 128,-1,33
 196 92 196 92 210.5 78.5 c 128,-1,34
 225 65 225 65 225 43.5 c 128,-1,35
 225 22 225 22 210.5 9 c 128,-1,36
 196 -4 196 -4 174.5 -4 c 128,-1,37
 153 -4 153 -4 139 9 c 128,-1,38
 125 22 125 22 125 43.5 c 128,-1,31
 125 65 125 65 139 78.5 c 128,-1,32
EndSplineSet
EndChar

StartChar: at
Encoding: 64 64 35
Width: 683
GlyphClass: 2
Flags: W
LayerCount: 2
Fore
SplineSet
329 599 m 0,0,1
 266 599 266 599 216.5 567.5 c 128,-1,2
 167 536 167 536 140 485 c 0,3,4
 84 382 84 382 84 265 c 0,5,6
 84 120 84 120 161.5 17 c 128,-1,7
 239 -86 239 -86 345 -86 c 0,8,9
 381 -86 381 -86 407 -73 c 1,10,11
 402 -63 402 -63 402 -55 c 0,12,13
 402 -35 402 -35 421.5 -18 c 128,-1,14
 441 -1 441 -1 466 -1 c 0,15,16
 506 -1 506 -1 506 -40.5 c 128,-1,17
 506 -80 506 -80 456.5 -102.5 c 128,-1,18
 407 -125 407 -125 347 -125 c 0,19,20
 216 -125 216 -125 120.5 -19 c 128,-1,21
 25 87 25 87 25 253.5 c 128,-1,22
 25 420 25 420 108.5 532 c 128,-1,23
 192 644 192 644 329 644 c 0,24,25
 434 644 434 644 505.5 582.5 c 128,-1,26
 577 521 577 521 578 420 c 0,27,28
 579 238 579 238 590 181.5 c 128,-1,29
 601 125 601 125 641 99 c 1,30,31
 639 101 639 101 641 101 c 0,32,33
 658 92 658 92 658 80.5 c 128,-1,34
 658 69 658 69 649.5 59 c 128,-1,35
 641 49 641 49 627 49 c 0,36,37
 603 49 603 49 578.5 82.5 c 128,-1,38
 554 116 554 116 536 163 c 1,39,40
 477 61 477 61 370 61 c 0,41,42
 284 61 284 61 230.5 119.5 c 128,-1,43
 177 178 177 178 177 267 c 128,-1,44
 177 356 177 356 234 418.5 c 128,-1,45
 291 481 291 481 376 481 c 128,-1,46
 461 481 461 481 528 409 c 1,47,48
 525 490 525 490 471 544.5 c 128,-1,49
 417 599 417 599 329 599 c 0,0,1
481.5 392 m 128,-1,51
 441 435 441 435 377.5 435 c 128,-1,52
 314 435 314 435 273 388 c 128,-1,53
 232 341 232 341 232 270.5 c 128,-1,54
 232 200 232 200 273 153.5 c 128,-1,55
 314 107 314 107 375 107 c 128,-1,56
 436 107 436 107 479 154 c 128,-1,57
 522 201 522 201 522 267 c 1,58,-1
 523 278 l 1,59,50
 522 349 522 349 481.5 392 c 128,-1,51
EndSplineSet
EndChar

StartChar: A
Encoding: 65 65 36
Width: 555
GlyphClass: 2
Flags: W
LayerCount: 2
Fore
SplineSet
522 52 m 2,0,1
 545 52 545 52 545 26 c 128,-1,2
 545 0 545 0 522 0 c 2,3,-1
 412 0 l 2,4,5
 388 0 388 0 388 26 c 128,-1,6
 388 52 388 52 412 52 c 2,7,-1
 435 52 l 1,8,-1
 406 143 l 1,9,-1
 139 143 l 1,10,-1
 111 52 l 1,11,-1
 135 52 l 2,12,13
 159 52 159 52 159 26 c 128,-1,14
 159 0 159 0 135 0 c 2,15,-1
 34 0 l 2,16,17
 10 0 10 0 10 26 c 128,-1,18
 10 52 10 52 34 52 c 2,19,-1
 59 52 l 1,20,-1
 225 585 l 1,21,-1
 185 585 l 2,22,23
 162 585 162 585 162 611.5 c 128,-1,24
 162 638 162 638 185 638 c 2,25,-1
 288 638 l 2,26,27
 310 638 310 638 315 624 c 2,28,-1
 497 52 l 1,29,-1
 522 52 l 2,0,1
152 191 m 1,30,-1
 394 191 l 1,31,-1
 272 581 l 1,32,-1
 152 191 l 1,30,-1
EndSplineSet
EndChar

StartChar: B
Encoding: 66 66 37
Width: 441
GlyphClass: 2
Flags: W
LayerCount: 2
Fore
SplineSet
73 585 m 1,0,-1
 49 585 l 2,1,2
 25 585 25 585 25 611.5 c 128,-1,3
 25 638 25 638 49 638 c 2,4,-1
 166 638 l 2,5,6
 363 638 363 638 363 529 c 0,7,8
 363 495 363 495 347 470 c 128,-1,9
 331 445 331 445 303 438 c 1,10,11
 355 426 355 426 390.5 366 c 128,-1,12
 426 306 426 306 426 232 c 0,13,14
 426 132 426 132 367.5 66 c 128,-1,15
 309 0 309 0 181 0 c 2,16,-1
 49 0 l 2,17,18
 39 0 39 0 32 7.5 c 128,-1,19
 25 15 25 15 25 26 c 0,20,21
 25 52 25 52 49 52 c 2,22,-1
 73 52 l 1,23,-1
 73 585 l 1,0,-1
130 461 m 1,24,-1
 203 461 l 2,25,26
 255 461 255 461 283.5 474.5 c 128,-1,27
 312 488 312 488 312 524 c 0,28,29
 312 594 312 594 183 594 c 0,30,31
 130 594 130 594 130 586 c 2,32,-1
 130 461 l 1,24,-1
130 412 m 1,33,-1
 130 53 l 2,34,35
 130 45 130 45 178 45 c 0,36,37
 275 45 275 45 322 92 c 128,-1,38
 369 139 369 139 369 232 c 128,-1,39
 369 325 369 325 321.5 368.5 c 128,-1,40
 274 412 274 412 200 412 c 2,41,-1
 130 412 l 1,33,-1
EndSplineSet
EndChar

StartChar: C
Encoding: 67 67 38
Width: 491
GlyphClass: 2
Flags: W
LayerCount: 2
Fore
SplineSet
438 163.5 m 128,-1,1
 448 171 448 171 458.5 171 c 128,-1,2
 469 171 469 171 477.5 161.5 c 128,-1,3
 486 152 486 152 486 141 c 0,4,5
 486 92 486 92 424 41 c 128,-1,6
 362 -10 362 -10 280 -10 c 0,7,8
 166 -10 166 -10 90.5 74.5 c 128,-1,9
 15 159 15 159 15 316 c 128,-1,10
 15 473 15 473 91.5 560.5 c 128,-1,11
 168 648 168 648 271 648 c 0,12,13
 325 648 325 648 365.5 626 c 128,-1,14
 406 604 406 604 406 560 c 0,15,16
 406 544 406 544 396.5 532 c 128,-1,17
 387 520 387 520 366 520 c 128,-1,18
 345 520 345 520 326.5 538 c 128,-1,19
 308 556 308 556 308 576 c 0,20,21
 308 580 308 580 313 593 c 1,22,23
 297 600 297 600 267 600 c 0,24,25
 190 600 190 600 132 521 c 128,-1,26
 74 442 74 442 74 325 c 0,27,28
 74 258 74 258 97 194 c 128,-1,29
 120 130 120 130 167.5 85 c 128,-1,30
 215 40 215 40 271 40 c 128,-1,31
 327 40 327 40 369 70.5 c 128,-1,32
 411 101 411 101 425 146 c 0,33,0
 428 156 428 156 438 163.5 c 128,-1,1
EndSplineSet
EndChar

StartChar: D
Encoding: 68 68 39
Width: 551
GlyphClass: 2
Flags: W
LayerCount: 2
Fore
SplineSet
130 580 m 2,0,-1
 130 57 l 2,1,2
 130 45 130 45 179.5 45 c 128,-1,3
 229 45 229 45 282.5 60.5 c 128,-1,4
 336 76 336 76 381.5 106.5 c 128,-1,5
 427 137 427 137 454 190.5 c 128,-1,6
 481 244 481 244 481 324 c 128,-1,7
 481 404 481 404 436 469 c 0,8,9
 351 592 351 592 174 592 c 0,10,11
 130 592 130 592 130 580 c 2,0,-1
73 585 m 1,12,-1
 50 585 l 2,13,14
 25 585 25 585 25 611.5 c 128,-1,15
 25 638 25 638 49 638 c 2,16,-1
 168 638 l 1,17,18
 329 637 329 637 432.5 552.5 c 128,-1,19
 536 468 536 468 536 315 c 128,-1,20
 536 162 536 162 433.5 81 c 128,-1,21
 331 0 331 0 163 0 c 2,22,-1
 49 0 l 2,23,24
 25 0 25 0 25 26 c 128,-1,25
 25 52 25 52 49 52 c 2,26,-1
 73 52 l 1,27,-1
 73 585 l 1,12,-1
EndSplineSet
EndChar

StartChar: E
Encoding: 69 69 40
Width: 496
GlyphClass: 2
Flags: W
LayerCount: 2
Fore
SplineSet
130 52 m 1,0,-1
 352 52 l 1,1,-1
 455 152 l 2,2,3
 462 159 462 159 470 159 c 0,4,5
 491 159 491 159 491 141 c 0,6,7
 491 135 491 135 485 125 c 2,8,-1
 413 13 l 2,9,10
 405 0 405 0 386 0 c 2,11,-1
 49 0 l 2,12,13
 25 0 25 0 25 26 c 128,-1,14
 25 52 25 52 49 52 c 2,15,-1
 73 52 l 1,16,-1
 73 585 l 1,17,-1
 49 585 l 2,18,19
 25 585 25 585 25 611.5 c 128,-1,20
 25 638 25 638 49 638 c 2,21,-1
 286 638 l 2,22,23
 305 638 305 638 315 628 c 1,24,-1
 378 555 l 2,25,26
 385 547 385 547 385 539 c 128,-1,27
 385 531 385 531 379.5 525.5 c 128,-1,28
 374 520 374 520 364 520 c 128,-1,29
 354 520 354 520 346 528 c 2,30,-1
 275 590 l 1,31,-1
 130 590 l 1,32,-1
 130 477 l 1,33,-1
 235 477 l 1,34,35
 229 486 229 486 229 496 c 128,-1,36
 229 506 229 506 236.5 513.5 c 128,-1,37
 244 521 244 521 257 521 c 128,-1,38
 270 521 270 521 277 510 c 2,39,-1
 320 439 l 2,40,41
 324 432 324 432 324 424 c 128,-1,42
 324 416 324 416 318.5 409.5 c 128,-1,43
 313 403 313 403 302.5 403 c 128,-1,44
 292 403 292 403 284 414 c 1,45,-1
 271 429 l 1,46,-1
 130 429 l 1,47,-1
 130 52 l 1,0,-1
EndSplineSet
EndChar

StartChar: F
Encoding: 70 70 41
Width: 467
GlyphClass: 2
Flags: W
LayerCount: 2
Fore
SplineSet
130 52 m 1,0,-1
 160 52 l 2,1,2
 185 52 185 52 185 26 c 128,-1,3
 185 0 185 0 160 0 c 2,4,-1
 49 0 l 2,5,6
 25 0 25 0 25 26 c 128,-1,7
 25 52 25 52 49 52 c 2,8,-1
 73 52 l 1,9,-1
 73 585 l 1,10,-1
 49 585 l 2,11,12
 25 585 25 585 25 611.5 c 128,-1,13
 25 638 25 638 49 638 c 2,14,-1
 359 638 l 2,15,16
 385 638 385 638 395 625 c 2,17,-1
 455 555 l 2,18,19
 462 546 462 546 462 538 c 0,20,21
 462 520 462 520 443 520 c 0,22,23
 431 520 431 520 423 528 c 2,24,-1
 351 590 l 1,25,-1
 130 590 l 1,26,-1
 130 477 l 1,27,-1
 313 477 l 1,28,29
 306 488 306 488 306 497 c 128,-1,30
 306 506 306 506 313.5 513.5 c 128,-1,31
 321 521 321 521 334 521 c 128,-1,32
 347 521 347 521 354 510 c 2,33,-1
 398 439 l 2,34,35
 403 431 403 431 403 424 c 0,36,37
 403 402 403 402 382 402 c 0,38,39
 369 402 369 402 360 414 c 2,40,-1
 348 429 l 1,41,-1
 130 429 l 1,42,-1
 130 52 l 1,0,-1
EndSplineSet
EndChar

StartChar: G
Encoding: 71 71 42
Width: 548
GlyphClass: 2
Flags: W
LayerCount: 2
Fore
SplineSet
87 77 m 128,-1,1
 15 164 15 164 15 317 c 128,-1,2
 15 470 15 470 92 559 c 128,-1,3
 169 648 169 648 274 648 c 0,4,5
 328 648 328 648 370 625.5 c 128,-1,6
 412 603 412 603 412 562 c 0,7,8
 412 543 412 543 402 531 c 128,-1,9
 392 519 392 519 371 519 c 128,-1,10
 350 519 350 519 331.5 536 c 128,-1,11
 313 553 313 553 313 567.5 c 128,-1,12
 313 582 313 582 318 592 c 1,13,14
 300 600 300 600 275 600 c 0,15,16
 192 600 192 600 132.5 520 c 128,-1,17
 73 440 73 440 73 323 c 0,18,19
 73 253 73 253 95.5 189 c 128,-1,20
 118 125 118 125 163.5 82.5 c 128,-1,21
 209 40 209 40 274 40 c 128,-1,22
 339 40 339 40 374 92.5 c 128,-1,23
 409 145 409 145 409 210 c 2,24,-1
 409 269 l 1,25,-1
 290 269 l 2,26,27
 267 269 267 269 267 295 c 128,-1,28
 267 321 267 321 290 321 c 2,29,-1
 518 321 l 2,30,31
 539 321 539 321 539 295 c 128,-1,32
 539 269 539 269 518 269 c 2,33,-1
 466 269 l 1,34,-1
 466 215 l 2,35,36
 466 139 466 139 498 101 c 1,37,38
 518 81 518 81 518 68 c 128,-1,39
 518 55 518 55 508.5 46.5 c 128,-1,40
 499 38 499 38 488 38 c 0,41,42
 461 38 461 38 435 92 c 1,43,44
 418 50 418 50 374 20 c 128,-1,45
 330 -10 330 -10 266 -10 c 0,46,0
 159 -10 159 -10 87 77 c 128,-1,1
EndSplineSet
EndChar

StartChar: H
Encoding: 72 72 43
Width: 500
GlyphClass: 2
Flags: W
LayerCount: 2
Fore
SplineSet
447 52 m 2,0,1
 471 52 471 52 471 26 c 128,-1,2
 471 0 471 0 447 0 c 2,3,-1
 340 0 l 2,4,5
 330 0 330 0 323 7.5 c 128,-1,6
 316 15 316 15 316 26 c 0,7,8
 316 52 316 52 340 52 c 2,9,-1
 364 52 l 1,10,-1
 364 430 l 1,11,-1
 124 430 l 1,12,-1
 124 52 l 1,13,-1
 148 52 l 2,14,15
 172 52 172 52 172 26 c 128,-1,16
 172 0 172 0 148 0 c 2,17,-1
 41 0 l 2,18,19
 17 0 17 0 17 26 c 128,-1,20
 17 52 17 52 41 52 c 2,21,-1
 67 52 l 1,22,-1
 67 585 l 1,23,-1
 42 585 l 2,24,25
 17 585 17 585 17 611.5 c 128,-1,26
 17 638 17 638 42 638 c 2,27,-1
 149 638 l 2,28,29
 173 638 173 638 173 611.5 c 128,-1,30
 173 585 173 585 149 585 c 2,31,-1
 124 585 l 1,32,-1
 124 478 l 1,33,-1
 364 478 l 1,34,-1
 364 585 l 1,35,-1
 339 585 l 2,36,37
 315 585 315 585 315 611.5 c 128,-1,38
 315 638 315 638 339 638 c 2,39,-1
 446 638 l 2,40,41
 471 638 471 638 471 611.5 c 128,-1,42
 471 585 471 585 446 585 c 2,43,-1
 421 585 l 1,44,-1
 421 52 l 1,45,-1
 447 52 l 2,0,1
EndSplineSet
EndChar

StartChar: I
Encoding: 73 73 44
Width: 214
GlyphClass: 2
Flags: W
LayerCount: 2
Fore
SplineSet
78 52 m 1,0,-1
 78 585 l 1,1,-1
 49 585 l 2,2,3
 25 585 25 585 25 611.5 c 128,-1,4
 25 638 25 638 49 638 c 2,5,-1
 164 638 l 2,6,7
 189 638 189 638 189 611.5 c 128,-1,8
 189 585 189 585 164 585 c 2,9,-1
 135 585 l 1,10,-1
 135 52 l 1,11,-1
 164 52 l 2,12,13
 188 52 188 52 188 26 c 128,-1,14
 188 0 188 0 164 0 c 2,15,-1
 49 0 l 2,16,17
 25 0 25 0 25 26 c 128,-1,18
 25 52 25 52 49 52 c 2,19,-1
 78 52 l 1,0,-1
EndSplineSet
EndChar

StartChar: J
Encoding: 74 74 45
Width: 361
GlyphClass: 2
Flags: W
LayerCount: 2
Fore
SplineSet
311 638 m 2,0,1
 336 638 336 638 336 611.5 c 128,-1,2
 336 585 336 585 311 585 c 2,3,-1
 281 585 l 1,4,-1
 281 146 l 2,5,6
 281 72 281 72 242 31 c 128,-1,7
 203 -10 203 -10 144 -10 c 128,-1,8
 85 -10 85 -10 45 24 c 128,-1,9
 5 58 5 58 5 105 c 0,10,11
 5 135 5 135 19.5 154.5 c 128,-1,12
 34 174 34 174 53 174 c 0,13,14
 90 174 90 174 90 142 c 128,-1,15
 90 110 90 110 63 89 c 1,16,17
 70 68 70 68 92 52 c 128,-1,18
 114 36 114 36 147 36 c 128,-1,19
 180 36 180 36 202 64.5 c 128,-1,20
 224 93 224 93 224 146 c 2,21,-1
 224 585 l 1,22,-1
 192 585 l 2,23,24
 168 585 168 585 168 611.5 c 128,-1,25
 168 638 168 638 192 638 c 2,26,-1
 311 638 l 2,0,1
EndSplineSet
EndChar

StartChar: K
Encoding: 75 75 46
Width: 518
GlyphClass: 2
Flags: W
LayerCount: 2
Fore
SplineSet
489 52 m 2,0,1
 513 52 513 52 513 26 c 128,-1,2
 513 0 513 0 489 0 c 2,3,-1
 372 0 l 2,4,5
 348 0 348 0 348 26 c 128,-1,6
 348 52 348 52 372 52 c 2,7,-1
 393 52 l 1,8,-1
 228 421 l 1,9,-1
 130 344 l 1,10,-1
 130 52 l 1,11,-1
 154 52 l 2,12,13
 178 52 178 52 178 26 c 128,-1,14
 178 0 178 0 154 0 c 2,15,-1
 49 0 l 2,16,17
 39 0 39 0 32 7.5 c 128,-1,18
 25 15 25 15 25 26 c 0,19,20
 25 52 25 52 49 52 c 2,21,-1
 73 52 l 1,22,-1
 73 585 l 1,23,-1
 49 585 l 2,24,25
 38 585 38 585 31.5 592.5 c 128,-1,26
 25 600 25 600 25 611 c 128,-1,27
 25 622 25 622 31.5 630 c 128,-1,28
 38 638 38 638 49 638 c 2,29,-1
 154 638 l 2,30,31
 179 638 179 638 179 611.5 c 128,-1,32
 179 585 179 585 154 585 c 2,33,-1
 130 585 l 1,34,-1
 130 404 l 1,35,-1
 362 585 l 1,36,-1
 350 585 l 2,37,38
 326 585 326 585 326 611.5 c 128,-1,39
 326 638 326 638 350 638 c 2,40,-1
 468 638 l 2,41,42
 493 638 493 638 493 611.5 c 128,-1,43
 493 585 493 585 468 585 c 2,44,-1
 438 585 l 1,45,-1
 275 455 l 1,46,-1
 457 52 l 1,47,-1
 489 52 l 2,0,1
EndSplineSet
EndChar

StartChar: L
Encoding: 76 76 47
Width: 424
GlyphClass: 2
Flags: W
LayerCount: 2
Fore
SplineSet
130 52 m 1,0,-1
 283 52 l 1,1,-1
 386 194 l 2,2,3
 391 201 391 201 399.5 201 c 128,-1,4
 408 201 408 201 413.5 196 c 128,-1,5
 419 191 419 191 419 184.5 c 128,-1,6
 419 178 419 178 415 170 c 2,7,-1
 342 16 l 1,8,9
 333 0 333 0 314 0 c 2,10,-1
 49 0 l 2,11,12
 25 0 25 0 25 26 c 128,-1,13
 25 52 25 52 49 52 c 2,14,-1
 73 52 l 1,15,-1
 73 585 l 1,16,-1
 49 585 l 2,17,18
 25 585 25 585 25 611.5 c 128,-1,19
 25 638 25 638 49 638 c 2,20,-1
 154 638 l 2,21,22
 179 638 179 638 179 611.5 c 128,-1,23
 179 585 179 585 154 585 c 2,24,-1
 130 585 l 1,25,-1
 130 52 l 1,0,-1
EndSplineSet
EndChar

StartChar: M
Encoding: 77 77 48
Width: 719
GlyphClass: 2
Flags: W
LayerCount: 2
Fore
SplineSet
644 52 m 1,0,-1
 670 52 l 2,1,2
 694 52 694 52 694 26 c 128,-1,3
 694 0 694 0 670 0 c 2,4,-1
 563 0 l 2,5,6
 552 0 552 0 545.5 7.5 c 128,-1,7
 539 15 539 15 539 26 c 0,8,9
 539 52 539 52 563 52 c 2,10,-1
 587 52 l 1,11,-1
 587 581 l 1,12,-1
 376 428 l 2,13,14
 366 420 366 420 356 420 c 128,-1,15
 346 420 346 420 334 427 c 2,16,-1
 132 551 l 1,17,-1
 132 52 l 1,18,-1
 155 52 l 2,19,20
 179 52 179 52 179 26 c 128,-1,21
 179 0 179 0 155 0 c 2,22,-1
 54 0 l 2,23,24
 30 0 30 0 30 26 c 128,-1,25
 30 52 30 52 54 52 c 2,26,-1
 79 52 l 1,27,-1
 79 585 l 1,28,-1
 49 585 l 2,29,30
 25 585 25 585 25 611 c 0,31,32
 25 623 25 623 31.5 630.5 c 128,-1,33
 38 638 38 638 49 638 c 2,34,-1
 80 638 l 2,35,36
 98 638 98 638 117 627 c 2,37,-1
 362 477 l 1,38,-1
 567 627 l 2,39,40
 583 638 583 638 594 638 c 2,41,-1
 669 638 l 2,42,43
 694 638 694 638 694 611.5 c 128,-1,44
 694 585 694 585 669 585 c 2,45,-1
 644 585 l 1,46,-1
 644 52 l 1,0,-1
EndSplineSet
EndChar

StartChar: N
Encoding: 78 78 49
Width: 530
GlyphClass: 2
Flags: W
LayerCount: 2
Fore
SplineSet
480 638 m 2,0,1
 505 638 505 638 505 611.5 c 128,-1,2
 505 585 505 585 480 585 c 2,3,-1
 453 585 l 1,4,-1
 453 23 l 2,5,6
 453 -4 453 -4 426 -4 c 0,7,8
 402 -4 402 -4 393 15 c 2,9,-1
 125 528 l 1,10,-1
 125 52 l 1,11,-1
 148 52 l 2,12,13
 172 52 172 52 172 26 c 128,-1,14
 172 0 172 0 148 0 c 2,15,-1
 49 0 l 2,16,17
 25 0 25 0 25 26 c 128,-1,18
 25 52 25 52 49 52 c 2,19,-1
 73 52 l 1,20,-1
 73 585 l 1,21,-1
 49 585 l 2,22,23
 25 585 25 585 25 611.5 c 128,-1,24
 25 638 25 638 49 638 c 2,25,-1
 116 638 l 2,26,27
 131 638 131 638 139 622 c 2,28,-1
 401 121 l 1,29,-1
 401 585 l 1,30,-1
 375 585 l 2,31,32
 351 585 351 585 351 611.5 c 128,-1,33
 351 638 351 638 375 638 c 2,34,-1
 480 638 l 2,0,1
EndSplineSet
EndChar

StartChar: O
Encoding: 79 79 50
Width: 550
GlyphClass: 2
Flags: W
LayerCount: 2
Fore
SplineSet
460 77.5 m 128,-1,1
 385 -10 385 -10 274.5 -10 c 128,-1,2
 164 -10 164 -10 89.5 79 c 128,-1,3
 15 168 15 168 15 322 c 128,-1,4
 15 476 15 476 90 562 c 128,-1,5
 165 648 165 648 275.5 648 c 128,-1,6
 386 648 386 648 460.5 561 c 128,-1,7
 535 474 535 474 535 319.5 c 128,-1,0
 535 165 535 165 460 77.5 c 128,-1,1
384 556 m 128,-1,9
 337 600 337 600 274.5 600 c 128,-1,10
 212 600 212 600 165 559 c 128,-1,11
 118 518 118 518 95.5 456.5 c 128,-1,12
 73 395 73 395 73 326 c 0,13,14
 73 220 73 220 129 129 c 128,-1,15
 185 38 185 38 276 38 c 128,-1,16
 367 38 367 38 421.5 123 c 128,-1,17
 476 208 476 208 476 316 c 0,18,19
 476 385 476 385 453.5 448.5 c 128,-1,8
 431 512 431 512 384 556 c 128,-1,9
EndSplineSet
EndChar

StartChar: P
Encoding: 80 80 51
Width: 472
GlyphClass: 2
Flags: W
LayerCount: 2
Fore
SplineSet
73 52 m 1,0,-1
 73 585 l 1,1,-1
 49 585 l 2,2,3
 25 585 25 585 25 611.5 c 128,-1,4
 25 638 25 638 49 638 c 2,5,-1
 237 638 l 2,6,7
 332 638 332 638 394.5 583.5 c 128,-1,8
 457 529 457 529 457 441.5 c 128,-1,9
 457 354 457 354 393.5 295 c 128,-1,10
 330 236 330 236 223 236 c 2,11,-1
 130 236 l 1,12,-1
 130 52 l 1,13,-1
 160 52 l 2,14,15
 184 52 184 52 184 26 c 128,-1,16
 184 0 184 0 160 0 c 2,17,-1
 49 0 l 2,18,19
 25 0 25 0 25 26 c 128,-1,20
 25 52 25 52 49 52 c 2,21,-1
 73 52 l 1,0,-1
130 283 m 1,22,-1
 239 283 l 2,23,24
 311 283 311 283 356 329 c 128,-1,25
 401 375 401 375 401 442 c 128,-1,26
 401 509 401 509 354 551 c 128,-1,27
 307 593 307 593 242 593 c 2,28,-1
 209 593 l 2,29,30
 130 593 130 593 130 580 c 2,31,-1
 130 283 l 1,22,-1
EndSplineSet
EndChar

StartChar: Q
Encoding: 81 81 52
Width: 585
GlyphClass: 2
Flags: W
LayerCount: 2
Fore
SplineSet
505 -129 m 0,0,1
 434 -129 434 -129 385 19 c 1,2,3
 327 -10 327 -10 273 -10 c 0,4,5
 164 -10 164 -10 89.5 80 c 128,-1,6
 15 170 15 170 15 323 c 128,-1,7
 15 476 15 476 89.5 562 c 128,-1,8
 164 648 164 648 275 648 c 128,-1,9
 386 648 386 648 460.5 562 c 128,-1,10
 535 476 535 476 535 324 c 0,11,12
 535 234 535 234 508 164 c 128,-1,13
 481 94 481 94 437 54 c 1,14,-1
 453 3 l 2,15,16
 473 -64 473 -64 482.5 -72.5 c 128,-1,17
 492 -81 492 -81 499 -82 c 1,18,19
 501 -62 501 -62 516.5 -44.5 c 128,-1,20
 532 -27 532 -27 548 -27 c 0,21,22
 580 -27 580 -27 580 -61 c 0,23,24
 580 -89 580 -89 558.5 -109 c 128,-1,25
 537 -129 537 -129 505 -129 c 0,0,1
389 558 m 0,26,27
 342 600 342 600 277 600 c 128,-1,28
 212 600 212 600 164 557 c 0,29,30
 73 475 73 475 73 325 c 0,31,32
 73 253 73 253 95 188.5 c 128,-1,33
 117 124 117 124 164 81 c 128,-1,34
 211 38 211 38 266.5 38 c 128,-1,35
 322 38 322 38 367 69 c 1,36,37
 360 103 360 103 341 123 c 128,-1,38
 322 143 322 143 303 143 c 0,39,40
 271 143 271 143 263 116.5 c 128,-1,41
 255 90 255 90 238 90 c 0,42,43
 228 90 228 90 220.5 97.5 c 128,-1,44
 213 105 213 105 213 118 c 0,45,46
 213 144 213 144 239 166 c 128,-1,47
 265 188 265 188 302 188 c 128,-1,48
 339 188 339 188 369.5 166.5 c 128,-1,49
 400 145 400 145 416 109 c 1,50,51
 477 185 477 185 477 321 c 0,52,53
 477 479 477 479 389 558 c 0,26,27
EndSplineSet
EndChar

StartChar: R
Encoding: 82 82 53
Width: 490
GlyphClass: 2
Flags: W
LayerCount: 2
Fore
SplineSet
408 76 m 128,-1,1
 424 96 424 96 441 96 c 0,2,3
 475 96 475 96 475 61 c 0,4,5
 475 33 475 33 451.5 11.5 c 128,-1,6
 428 -10 428 -10 393 -10 c 0,7,8
 320 -10 320 -10 272 82 c 0,9,10
 252 121 252 121 237 138 c 0,11,12
 211 166 211 166 170.5 166 c 128,-1,13
 130 166 130 166 130 159 c 2,14,-1
 130 52 l 1,15,-1
 157 52 l 2,16,17
 181 52 181 52 181 26 c 128,-1,18
 181 0 181 0 157 0 c 2,19,-1
 49 0 l 2,20,21
 25 0 25 0 25 26 c 128,-1,22
 25 52 25 52 49 52 c 2,23,-1
 73 52 l 1,24,-1
 73 585 l 1,25,-1
 49 585 l 2,26,27
 25 585 25 585 25 611.5 c 128,-1,28
 25 638 25 638 49 638 c 2,29,-1
 152 638 l 2,30,31
 289 638 289 638 374 578 c 128,-1,32
 459 518 459 518 459 408 c 0,33,34
 459 315 459 315 402.5 249.5 c 128,-1,35
 346 184 346 184 256 177 c 1,36,37
 315 160 315 160 336 100 c 0,38,39
 349 63 349 63 359.5 48.5 c 128,-1,40
 370 34 370 34 392 31 c 1,41,0
 392 56 392 56 408 76 c 128,-1,1
351 267.5 m 128,-1,43
 405 320 405 320 405 408 c 128,-1,44
 405 496 405 496 337 544.5 c 128,-1,45
 269 593 269 593 173 593 c 0,46,47
 130 593 130 593 130 580 c 2,48,-1
 130 226 l 2,49,50
 130 215 130 215 213.5 215 c 128,-1,42
 297 215 297 215 351 267.5 c 128,-1,43
EndSplineSet
EndChar

StartChar: S
Encoding: 83 83 54
Width: 403
GlyphClass: 2
Flags: W
LayerCount: 2
Fore
SplineSet
10 143 m 0,0,1
 10 177 10 177 28 198.5 c 128,-1,2
 46 220 46 220 64.5 220 c 128,-1,3
 83 220 83 220 93.5 207 c 128,-1,4
 104 194 104 194 104 176 c 0,5,6
 104 139 104 139 77 117 c 1,7,8
 88 74 88 74 122.5 53.5 c 128,-1,9
 157 33 157 33 199 33 c 0,10,11
 261 33 261 33 297.5 75 c 128,-1,12
 334 117 334 117 334 169 c 0,13,14
 334 222 334 222 294 260 c 1,15,16
 264 287 264 287 217 318 c 2,17,-1
 166 351 l 2,18,19
 111 386 111 386 82 423.5 c 128,-1,20
 53 461 53 461 53 516.5 c 128,-1,21
 53 572 53 572 95 610.5 c 128,-1,22
 137 649 137 649 194.5 649 c 128,-1,23
 252 649 252 649 291 623 c 128,-1,24
 330 597 330 597 330 560 c 0,25,26
 330 542 330 542 319.5 531.5 c 128,-1,27
 309 521 309 521 289 521 c 128,-1,28
 269 521 269 521 250.5 538 c 128,-1,29
 232 555 232 555 232 569 c 128,-1,30
 232 583 232 583 235 592 c 1,31,32
 226 609 226 609 193 609 c 128,-1,33
 160 609 160 609 134.5 583 c 128,-1,34
 109 557 109 557 109 525 c 0,35,36
 109 473 109 473 203 411 c 2,37,-1
 254 377 l 2,38,39
 287 354 287 354 303.5 341.5 c 128,-1,40
 320 329 320 329 345 303 c 0,41,42
 393 253 393 253 393 171 c 128,-1,43
 393 89 393 89 336 39 c 128,-1,44
 279 -11 279 -11 201 -11 c 128,-1,45
 123 -11 123 -11 66.5 36.5 c 128,-1,46
 10 84 10 84 10 143 c 0,0,1
EndSplineSet
EndChar

StartChar: T
Encoding: 84 84 55
Width: 468
GlyphClass: 2
Flags: W
LayerCount: 2
Fore
SplineSet
80 673.5 m 128,-1,1
 88 666 88 666 88 658 c 128,-1,2
 88 650 88 650 81 638 c 1,3,-1
 402 638 l 1,4,-1
 405 647 l 2,5,6
 414 675 414 675 435 675 c 0,7,8
 446 675 446 675 454.5 667.5 c 128,-1,9
 463 660 463 660 463 650 c 128,-1,10
 463 640 463 640 458 630 c 2,11,-1
 421 561 l 2,12,13
 412 544 412 544 402 544 c 0,14,15
 381 544 381 544 381 563 c 0,16,17
 381 569 381 569 383 573 c 2,18,-1
 388 590 l 1,19,-1
 252 590 l 1,20,-1
 252 52 l 1,21,-1
 278 52 l 2,22,23
 302 52 302 52 302 26 c 128,-1,24
 302 0 302 0 278 0 c 2,25,-1
 170 0 l 2,26,27
 146 0 146 0 146 26 c 128,-1,28
 146 52 146 52 170 52 c 2,29,-1
 195 52 l 1,30,-1
 195 590 l 1,31,-1
 60 590 l 1,32,-1
 44 564 l 2,33,34
 36 552 36 552 26 552 c 128,-1,35
 16 552 16 552 10.5 557.5 c 128,-1,36
 5 563 5 563 5 570.5 c 128,-1,37
 5 578 5 578 8 585 c 2,38,-1
 32 656 l 2,39,40
 40 681 40 681 60 681 c 0,41,0
 72 681 72 681 80 673.5 c 128,-1,1
EndSplineSet
EndChar

StartChar: U
Encoding: 85 85 56
Width: 563
GlyphClass: 2
Flags: W
LayerCount: 2
Fore
SplineSet
520 638 m 2,0,1
 543 638 543 638 543 611.5 c 128,-1,2
 543 585 543 585 520 585 c 2,3,-1
 498 585 l 1,4,-1
 498 217 l 2,5,6
 498 118 498 118 438.5 54 c 128,-1,7
 379 -10 379 -10 286 -10 c 128,-1,8
 193 -10 193 -10 129 50 c 128,-1,9
 65 110 65 110 65 207 c 2,10,-1
 65 585 l 1,11,-1
 43 585 l 2,12,13
 20 585 20 585 20 611.5 c 128,-1,14
 20 638 20 638 43 638 c 2,15,-1
 144 638 l 2,16,17
 169 638 169 638 169 611.5 c 128,-1,18
 169 585 169 585 144 585 c 2,19,-1
 123 585 l 1,20,-1
 123 223 l 2,21,22
 123 139 123 139 168.5 89.5 c 128,-1,23
 214 40 214 40 289.5 40 c 128,-1,24
 365 40 365 40 406 93.5 c 128,-1,25
 447 147 447 147 447 224 c 2,26,-1
 447 585 l 1,27,-1
 425 585 l 2,28,29
 402 585 402 585 402 611.5 c 128,-1,30
 402 638 402 638 425 638 c 2,31,-1
 520 638 l 2,0,1
EndSplineSet
EndChar

StartChar: V
Encoding: 86 86 57
Width: 526
GlyphClass: 2
Flags: W
LayerCount: 2
Fore
SplineSet
33 638 m 2,0,-1
 142 638 l 2,1,2
 152 638 152 638 159 630 c 128,-1,3
 166 622 166 622 166 610.5 c 128,-1,4
 166 599 166 599 159 592 c 128,-1,5
 152 585 152 585 142 585 c 2,6,-1
 119 585 l 1,7,-1
 300 67 l 1,8,-1
 452 504 l 2,9,10
 468 552 468 552 468 559 c 0,11,12
 468 584 468 584 453 588 c 1,13,14
 435 567 435 567 410.5 567 c 128,-1,15
 386 567 386 567 373 578.5 c 128,-1,16
 360 590 360 590 360 603 c 0,17,18
 360 656 360 656 428 656 c 0,19,20
 464 656 464 656 490 629.5 c 128,-1,21
 516 603 516 603 516 571.5 c 128,-1,22
 516 540 516 540 497 490 c 1,23,-1
 327 12 l 2,24,25
 318 -12 318 -12 294 -12 c 128,-1,26
 270 -12 270 -12 262 11 c 2,27,-1
 60 585 l 1,28,-1
 33 585 l 2,29,30
 23 585 23 585 16.5 592 c 128,-1,31
 10 599 10 599 10 610.5 c 128,-1,32
 10 622 10 622 16.5 630 c 128,-1,33
 23 638 23 638 33 638 c 2,0,-1
EndSplineSet
EndChar

StartChar: W
Encoding: 87 87 58
Width: 730
GlyphClass: 2
Flags: W
LayerCount: 2
Fore
SplineSet
34 585 m 2,0,1
 10 585 10 585 10 611.5 c 128,-1,2
 10 638 10 638 34 638 c 2,3,-1
 136 638 l 2,4,5
 158 638 158 638 158 611.5 c 128,-1,6
 158 585 158 585 136 585 c 2,7,-1
 116 585 l 1,8,-1
 285 77 l 1,9,-1
 370 314 l 1,10,-1
 280 585 l 1,11,-1
 258 585 l 2,12,13
 247 585 247 585 240 592.5 c 128,-1,14
 233 600 233 600 233 611 c 128,-1,15
 233 622 233 622 240 630 c 128,-1,16
 247 638 247 638 258 638 c 2,17,-1
 354 638 l 2,18,19
 366 638 366 638 374 630 c 128,-1,20
 382 622 382 622 382 611 c 128,-1,21
 382 600 382 600 374.5 592.5 c 128,-1,22
 367 585 367 585 354 585 c 2,23,-1
 337 585 l 1,24,-1
 508 71 l 1,25,-1
 659 504 l 2,26,27
 672 541 672 541 672 562.5 c 128,-1,28
 672 584 672 584 657 588 c 1,29,30
 639 567 639 567 615 567 c 128,-1,31
 591 567 591 567 578.5 577.5 c 128,-1,32
 566 588 566 588 566 608 c 128,-1,33
 566 628 566 628 585 642 c 128,-1,34
 604 656 604 656 638 656 c 128,-1,35
 672 656 672 656 696 629 c 128,-1,36
 720 602 720 602 720 569.5 c 128,-1,37
 720 537 720 537 703 490 c 2,38,-1
 534 14 l 2,39,40
 526 -10 526 -10 504 -10 c 0,41,42
 494 -10 494 -10 483.5 -4 c 128,-1,43
 473 2 473 2 470 12 c 2,44,-1
 393 243 l 1,45,-1
 310 14 l 2,46,47
 301 -10 301 -10 279.5 -10 c 128,-1,48
 258 -10 258 -10 250 13 c 2,49,-1
 58 585 l 1,50,-1
 34 585 l 2,0,1
EndSplineSet
EndChar

StartChar: X
Encoding: 88 88 59
Width: 494
GlyphClass: 2
Flags: W
LayerCount: 2
Fore
SplineSet
70 586 m 2,0,1
 47 586 47 586 47 612 c 0,2,3
 47 622 47 622 53.5 630 c 128,-1,4
 60 638 60 638 70 638 c 2,5,-1
 185 638 l 2,6,7
 195 638 195 638 202 630 c 128,-1,8
 209 622 209 622 209 611.5 c 128,-1,9
 209 601 209 601 202 593.5 c 128,-1,10
 195 586 195 586 185 586 c 2,11,-1
 164 586 l 1,12,-1
 251 413 l 1,13,-1
 340 586 l 1,14,-1
 316 586 l 2,15,16
 306 586 306 586 299 593.5 c 128,-1,17
 292 601 292 601 292 611.5 c 128,-1,18
 292 622 292 622 299 630 c 128,-1,19
 306 638 306 638 316 638 c 2,20,-1
 423 638 l 2,21,22
 433 638 433 638 439.5 630 c 128,-1,23
 446 622 446 622 446 612 c 0,24,25
 446 586 446 586 423 586 c 2,26,-1
 394 586 l 1,27,-1
 277 359 l 1,28,-1
 434 52 l 1,29,-1
 461 52 l 2,30,31
 484 52 484 52 484 26 c 128,-1,32
 484 0 484 0 461 0 c 2,33,-1
 349 0 l 2,34,35
 325 0 325 0 325 26 c 128,-1,36
 325 52 325 52 349 52 c 2,37,-1
 370 52 l 1,38,-1
 244 302 l 1,39,-1
 117 52 l 1,40,-1
 142 52 l 2,41,42
 152 52 152 52 159 44.5 c 128,-1,43
 166 37 166 37 166 26 c 128,-1,44
 166 15 166 15 159 7.5 c 128,-1,45
 152 0 152 0 142 0 c 2,46,-1
 34 0 l 2,47,48
 10 0 10 0 10 26 c 128,-1,49
 10 52 10 52 34 52 c 2,50,-1
 61 52 l 1,51,-1
 217 358 l 1,52,-1
 100 586 l 1,53,-1
 70 586 l 2,0,1
EndSplineSet
EndChar

StartChar: Y
Encoding: 89 89 60
Width: 557
GlyphClass: 2
Flags: W
LayerCount: 2
Fore
SplineSet
311 53 m 1,0,-1
 335 53 l 2,1,2
 359 53 359 53 359 26.5 c 128,-1,3
 359 0 359 0 335 0 c 2,4,-1
 229 0 l 2,5,6
 205 0 205 0 205 26.5 c 128,-1,7
 205 53 205 53 229 53 c 2,8,-1
 253 53 l 1,9,-1
 253 232 l 1,10,-1
 62 585 l 1,11,-1
 31 585 l 2,12,13
 10 585 10 585 10 612 c 0,14,15
 10 622 10 622 16 630 c 128,-1,16
 22 638 22 638 31 638 c 2,17,-1
 155 638 l 2,18,19
 164 638 164 638 170 630 c 128,-1,20
 176 622 176 622 176 612 c 0,21,22
 176 585 176 585 155 585 c 2,23,-1
 127 585 l 1,24,-1
 286 290 l 1,25,-1
 442 585 l 1,26,-1
 418 585 l 2,27,28
 395 585 395 585 395 612 c 0,29,30
 395 622 395 622 401 630 c 128,-1,31
 407 638 407 638 418 638 c 2,32,-1
 524 638 l 2,33,34
 534 638 534 638 540.5 630 c 128,-1,35
 547 622 547 622 547 611 c 128,-1,36
 547 600 547 600 540.5 592.5 c 128,-1,37
 534 585 534 585 524 585 c 2,38,-1
 498 585 l 1,39,-1
 311 233 l 1,40,-1
 311 53 l 1,0,-1
EndSplineSet
EndChar

StartChar: Z
Encoding: 90 90 61
Width: 500
GlyphClass: 2
Flags: W
LayerCount: 2
Fore
SplineSet
404.5 130 m 128,-1,1
 415 141 415 141 436.5 141 c 128,-1,2
 458 141 458 141 474 123 c 128,-1,3
 490 105 490 105 490 76 c 128,-1,4
 490 47 490 47 466 17.5 c 128,-1,5
 442 -12 442 -12 395 -12 c 128,-1,6
 348 -12 348 -12 294.5 21.5 c 128,-1,7
 241 55 241 55 209 55 c 0,8,9
 162 55 162 55 87 10 c 0,10,11
 73 1 73 1 71 0 c 1,12,-1
 56 0 l 2,13,14
 10 0 10 0 10 31 c 0,15,16
 10 44 10 44 19 58 c 2,17,-1
 218 357 l 1,18,19
 206 367 206 367 187 367 c 128,-1,20
 168 367 168 367 152 335 c 0,21,22
 148 325 148 325 135.5 325 c 128,-1,23
 123 325 123 325 113.5 332.5 c 128,-1,24
 104 340 104 340 104 356.5 c 128,-1,25
 104 373 104 373 131 392 c 128,-1,26
 158 411 158 411 185 411 c 128,-1,27
 212 411 212 411 244 396 c 1,28,-1
 347 554 l 1,29,30
 327 542 327 542 304 542 c 0,31,32
 263 542 263 542 207.5 576 c 128,-1,33
 152 610 152 610 128.5 610 c 128,-1,34
 105 610 105 610 95 587 c 1,35,36
 110 582 110 582 119 569 c 128,-1,37
 128 556 128 556 128 542.5 c 128,-1,38
 128 529 128 529 117.5 520 c 128,-1,39
 107 511 107 511 89 511 c 128,-1,40
 71 511 71 511 55.5 527.5 c 128,-1,41
 40 544 40 544 40 573 c 128,-1,42
 40 602 40 602 66 625.5 c 128,-1,43
 92 649 92 649 141.5 649 c 128,-1,44
 191 649 191 649 241.5 618.5 c 128,-1,45
 292 588 292 588 315 588 c 0,46,47
 359 588 359 588 393 633 c 0,48,49
 404 648 404 648 419 648 c 128,-1,50
 434 648 434 648 445 638 c 128,-1,51
 456 628 456 628 456 618 c 128,-1,52
 456 608 456 608 451.5 601.5 c 128,-1,53
 447 595 447 595 437.5 586 c 128,-1,54
 428 577 428 577 421 567 c 2,55,-1
 292 371 l 1,56,57
 311 360 311 360 321.5 360 c 128,-1,58
 332 360 332 360 341.5 374 c 128,-1,59
 351 388 351 388 362.5 388 c 128,-1,60
 374 388 374 388 382 378.5 c 128,-1,61
 390 369 390 369 390 354.5 c 128,-1,62
 390 340 390 340 373 328.5 c 128,-1,63
 356 317 356 317 332.5 317 c 128,-1,64
 309 317 309 317 269 336 c 1,65,-1
 87 59 l 1,66,67
 155 105 155 105 223 105 c 0,68,69
 257 105 257 105 287 94 c 128,-1,70
 317 83 317 83 334 70 c 0,71,72
 381 34 381 34 405.5 34 c 128,-1,73
 430 34 430 34 430 66 c 1,74,75
 417 66 417 66 405.5 78 c 128,-1,76
 394 90 394 90 394 104.5 c 128,-1,0
 394 119 394 119 404.5 130 c 128,-1,1
EndSplineSet
EndChar

StartChar: bracketleft
Encoding: 91 91 62
Width: 202
GlyphClass: 2
Flags: W
LayerCount: 2
Fore
SplineSet
79 -77 m 1,0,-1
 175 -77 l 2,1,2
 197 -77 197 -77 197 -102 c 128,-1,3
 197 -127 197 -127 175 -127 c 2,4,-1
 25 -127 l 1,5,-1
 25 750 l 1,6,-1
 174 750 l 2,7,8
 184 750 184 750 190.5 742.5 c 128,-1,9
 197 735 197 735 197 724 c 0,10,11
 197 700 197 700 174 700 c 2,12,-1
 79 700 l 1,13,-1
 79 -77 l 1,0,-1
EndSplineSet
EndChar

StartChar: backslash
Encoding: 92 92 63
Width: 358
GlyphClass: 2
Flags: W
LayerCount: 2
Fore
SplineSet
344.5 -2 m 128,-1,1
 336 -10 336 -10 322 -10 c 128,-1,2
 308 -10 308 -10 299 5 c 1,3,-1
 8 611 l 2,4,5
 5 617 5 617 5 625.5 c 128,-1,6
 5 634 5 634 13.5 642 c 128,-1,7
 22 650 22 650 36.5 650 c 128,-1,8
 51 650 51 650 58 635 c 2,9,-1
 350 30 l 2,10,11
 353 22 353 22 353 14 c 128,-1,0
 353 6 353 6 344.5 -2 c 128,-1,1
EndSplineSet
EndChar

StartChar: bracketright
Encoding: 93 93 64
Width: 202
GlyphClass: 2
Flags: W
LayerCount: 2
Fore
SplineSet
27 -77 m 2,0,-1
 123 -77 l 1,1,-1
 123 700 l 1,2,-1
 28 700 l 2,3,4
 5 700 5 700 5 724 c 0,5,6
 5 735 5 735 11.5 742.5 c 128,-1,7
 18 750 18 750 28 750 c 2,8,-1
 177 750 l 1,9,-1
 177 -127 l 1,10,-1
 27 -127 l 2,11,12
 5 -127 5 -127 5 -102 c 128,-1,13
 5 -77 5 -77 27 -77 c 2,0,-1
EndSplineSet
EndChar

StartChar: asciicircum
Encoding: 94 94 65
Width: 304
GlyphClass: 2
Flags: W
LayerCount: 2
Fore
SplineSet
283 551 m 2,0,1
 294 542 294 542 294 532 c 128,-1,2
 294 522 294 522 286.5 513.5 c 128,-1,3
 279 505 279 505 269 505 c 128,-1,4
 259 505 259 505 248 513 c 2,5,-1
 152 592 l 1,6,-1
 56 513 l 2,7,8
 45 505 45 505 35 505 c 128,-1,9
 25 505 25 505 17.5 513.5 c 128,-1,10
 10 522 10 522 10 532 c 128,-1,11
 10 542 10 542 21 551 c 2,12,-1
 152 658 l 1,13,-1
 283 551 l 2,0,1
EndSplineSet
EndChar

StartChar: underscore
Encoding: 95 95 66
Width: 396
GlyphClass: 2
Flags: W
LayerCount: 2
Fore
SplineSet
365 0 m 2,0,-1
 30 0 l 2,1,2
 10 0 10 0 10 22 c 128,-1,3
 10 44 10 44 30 44 c 2,4,-1
 365 44 l 2,5,6
 374 44 374 44 380 38 c 128,-1,7
 386 32 386 32 386 23 c 0,8,9
 386 0 386 0 365 0 c 2,0,-1
EndSplineSet
EndChar

StartChar: grave
Encoding: 96 96 67
Width: 131
GlyphClass: 2
Flags: W
LayerCount: 2
Fore
SplineSet
118 510 m 0,0,1
 112 510 112 510 108 514 c 2,2,-1
 16 599 l 2,3,4
 0 614 0 614 0 628 c 128,-1,5
 0 642 0 642 9.5 650.5 c 128,-1,6
 19 659 19 659 36.5 659 c 128,-1,7
 54 659 54 659 66 637 c 2,8,-1
 129 529 l 2,9,10
 131 525 131 525 131 523 c 0,11,12
 131 510 131 510 118 510 c 0,0,1
EndSplineSet
EndChar

StartChar: a
Encoding: 97 97 68
Width: 434
GlyphClass: 2
Flags: W
LayerCount: 2
Fore
SplineSet
188 492 m 0,0,1
 274 492 274 492 321.5 436 c 128,-1,2
 369 380 369 380 369 293 c 0,3,4
 369 155 369 155 379 106.5 c 128,-1,5
 389 58 389 58 417 38 c 1,6,7
 434 30 434 30 434 16 c 0,8,9
 434 -10 434 -10 410 -10 c 128,-1,10
 386 -10 386 -10 364.5 12.5 c 128,-1,11
 343 35 343 35 330 68 c 1,12,13
 313 35 313 35 275.5 12.5 c 128,-1,14
 238 -10 238 -10 186 -10 c 0,15,16
 110 -10 110 -10 62.5 37.5 c 128,-1,17
 15 85 15 85 15 158.5 c 128,-1,18
 15 232 15 232 65 284 c 128,-1,19
 115 336 115 336 189.5 336 c 128,-1,20
 264 336 264 336 314 287 c 1,21,22
 314 357 314 357 284 404.5 c 128,-1,23
 254 452 254 452 192 452 c 128,-1,24
 130 452 130 452 114 418 c 1,25,26
 123 397 123 397 123 383 c 128,-1,27
 123 369 123 369 111 353 c 128,-1,28
 99 337 99 337 81.5 337 c 128,-1,29
 64 337 64 337 54 352 c 128,-1,30
 44 367 44 367 44 387 c 0,31,32
 44 429 44 429 85.5 460.5 c 128,-1,33
 127 492 127 492 188 492 c 0,0,1
107 71 m 128,-1,35
 144 34 144 34 195.5 34 c 128,-1,36
 247 34 247 34 282 69.5 c 128,-1,37
 317 105 317 105 317 156 c 2,38,-1
 317 165 l 2,39,40
 317 219 317 219 281 254 c 128,-1,41
 245 289 245 289 192.5 289 c 128,-1,42
 140 289 140 289 105 253.5 c 128,-1,43
 70 218 70 218 70 163 c 128,-1,34
 70 108 70 108 107 71 c 128,-1,35
EndSplineSet
EndChar

StartChar: b
Encoding: 98 98 69
Width: 452
GlyphClass: 2
Flags: W
LayerCount: 2
Fore
SplineSet
114 405 m 1,0,1
 162 482 162 482 248.5 482 c 128,-1,2
 335 482 335 482 383.5 413 c 128,-1,3
 432 344 432 344 432 236.5 c 128,-1,4
 432 129 432 129 382 61 c 128,-1,5
 332 -7 332 -7 244.5 -7 c 128,-1,6
 157 -7 157 -7 107.5 58 c 128,-1,7
 58 123 58 123 58 242 c 2,8,-1
 58 585 l 1,9,-1
 32 585 l 2,10,11
 10 585 10 585 10 611 c 128,-1,12
 10 637 10 637 32 637 c 2,13,-1
 140 637 l 2,14,15
 151 637 151 637 157 629.5 c 128,-1,16
 163 622 163 622 163 611.5 c 128,-1,17
 163 601 163 601 157 593 c 128,-1,18
 151 585 151 585 140 585 c 2,19,-1
 114 585 l 1,20,-1
 114 405 l 1,0,1
149 87.5 m 128,-1,22
 188 38 188 38 240.5 38 c 128,-1,23
 293 38 293 38 324 71 c 0,24,25
 377 127 377 127 377 236 c 0,26,27
 377 308 377 308 350 368 c 0,28,29
 336 399 336 399 309 418 c 128,-1,30
 282 437 282 437 246 437 c 0,31,32
 183 437 183 437 146.5 380.5 c 128,-1,33
 110 324 110 324 110 230.5 c 128,-1,21
 110 137 110 137 149 87.5 c 128,-1,22
EndSplineSet
EndChar

StartChar: c
Encoding: 99 99 70
Width: 380
GlyphClass: 2
Flags: W
LayerCount: 2
Fore
SplineSet
372 128.5 m 128,-1,1
 380 120 380 120 380 110 c 0,2,3
 380 75 380 75 335.5 32.5 c 128,-1,4
 291 -10 291 -10 220 -10 c 0,5,6
 130 -10 130 -10 75 61.5 c 128,-1,7
 20 133 20 133 20 241 c 128,-1,8
 20 349 20 349 73 419.5 c 128,-1,9
 126 490 126 490 208 490 c 0,10,11
 253 490 253 490 287 468.5 c 128,-1,12
 321 447 321 447 321 412 c 0,13,14
 321 394 321 394 311.5 382 c 128,-1,15
 302 370 302 370 284 370 c 128,-1,16
 266 370 266 370 252 390.5 c 128,-1,17
 238 411 238 411 237 438 c 1,18,19
 221 445 221 445 209 445 c 0,20,21
 154 445 154 445 115 388.5 c 128,-1,22
 76 332 76 332 76 242.5 c 128,-1,23
 76 153 76 153 117.5 94.5 c 128,-1,24
 159 36 159 36 220 36 c 128,-1,25
 281 36 281 36 317 113 c 0,26,27
 328 137 328 137 346 137 c 128,-1,0
 364 137 364 137 372 128.5 c 128,-1,1
EndSplineSet
EndChar

StartChar: d
Encoding: 100 100 71
Width: 478
GlyphClass: 2
Flags: W
LayerCount: 2
Fore
SplineSet
395 52 m 1,0,-1
 442 52 l 2,1,2
 451 52 451 52 457 44 c 128,-1,3
 463 36 463 36 463 26 c 128,-1,4
 463 16 463 16 457 8 c 128,-1,5
 451 0 451 0 442 0 c 2,6,-1
 358 0 l 2,7,8
 339 0 339 0 339 20 c 2,9,-1
 339 77 l 1,10,11
 317 42 317 42 280 19.5 c 128,-1,12
 243 -3 243 -3 200 -3 c 0,13,14
 117 -3 117 -3 68.5 63.5 c 128,-1,15
 20 130 20 130 20 236.5 c 128,-1,16
 20 343 20 343 69 413.5 c 128,-1,17
 118 484 118 484 201 484 c 0,18,19
 246 484 246 484 283 463 c 128,-1,20
 320 442 320 442 339 407 c 1,21,-1
 339 586 l 1,22,-1
 292 586 l 2,23,24
 268 586 268 586 268 612 c 128,-1,25
 268 638 268 638 292 638 c 2,26,-1
 369 638 l 2,27,28
 383 638 383 638 389 632.5 c 128,-1,29
 395 627 395 627 395 612 c 2,30,-1
 395 52 l 1,0,-1
108 101 m 128,-1,32
 141 43 141 43 206 43 c 128,-1,33
 271 43 271 43 307 94 c 128,-1,34
 343 145 343 145 343 234 c 128,-1,35
 343 323 343 323 308.5 381 c 128,-1,36
 274 439 274 439 209 439 c 0,37,38
 161 439 161 439 130 404 c 1,39,40
 75 345 75 345 75 236 c 0,41,31
 75 159 75 159 108 101 c 128,-1,32
EndSplineSet
EndChar

StartChar: e
Encoding: 101 101 72
Width: 384
GlyphClass: 2
Flags: W
LayerCount: 2
Fore
SplineSet
290 409 m 128,-1,1
 258 446 258 446 210.5 446 c 128,-1,2
 163 446 163 446 132 411 c 128,-1,3
 101 376 101 376 89 332 c 1,4,-1
 326 332 l 1,5,0
 322 372 322 372 290 409 c 128,-1,1
221 -10 m 0,6,7
 130 -10 130 -10 75 61 c 128,-1,8
 20 132 20 132 20 242 c 128,-1,9
 20 352 20 352 72.5 421 c 128,-1,10
 125 490 125 490 211 490 c 0,11,12
 255 490 255 490 290 470.5 c 128,-1,13
 325 451 325 451 344 422 c 0,14,15
 384 363 384 363 384 310 c 0,16,17
 384 282 384 282 358 282 c 2,18,-1
 78 282 l 1,19,20
 76 269 76 269 76 245 c 0,21,22
 76 153 76 153 117.5 94 c 128,-1,23
 159 35 159 35 221 35 c 0,24,25
 248 35 248 35 270 49.5 c 128,-1,26
 292 64 292 64 301 77.5 c 128,-1,27
 310 91 310 91 321.5 114 c 128,-1,28
 333 137 333 137 353 137 c 0,29,30
 383 137 383 137 383 110 c 0,31,32
 383 75 383 75 338.5 32.5 c 128,-1,33
 294 -10 294 -10 221 -10 c 0,6,7
EndSplineSet
EndChar

StartChar: f
Encoding: 102 102 73
Width: 279
GlyphClass: 2
Flags: W
LayerCount: 2
Fore
SplineSet
194 632 m 128,-1,1
 236 632 236 632 257.5 612.5 c 128,-1,2
 279 593 279 593 279 573 c 128,-1,3
 279 553 279 553 269 543.5 c 128,-1,4
 259 534 259 534 241 534 c 128,-1,5
 223 534 223 534 207.5 552.5 c 128,-1,6
 192 571 192 571 189 591 c 1,7,8
 166 589 166 589 150 554.5 c 128,-1,9
 134 520 134 520 132 476 c 1,10,-1
 183 476 l 2,11,12
 193 476 193 476 199 469 c 128,-1,13
 205 462 205 462 205 452.5 c 128,-1,14
 205 443 205 443 198.5 436 c 128,-1,15
 192 429 192 429 183 429 c 2,16,-1
 135 429 l 1,17,-1
 135 52 l 1,18,-1
 167 52 l 2,19,20
 176 52 176 52 183 44 c 128,-1,21
 190 36 190 36 190 26 c 128,-1,22
 190 16 190 16 183.5 8 c 128,-1,23
 177 0 177 0 167 0 c 2,24,-1
 51 0 l 2,25,26
 25 0 25 0 25 27 c 0,27,28
 25 37 25 37 31.5 44.5 c 128,-1,29
 38 52 38 52 51 52 c 2,30,-1
 79 52 l 1,31,-1
 79 429 l 1,32,-1
 46 429 l 2,33,34
 36 429 36 429 30.5 436 c 128,-1,35
 25 443 25 443 25 452 c 0,36,37
 25 476 25 476 46 476 c 2,38,-1
 82 476 l 1,39,40
 85 550 85 550 118.5 591 c 128,-1,0
 152 632 152 632 194 632 c 128,-1,1
EndSplineSet
EndChar

StartChar: g
Encoding: 103 103 74
Width: 482
GlyphClass: 2
Flags: W
LayerCount: 2
Fore
SplineSet
246.5 -52.5 m 128,-1,1
 266 -72 266 -72 294 -72 c 128,-1,2
 322 -72 322 -72 334.5 -60 c 128,-1,3
 347 -48 347 -48 347 -30 c 0,4,5
 347 4 347 4 290 4 c 0,6,7
 257 4 257 4 225 0 c 1,8,0
 227 -33 227 -33 246.5 -52.5 c 128,-1,1
353 196.5 m 128,-1,10
 398 238 398 238 398 300 c 128,-1,11
 398 362 398 362 345.5 405 c 128,-1,12
 293 448 293 448 227.5 448 c 128,-1,13
 162 448 162 448 114.5 407.5 c 128,-1,14
 67 367 67 367 67 303.5 c 128,-1,15
 67 240 67 240 120 198 c 128,-1,16
 173 156 173 156 240.5 155.5 c 128,-1,9
 308 155 308 155 353 196.5 c 128,-1,10
450 299 m 0,17,18
 450 219 450 219 387.5 165.5 c 128,-1,19
 325 112 325 112 234 112 c 0,20,21
 198 112 198 112 165 122 c 1,22,-1
 126 52 l 1,23,-1
 300 52 l 2,24,25
 351 52 351 52 373.5 28.5 c 128,-1,26
 396 5 396 5 396 -28.5 c 128,-1,27
 396 -62 396 -62 366 -87.5 c 128,-1,28
 336 -113 336 -113 288.5 -113 c 128,-1,29
 241 -113 241 -113 201 -78 c 128,-1,30
 161 -43 161 -43 159 0 c 1,31,-1
 84 0 l 2,32,33
 52 0 52 0 52 22 c 0,34,35
 52 29 52 29 57 37 c 2,36,-1
 118 140 l 1,37,38
 73 162 73 162 44 207 c 128,-1,39
 15 252 15 252 15 305 c 0,40,41
 15 383 15 383 78 436.5 c 128,-1,42
 141 490 141 490 232 490 c 0,43,44
 274 490 274 490 307 480 c 1,45,-1
 344 540 l 2,46,47
 373 588 373 588 415 588 c 0,48,49
 443 588 443 588 462.5 567 c 128,-1,50
 482 546 482 546 482 526.5 c 128,-1,51
 482 507 482 507 473 497.5 c 128,-1,52
 464 488 464 488 448.5 488 c 128,-1,53
 433 488 433 488 416 503 c 128,-1,54
 399 518 399 518 395 540 c 1,55,-1
 347 463 l 1,56,57
 394 436 394 436 422 393.5 c 128,-1,58
 450 351 450 351 450 299 c 0,17,18
EndSplineSet
EndChar

StartChar: h
Encoding: 104 104 75
Width: 489
GlyphClass: 2
Flags: W
LayerCount: 2
Fore
SplineSet
86 586 m 1,0,-1
 47 586 l 2,1,2
 25 586 25 586 25 612 c 128,-1,3
 25 638 25 638 47 638 c 2,4,-1
 120 638 l 2,5,6
 133 638 133 638 137.5 633.5 c 128,-1,7
 142 629 142 629 142 616 c 2,8,-1
 142 392 l 1,9,10
 160 428 160 428 200 457 c 128,-1,11
 240 486 240 486 297.5 486 c 128,-1,12
 355 486 355 486 386 441.5 c 128,-1,13
 417 397 417 397 417 338 c 2,14,-1
 417 52 l 1,15,-1
 446 52 l 2,16,17
 457 52 457 52 463 44 c 128,-1,18
 469 36 469 36 469 26 c 128,-1,19
 469 16 469 16 463 8 c 128,-1,20
 457 0 457 0 446 0 c 2,21,-1
 336 0 l 2,22,23
 310 0 310 0 310 26 c 128,-1,24
 310 52 310 52 336 52 c 2,25,-1
 361 52 l 1,26,-1
 361 341 l 2,27,28
 361 377 361 377 344 408 c 128,-1,29
 327 439 327 439 286 439 c 0,30,31
 231 439 231 439 186.5 382 c 128,-1,32
 142 325 142 325 142 262 c 2,33,-1
 142 52 l 1,34,-1
 171 52 l 2,35,36
 182 52 182 52 189 44 c 128,-1,37
 196 36 196 36 196 26 c 128,-1,38
 196 16 196 16 189 8 c 128,-1,39
 182 0 182 0 171 0 c 2,40,-1
 55 0 l 2,41,42
 31 0 31 0 31 26 c 128,-1,43
 31 52 31 52 55 52 c 2,44,-1
 86 52 l 1,45,-1
 86 586 l 1,0,-1
EndSplineSet
EndChar

StartChar: i
Encoding: 105 105 76
Width: 214
GlyphClass: 2
Flags: W
LayerCount: 2
Fore
SplineSet
80 429 m 1,0,-1
 54 429 l 2,1,2
 42 429 42 429 35 436.5 c 128,-1,3
 28 444 28 444 28 454 c 0,4,5
 28 480 28 480 54 480 c 2,6,-1
 104 480 l 2,7,8
 135 480 135 480 136 453 c 1,9,-1
 136 52 l 1,10,-1
 161 52 l 2,11,12
 173 52 173 52 179.5 44 c 128,-1,13
 186 36 186 36 186 26 c 0,14,15
 186 0 186 0 161 0 c 2,16,-1
 55 0 l 2,17,18
 45 0 45 0 37.5 7.5 c 128,-1,19
 30 15 30 15 30 25 c 128,-1,20
 30 35 30 35 37.5 43.5 c 128,-1,21
 45 52 45 52 55 52 c 2,22,-1
 80 53 l 1,23,-1
 80 429 l 1,0,-1
128.5 622 m 128,-1,25
 142 609 142 609 142 590.5 c 128,-1,26
 142 572 142 572 128.5 559 c 128,-1,27
 115 546 115 546 95.5 546 c 128,-1,28
 76 546 76 546 62.5 559 c 128,-1,29
 49 572 49 572 49 590.5 c 128,-1,30
 49 609 49 609 62 622 c 128,-1,31
 75 635 75 635 95 635 c 128,-1,24
 115 635 115 635 128.5 622 c 128,-1,25
EndSplineSet
EndChar

StartChar: j
Encoding: 106 106 77
Width: 274
GlyphClass: 2
Flags: W
LayerCount: 2
Fore
SplineSet
141 429 m 1,0,-1
 110 429 l 2,1,2
 87 429 87 429 87 454.5 c 128,-1,3
 87 480 87 480 110 480 c 2,4,-1
 222 480 l 2,5,6
 246 480 246 480 246 454.5 c 128,-1,7
 246 429 246 429 222 429 c 2,8,-1
 197 428 l 1,9,-1
 197 125 l 2,10,11
 197 0 197 0 180 -45 c 0,12,13
 159 -101 159 -101 124 -117 c 0,14,15
 103 -127 103 -127 74 -127 c 128,-1,16
 45 -127 45 -127 22.5 -107.5 c 128,-1,17
 0 -88 0 -88 0 -62 c 0,18,19
 0 -29 0 -29 34 -29 c 0,20,21
 60 -29 60 -29 74 -48 c 128,-1,22
 88 -67 88 -67 90 -87 c 1,23,24
 116 -78 116 -78 128.5 -37.5 c 128,-1,25
 141 3 141 3 141 48 c 2,26,-1
 141 429 l 1,0,-1
196.5 622 m 128,-1,28
 210 609 210 609 210 590.5 c 128,-1,29
 210 572 210 572 196.5 559 c 128,-1,30
 183 546 183 546 163.5 546 c 128,-1,31
 144 546 144 546 130.5 559 c 128,-1,32
 117 572 117 572 117 590.5 c 128,-1,33
 117 609 117 609 130 622 c 128,-1,34
 143 635 143 635 163 635 c 128,-1,27
 183 635 183 635 196.5 622 c 128,-1,28
EndSplineSet
EndChar

StartChar: k
Encoding: 107 107 78
Width: 467
GlyphClass: 2
Flags: W
LayerCount: 2
Fore
SplineSet
72 586 m 1,0,-1
 51 586 l 2,1,2
 28 586 28 586 28 612 c 128,-1,3
 28 638 28 638 51 638 c 2,4,-1
 154 638 l 2,5,6
 177 638 177 638 177 612 c 128,-1,7
 177 586 177 586 154 586 c 2,8,-1
 128 586 l 1,9,-1
 128 309 l 1,10,-1
 281 429 l 1,11,-1
 260 429 l 2,12,13
 251 429 251 429 244.5 436.5 c 128,-1,14
 238 444 238 444 238 454.5 c 128,-1,15
 238 465 238 465 244 472 c 128,-1,16
 250 479 250 479 260 479 c 2,17,-1
 379 479 l 2,18,19
 400 479 400 479 400 454 c 128,-1,20
 400 429 400 429 379 429 c 2,21,-1
 349 429 l 1,22,-1
 247 347 l 1,23,-1
 412 52 l 1,24,-1
 441 52 l 2,25,26
 462 52 462 52 462 26 c 128,-1,27
 462 0 462 0 441 0 c 2,28,-1
 327 0 l 2,29,30
 302 0 302 0 302 26 c 128,-1,31
 302 52 302 52 327 52 c 2,32,-1
 349 52 l 1,33,-1
 204 313 l 1,34,-1
 128 256 l 1,35,-1
 128 52 l 1,36,-1
 148 52 l 2,37,38
 170 52 170 52 170 26 c 128,-1,39
 170 0 170 0 148 0 c 2,40,-1
 46 0 l 2,41,42
 25 0 25 0 25 26 c 128,-1,43
 25 52 25 52 46 52 c 2,44,-1
 72 52 l 1,45,-1
 72 586 l 1,0,-1
EndSplineSet
EndChar

StartChar: l
Encoding: 108 108 79
Width: 220
GlyphClass: 2
Flags: W
LayerCount: 2
Fore
SplineSet
86 585 m 1,0,-1
 54 585 l 2,1,2
 42 585 42 585 35 592.5 c 128,-1,3
 28 600 28 600 28 611.5 c 128,-1,4
 28 623 28 623 35 630 c 128,-1,5
 42 637 42 637 54 637 c 2,6,-1
 111 637 l 2,7,8
 128 637 128 637 135 631 c 128,-1,9
 142 625 142 625 142 609 c 2,10,-1
 142 52 l 1,11,-1
 167 52 l 2,12,13
 179 52 179 52 185.5 44 c 128,-1,14
 192 36 192 36 192 26 c 0,15,16
 192 0 192 0 167 0 c 2,17,-1
 61 0 l 2,18,19
 50 0 50 0 43 7.5 c 128,-1,20
 36 15 36 15 36 25.5 c 128,-1,21
 36 36 36 36 43 44 c 128,-1,22
 50 52 50 52 61 52 c 2,23,-1
 86 52 l 1,24,-1
 86 585 l 1,0,-1
EndSplineSet
EndChar

StartChar: m
Encoding: 109 109 80
Width: 697
GlyphClass: 2
Flags: W
LayerCount: 2
Fore
SplineSet
626 52 m 1,0,-1
 649 52 l 2,1,2
 660 52 660 52 666 44 c 128,-1,3
 672 36 672 36 672 26 c 128,-1,4
 672 16 672 16 666 8 c 128,-1,5
 660 0 660 0 649 0 c 2,6,-1
 553 0 l 2,7,8
 542 0 542 0 536 8 c 128,-1,9
 530 16 530 16 530 26 c 128,-1,10
 530 36 530 36 536 44 c 128,-1,11
 542 52 542 52 553 52 c 2,12,-1
 570 52 l 1,13,-1
 570 316 l 2,14,15
 570 378 570 378 557 408.5 c 128,-1,16
 544 439 544 439 504.5 439 c 128,-1,17
 465 439 465 439 436 406 c 0,18,19
 382 346 382 346 382 258 c 2,20,-1
 382 52 l 1,21,-1
 402 52 l 2,22,23
 414 52 414 52 420.5 44 c 128,-1,24
 427 36 427 36 427 25.5 c 128,-1,25
 427 15 427 15 420.5 7.5 c 128,-1,26
 414 0 414 0 402 0 c 2,27,-1
 307 0 l 2,28,29
 281 0 281 0 281 26 c 128,-1,30
 281 52 281 52 307 52 c 2,31,-1
 327 52 l 1,32,-1
 327 323 l 2,33,34
 327 356 327 356 323 379 c 128,-1,35
 319 402 319 402 303 420.5 c 128,-1,36
 287 439 287 439 259 439 c 0,37,38
 204 439 204 439 171.5 381 c 128,-1,39
 139 323 139 323 139 260 c 2,40,-1
 139 52 l 1,41,-1
 159 52 l 2,42,43
 168 52 168 52 175.5 43.5 c 128,-1,44
 183 35 183 35 183 25.5 c 128,-1,45
 183 16 183 16 176 8 c 128,-1,46
 169 0 169 0 159 0 c 2,47,-1
 57 0 l 2,48,49
 45 0 45 0 38 8 c 128,-1,50
 31 16 31 16 31 26 c 128,-1,51
 31 36 31 36 38 44 c 128,-1,52
 45 52 45 52 57 52 c 2,53,-1
 83 52 l 1,54,-1
 83 428 l 1,55,-1
 48 428 l 2,56,57
 38 428 38 428 31.5 435 c 128,-1,58
 25 442 25 442 25 454.5 c 128,-1,59
 25 467 25 467 32.5 473.5 c 128,-1,60
 40 480 40 480 48 480 c 2,61,-1
 122 480 l 2,62,63
 132 480 132 480 135.5 477 c 128,-1,64
 139 474 139 474 139 463 c 2,65,-1
 139 398 l 1,66,-1
 141 398 l 1,67,68
 185 486 185 486 266.5 486 c 128,-1,69
 348 486 348 486 373 392 c 1,70,71
 429 486 429 486 511 486 c 0,72,73
 574 486 574 486 600 440.5 c 128,-1,74
 626 395 626 395 626 330 c 2,75,-1
 626 52 l 1,0,-1
EndSplineSet
EndChar

StartChar: n
Encoding: 110 110 81
Width: 519
GlyphClass: 2
Flags: W
LayerCount: 2
Fore
SplineSet
145 52 m 1,0,-1
 174 52 l 2,1,2
 185 52 185 52 192 44 c 128,-1,3
 199 36 199 36 199 26 c 128,-1,4
 199 16 199 16 192 8 c 128,-1,5
 185 0 185 0 174 0 c 2,6,-1
 57 0 l 2,7,8
 46 0 46 0 39.5 7.5 c 128,-1,9
 33 15 33 15 33 25.5 c 128,-1,10
 33 36 33 36 39.5 44 c 128,-1,11
 46 52 46 52 57 52 c 2,12,-1
 89 52 l 1,13,-1
 89 428 l 1,14,-1
 48 428 l 2,15,16
 37 428 37 428 31 435.5 c 128,-1,17
 25 443 25 443 25 455 c 128,-1,18
 25 467 25 467 32.5 473.5 c 128,-1,19
 40 480 40 480 48 480 c 2,20,-1
 125 480 l 2,21,22
 136 480 136 480 140 476 c 128,-1,23
 144 472 144 472 144 461 c 2,24,-1
 144 386 l 1,25,26
 171 431 171 431 213 459 c 128,-1,27
 255 487 255 487 301 487 c 0,28,29
 377 487 377 487 409 441.5 c 128,-1,30
 441 396 441 396 441 329 c 2,31,-1
 441 52 l 1,32,-1
 469 52 l 2,33,34
 480 52 480 52 487 44 c 128,-1,35
 494 36 494 36 494 26 c 128,-1,36
 494 16 494 16 487 8 c 128,-1,37
 480 0 480 0 469 0 c 2,38,-1
 361 0 l 2,39,40
 337 0 337 0 337 26 c 128,-1,41
 337 52 337 52 361 52 c 2,42,-1
 385 52 l 1,43,-1
 385 334 l 2,44,45
 385 440 385 440 300 440 c 0,46,47
 243 440 243 440 194 387 c 128,-1,48
 145 334 145 334 145 255 c 2,49,-1
 145 52 l 1,0,-1
EndSplineSet
EndChar

StartChar: o
Encoding: 111 111 82
Width: 485
GlyphClass: 2
Flags: W
LayerCount: 2
Fore
SplineSet
76.5 418.5 m 128,-1,1
 138 488 138 488 242.5 488 c 128,-1,2
 347 488 347 488 408.5 419 c 128,-1,3
 470 350 470 350 470 242.5 c 128,-1,4
 470 135 470 135 409 64.5 c 128,-1,5
 348 -6 348 -6 241.5 -6 c 128,-1,6
 135 -6 135 -6 75 64 c 128,-1,7
 15 134 15 134 15 241.5 c 128,-1,0
 15 349 15 349 76.5 418.5 c 128,-1,1
242 41 m 128,-1,9
 315 41 315 41 364.5 98.5 c 128,-1,10
 414 156 414 156 414 241 c 128,-1,11
 414 326 414 326 364 383.5 c 128,-1,12
 314 441 314 441 242 441 c 128,-1,13
 170 441 170 441 120.5 384 c 128,-1,14
 71 327 71 327 71 242 c 128,-1,15
 71 157 71 157 120 99 c 128,-1,8
 169 41 169 41 242 41 c 128,-1,9
EndSplineSet
EndChar

StartChar: p
Encoding: 112 112 83
Width: 478
GlyphClass: 2
Flags: W
LayerCount: 2
Fore
SplineSet
83 -75 m 1,0,-1
 83 428 l 1,1,-1
 46 428 l 2,2,3
 37 428 37 428 31 436 c 128,-1,4
 25 444 25 444 25 454 c 128,-1,5
 25 464 25 464 31 472 c 128,-1,6
 37 480 37 480 46 480 c 2,7,-1
 120 480 l 2,8,9
 132 480 132 480 135 476.5 c 128,-1,10
 138 473 138 473 138 462 c 2,11,-1
 138 401 l 1,12,13
 159 437 159 437 197 459.5 c 128,-1,14
 235 482 235 482 278 482 c 0,15,16
 362 482 362 482 410 415.5 c 128,-1,17
 458 349 458 349 458 242.5 c 128,-1,18
 458 136 458 136 409.5 67 c 128,-1,19
 361 -2 361 -2 276 -2 c 0,20,21
 233 -2 233 -2 195 19.5 c 128,-1,22
 157 41 157 41 139 73 c 1,23,-1
 139 -75 l 1,24,-1
 169 -75 l 2,25,26
 180 -75 180 -75 187 -82 c 128,-1,27
 194 -89 194 -89 194 -100 c 0,28,29
 194 -127 194 -127 169 -127 c 2,30,-1
 52 -127 l 2,31,32
 28 -127 28 -127 28 -100 c 0,33,34
 28 -89 28 -89 35 -82 c 128,-1,35
 42 -75 42 -75 52 -75 c 2,36,-1
 83 -75 l 1,0,-1
371 378 m 128,-1,38
 340 437 340 437 274 437 c 128,-1,39
 208 437 208 437 171.5 385 c 128,-1,40
 135 333 135 333 135 242.5 c 128,-1,41
 135 152 135 152 171.5 97.5 c 128,-1,42
 208 43 208 43 274 43 c 0,43,44
 322 43 322 43 352 77 c 128,-1,45
 382 111 382 111 392 153 c 128,-1,46
 402 195 402 195 402 257 c 128,-1,37
 402 319 402 319 371 378 c 128,-1,38
EndSplineSet
EndChar

StartChar: q
Encoding: 113 113 84
Width: 474
GlyphClass: 2
Flags: W
LayerCount: 2
Fore
SplineSet
200 -4 m 0,0,1
 117 -4 117 -4 68.5 64 c 128,-1,2
 20 132 20 132 20 241 c 128,-1,3
 20 350 20 350 69.5 418 c 128,-1,4
 119 486 119 486 213.5 486 c 128,-1,5
 308 486 308 486 358 398 c 1,6,7
 371 438 371 438 392.5 464 c 128,-1,8
 414 490 414 490 440 490 c 0,9,10
 452 490 452 490 458 482 c 128,-1,11
 464 474 464 474 464 462.5 c 128,-1,12
 464 451 464 451 450.5 443.5 c 128,-1,13
 437 436 437 436 429 426.5 c 128,-1,14
 421 417 421 417 412 396 c 0,15,16
 395 355 395 355 395 230 c 2,17,-1
 395 -75 l 1,18,-1
 421 -75 l 2,19,20
 444 -75 444 -75 444 -101 c 128,-1,21
 444 -127 444 -127 421 -127 c 2,22,-1
 312 -127 l 2,23,24
 303 -127 303 -127 296.5 -118.5 c 128,-1,25
 290 -110 290 -110 290 -100.5 c 128,-1,26
 290 -91 290 -91 296.5 -83 c 128,-1,27
 303 -75 303 -75 312 -75 c 2,28,-1
 339 -75 l 1,29,-1
 339 78 l 1,30,31
 317 42 317 42 281 19 c 128,-1,32
 245 -4 245 -4 200 -4 c 0,0,1
209 441 m 0,33,34
 161 441 161 441 130 407 c 0,35,36
 75 348 75 348 75 239 c 0,37,38
 75 162 75 162 108 102.5 c 128,-1,39
 141 43 141 43 205.5 43 c 128,-1,40
 270 43 270 43 306.5 94.5 c 128,-1,41
 343 146 343 146 343 235.5 c 128,-1,42
 343 325 343 325 308.5 383 c 128,-1,43
 274 441 274 441 209 441 c 0,33,34
EndSplineSet
EndChar

StartChar: r
Encoding: 114 114 85
Width: 345
GlyphClass: 2
Flags: W
LayerCount: 2
Fore
SplineSet
128 435 m 1,0,-1
 128 52 l 1,1,-1
 147 52 l 2,2,3
 159 52 159 52 165.5 44.5 c 128,-1,4
 172 37 172 37 172 26 c 0,5,6
 172 0 172 0 147 0 c 2,7,-1
 52 0 l 2,8,9
 26 0 26 0 26 26 c 128,-1,10
 26 52 26 52 52 52 c 2,11,-1
 72 52 l 1,12,-1
 72 428 l 1,13,-1
 52 428 l 2,14,15
 39 428 39 428 32 436 c 128,-1,16
 25 444 25 444 25 454.5 c 128,-1,17
 25 465 25 465 32 472.5 c 128,-1,18
 39 480 39 480 52 480 c 2,19,-1
 237 480 l 2,20,21
 288 480 288 480 314 458.5 c 128,-1,22
 340 437 340 437 340 404 c 0,23,24
 340 387 340 387 332 373.5 c 128,-1,25
 324 360 324 360 306 360 c 128,-1,26
 288 360 288 360 273.5 376.5 c 128,-1,27
 259 393 259 393 258.5 411.5 c 128,-1,28
 258 430 258 430 260 435 c 1,29,-1
 128 435 l 1,0,-1
EndSplineSet
EndChar

StartChar: s
Encoding: 115 115 86
Width: 318
GlyphClass: 2
Flags: W
LayerCount: 2
Fore
SplineSet
100 401 m 0,0,1
 100 365 100 365 172 312 c 1,2,-1
 205 287 l 2,3,4
 233 267 233 267 249.5 252.5 c 128,-1,5
 266 238 266 238 284.5 205.5 c 128,-1,6
 303 173 303 173 303 137 c 0,7,8
 303 81 303 81 266.5 35.5 c 128,-1,9
 230 -10 230 -10 164 -10 c 128,-1,10
 98 -10 98 -10 56.5 21.5 c 128,-1,11
 15 53 15 53 15 102 c 0,12,13
 15 132 15 132 31 153.5 c 128,-1,14
 47 175 47 175 65 175 c 128,-1,15
 83 175 83 175 92.5 163.5 c 128,-1,16
 102 152 102 152 102 134 c 0,17,18
 102 98 102 98 78 80 c 1,19,20
 80 60 80 60 103.5 46 c 128,-1,21
 127 32 127 32 165.5 32 c 128,-1,22
 204 32 204 32 228 60 c 128,-1,23
 252 88 252 88 252 119.5 c 128,-1,24
 252 151 252 151 237 174 c 128,-1,25
 222 197 222 197 207 209 c 128,-1,26
 192 221 192 221 159 245 c 2,27,-1
 141 258 l 2,28,29
 93 292 93 292 69 320.5 c 128,-1,30
 45 349 45 349 45 390.5 c 128,-1,31
 45 432 45 432 75 460 c 128,-1,32
 105 488 105 488 149 488 c 128,-1,33
 193 488 193 488 228 463 c 128,-1,34
 263 438 263 438 263 401 c 0,35,36
 263 384 263 384 254.5 372.5 c 128,-1,37
 246 361 246 361 230 361 c 128,-1,38
 214 361 214 361 198.5 379.5 c 128,-1,39
 183 398 183 398 183 414.5 c 128,-1,40
 183 431 183 431 188 443 c 1,41,42
 179 450 179 450 152.5 450 c 128,-1,43
 126 450 126 450 113 434.5 c 128,-1,44
 100 419 100 419 100 401 c 0,0,1
EndSplineSet
EndChar

StartChar: t
Encoding: 116 116 87
Width: 261
GlyphClass: 2
Flags: W
LayerCount: 2
Fore
SplineSet
206 86 m 128,-1,1
 214 94 214 94 227 94 c 128,-1,2
 240 94 240 94 248 86.5 c 128,-1,3
 256 79 256 79 256 66 c 0,4,5
 256 37 256 37 230.5 13.5 c 128,-1,6
 205 -10 205 -10 167 -10 c 128,-1,7
 129 -10 129 -10 104 16.5 c 128,-1,8
 79 43 79 43 79 82 c 2,9,-1
 79 428 l 1,10,-1
 36 428 l 2,11,12
 25 428 25 428 17.5 436 c 128,-1,13
 10 444 10 444 10 454 c 128,-1,14
 10 464 10 464 17.5 472 c 128,-1,15
 25 480 25 480 36 480 c 2,16,-1
 60 480 l 2,17,18
 76 480 76 480 80 484.5 c 128,-1,19
 84 489 84 489 84 503 c 2,20,-1
 84 557 l 2,21,22
 84 596 84 596 124 596 c 0,23,24
 136 596 136 596 136 584 c 2,25,-1
 136 480 l 1,26,-1
 180 480 l 2,27,28
 207 480 207 480 207 453 c 0,29,30
 207 443 207 443 200 435.5 c 128,-1,31
 193 428 193 428 180 428 c 2,32,-1
 136 428 l 1,33,-1
 136 83 l 2,34,35
 136 36 136 36 167 36 c 128,-1,36
 198 36 198 36 198 65 c 0,37,0
 198 78 198 78 206 86 c 128,-1,1
EndSplineSet
EndChar

StartChar: u
Encoding: 117 117 88
Width: 498
GlyphClass: 2
Flags: W
LayerCount: 2
Fore
SplineSet
357 428 m 1,0,-1
 334 428 l 2,1,2
 323 428 323 428 315.5 436 c 128,-1,3
 308 444 308 444 308 454 c 128,-1,4
 308 464 308 464 315.5 472 c 128,-1,5
 323 480 323 480 334 480 c 2,6,-1
 435 480 l 2,7,8
 459 480 459 480 459 454 c 128,-1,9
 459 428 459 428 435 428 c 2,10,-1
 413 428 l 1,11,-1
 413 52 l 1,12,-1
 450 52 l 2,13,14
 473 52 473 52 473 26 c 0,15,16
 473 14 473 14 466 7 c 128,-1,17
 459 0 459 0 450 0 c 2,18,-1
 379 0 l 2,19,20
 367 0 367 0 362.5 4.5 c 128,-1,21
 358 9 358 9 358 21 c 2,22,-1
 358 86 l 1,23,24
 301 -7 301 -7 208 -7 c 0,25,26
 135 -7 135 -7 100 42.5 c 128,-1,27
 65 92 65 92 65 157 c 2,28,-1
 65 428 l 1,29,-1
 43 428 l 2,30,31
 32 428 32 428 26 436 c 128,-1,32
 20 444 20 444 20 454 c 128,-1,33
 20 464 20 464 26 472 c 128,-1,34
 32 480 32 480 43 480 c 2,35,-1
 145 480 l 2,36,37
 156 480 156 480 163 472 c 128,-1,38
 170 464 170 464 170 454 c 128,-1,39
 170 444 170 444 163 436 c 128,-1,40
 156 428 156 428 145 428 c 2,41,-1
 121 428 l 1,42,-1
 121 156 l 2,43,44
 121 112 121 112 144 76 c 128,-1,45
 167 40 167 40 218.5 40 c 128,-1,46
 270 40 270 40 313.5 92 c 128,-1,47
 357 144 357 144 357 224 c 2,48,-1
 357 428 l 1,0,-1
EndSplineSet
EndChar

StartChar: v
Encoding: 118 118 89
Width: 398
GlyphClass: 2
Flags: W
LayerCount: 2
Fore
SplineSet
77 428 m 1,0,-1
 48 428 l 2,1,2
 25 428 25 428 25 454 c 128,-1,3
 25 480 25 480 48 480 c 2,4,-1
 160 480 l 2,5,6
 170 480 170 480 178 472 c 128,-1,7
 186 464 186 464 186 454 c 128,-1,8
 186 444 186 444 178 436 c 128,-1,9
 170 428 170 428 160 428 c 2,10,-1
 133 428 l 1,11,-1
 133 43 l 1,12,13
 180 43 180 43 229.5 97.5 c 128,-1,14
 279 152 279 152 310.5 232 c 128,-1,15
 342 312 342 312 342 383 c 0,16,17
 342 421 342 421 332 423 c 1,18,19
 320 420 320 420 313 420 c 0,20,21
 293 420 293 420 277.5 438 c 128,-1,22
 262 456 262 456 262 474 c 0,23,24
 262 516 262 516 303 516 c 0,25,26
 338 516 338 516 363 483 c 128,-1,27
 388 450 388 450 388 371 c 128,-1,28
 388 292 388 292 348 200.5 c 128,-1,29
 308 109 308 109 243.5 49.5 c 128,-1,30
 179 -10 179 -10 113 -10 c 0,31,32
 93 -10 93 -10 85 -3.5 c 128,-1,33
 77 3 77 3 77 18 c 2,34,-1
 77 428 l 1,0,-1
EndSplineSet
EndChar

StartChar: w
Encoding: 119 119 90
Width: 627
GlyphClass: 2
Flags: W
LayerCount: 2
Fore
SplineSet
307 428 m 1,0,-1
 285 428 l 2,1,2
 262 428 262 428 262 454 c 128,-1,3
 262 480 262 480 285 480 c 2,4,-1
 381 480 l 2,5,6
 391 480 391 480 397.5 472.5 c 128,-1,7
 404 465 404 465 404 454 c 128,-1,8
 404 443 404 443 397.5 435.5 c 128,-1,9
 391 428 391 428 381 428 c 2,10,-1
 361 428 l 1,11,-1
 361 48 l 1,12,13
 410 48 410 48 460 102.5 c 128,-1,14
 510 157 510 157 540 235.5 c 128,-1,15
 570 314 570 314 570 383 c 0,16,17
 570 421 570 421 560 423 c 1,18,19
 548 420 548 420 541 420 c 0,20,21
 521 420 521 420 505.5 438 c 128,-1,22
 490 456 490 456 490 474 c 0,23,24
 490 516 490 516 531 516 c 0,25,26
 566 516 566 516 591.5 483 c 128,-1,27
 617 450 617 450 617 374 c 128,-1,28
 617 298 617 298 580 207.5 c 128,-1,29
 543 117 543 117 477 53.5 c 128,-1,30
 411 -10 411 -10 339 -10 c 0,31,32
 307 -10 307 -10 307 19 c 2,33,-1
 307 135 l 1,34,35
 282 75 282 75 221.5 32.5 c 128,-1,36
 161 -10 161 -10 110 -10 c 0,37,38
 77 -10 77 -10 77 17 c 2,39,-1
 77 428 l 1,40,-1
 48 428 l 2,41,42
 25 428 25 428 25 454 c 128,-1,43
 25 480 25 480 48 480 c 2,44,-1
 150 480 l 2,45,46
 160 480 160 480 168 472 c 128,-1,47
 176 464 176 464 176 454 c 128,-1,48
 176 444 176 444 168 436 c 128,-1,49
 160 428 160 428 150 428 c 2,50,-1
 132 428 l 1,51,-1
 132 48 l 1,52,53
 186 48 186 48 246.5 123.5 c 128,-1,54
 307 199 307 199 307 281 c 2,55,-1
 307 428 l 1,0,-1
EndSplineSet
EndChar

StartChar: x
Encoding: 120 120 91
Width: 463
GlyphClass: 2
Flags: W
LayerCount: 2
Fore
SplineSet
57 428 m 2,0,1
 46 428 46 428 40 435.5 c 128,-1,2
 34 443 34 443 34 453.5 c 128,-1,3
 34 464 34 464 40 472 c 128,-1,4
 46 480 46 480 57 480 c 2,5,-1
 165 480 l 2,6,7
 186 480 186 480 186 454 c 128,-1,8
 186 428 186 428 165 428 c 2,9,-1
 150 428 l 1,10,-1
 232 308 l 1,11,-1
 311 428 l 1,12,-1
 296 428 l 2,13,14
 286 428 286 428 280 435.5 c 128,-1,15
 274 443 274 443 274 453.5 c 128,-1,16
 274 464 274 464 280 472 c 128,-1,17
 286 480 286 480 296 480 c 2,18,-1
 393 480 l 2,19,20
 404 480 404 480 410 472 c 128,-1,21
 416 464 416 464 416 453.5 c 128,-1,22
 416 443 416 443 410 435.5 c 128,-1,23
 404 428 404 428 393 428 c 2,24,-1
 365 428 l 1,25,-1
 258 268 l 1,26,-1
 407 52 l 1,27,-1
 435 52 l 2,28,29
 458 52 458 52 458 26 c 128,-1,30
 458 0 458 0 435 0 c 2,31,-1
 323 0 l 2,32,33
 303 0 303 0 303 26 c 128,-1,34
 303 52 303 52 323 52 c 2,35,-1
 340 52 l 1,36,-1
 224 228 l 1,37,-1
 110 52 l 1,38,-1
 128 52 l 2,39,40
 150 52 150 52 150 26 c 128,-1,41
 150 0 150 0 128 0 c 2,42,-1
 28 0 l 2,43,44
 5 0 5 0 5 26 c 128,-1,45
 5 52 5 52 28 52 c 2,46,-1
 56 52 l 1,47,-1
 196 267 l 1,48,-1
 85 428 l 1,49,-1
 57 428 l 2,0,1
EndSplineSet
EndChar

StartChar: y
Encoding: 121 121 92
Width: 492
GlyphClass: 2
Flags: W
LayerCount: 2
Fore
SplineSet
26 428 m 2,0,1
 18 428 18 428 11.5 436.5 c 128,-1,2
 5 445 5 445 5 454.5 c 128,-1,3
 5 464 5 464 11.5 472 c 128,-1,4
 18 480 18 480 26 480 c 2,5,-1
 145 480 l 2,6,7
 153 480 153 480 159.5 472 c 128,-1,8
 166 464 166 464 166 454.5 c 128,-1,9
 166 445 166 445 159.5 436.5 c 128,-1,10
 153 428 153 428 145 428 c 2,11,-1
 117 427 l 1,12,-1
 251 117 l 1,13,-1
 388 428 l 1,14,-1
 364 428 l 2,15,16
 355 428 355 428 348 436.5 c 128,-1,17
 341 445 341 445 341 454.5 c 128,-1,18
 341 464 341 464 347.5 472 c 128,-1,19
 354 480 354 480 364 480 c 2,20,-1
 464 480 l 2,21,22
 474 480 474 480 480.5 472 c 128,-1,23
 487 464 487 464 487 454.5 c 128,-1,24
 487 445 487 445 480 436.5 c 128,-1,25
 473 428 473 428 464 428 c 2,26,-1
 440 428 l 1,27,-1
 250 2 l 1,28,29
 208 -95 208 -95 164 -116 c 0,30,31
 142 -127 142 -127 109 -127 c 128,-1,32
 76 -127 76 -127 54.5 -106.5 c 128,-1,33
 33 -86 33 -86 33 -67 c 0,34,35
 33 -29 33 -29 66 -29 c 0,36,37
 91 -29 91 -29 105.5 -48.5 c 128,-1,38
 120 -68 120 -68 122 -89 c 1,39,40
 164 -86 164 -86 203 4 c 1,41,-1
 222 51 l 1,42,-1
 61 428 l 1,43,-1
 26 428 l 2,0,1
EndSplineSet
EndChar

StartChar: z
Encoding: 122 122 93
Width: 364
GlyphClass: 2
Flags: W
LayerCount: 2
Fore
SplineSet
41 0 m 2,0,1
 27 0 27 0 18.5 7.5 c 128,-1,2
 10 15 10 15 10 25 c 128,-1,3
 10 35 10 35 16 44 c 2,4,-1
 260 435 l 1,5,-1
 93 435 l 2,6,7
 79 435 79 435 69 429 c 128,-1,8
 59 423 59 423 57 414 c 1,9,10
 80 411 80 411 98.5 397.5 c 128,-1,11
 117 384 117 384 117 366 c 128,-1,12
 117 348 117 348 107.5 340.5 c 128,-1,13
 98 333 98 333 86 333 c 0,14,15
 58 333 58 333 37.5 356 c 128,-1,16
 17 379 17 379 17 409 c 128,-1,17
 17 439 17 439 39.5 459.5 c 128,-1,18
 62 480 62 480 93 480 c 2,19,-1
 297 480 l 2,20,21
 329 480 329 480 329 458 c 0,22,23
 329 448 329 448 322 438 c 2,24,-1
 95 70 l 1,25,26
 129 91 129 91 164 91 c 128,-1,27
 199 91 199 91 241 51 c 0,28,29
 263 29 263 29 276.5 29 c 128,-1,30
 290 29 290 29 292 43 c 1,31,32
 282 51 282 51 274.5 68 c 128,-1,33
 267 85 267 85 267 99 c 128,-1,34
 267 113 267 113 276 126 c 128,-1,35
 285 139 285 139 303.5 139 c 128,-1,36
 322 139 322 139 338 119 c 128,-1,37
 354 99 354 99 354 64.5 c 128,-1,38
 354 30 354 30 327.5 10 c 128,-1,39
 301 -10 301 -10 270.5 -10 c 128,-1,40
 240 -10 240 -10 198 16 c 128,-1,41
 156 42 156 42 127 42 c 128,-1,42
 98 42 98 42 70 15 c 1,43,-1
 53 0 l 1,44,-1
 41 0 l 2,0,1
EndSplineSet
EndChar

StartChar: braceleft
Encoding: 123 123 94
Width: 348
GlyphClass: 2
Flags: W
LayerCount: 2
Fore
SplineSet
276.5 -46 m 128,-1,1
 290 -34 290 -34 306.5 -34 c 128,-1,2
 323 -34 323 -34 335.5 -43.5 c 128,-1,3
 348 -53 348 -53 348 -71.5 c 128,-1,4
 348 -90 348 -90 329.5 -103.5 c 128,-1,5
 311 -117 311 -117 277 -117 c 0,6,7
 223 -117 223 -117 182 -68 c 0,8,9
 102 28 102 28 102 234 c 0,10,11
 102 260 102 260 79 284.5 c 128,-1,12
 56 309 56 309 31 309 c 0,13,14
 25 309 25 309 25 315.5 c 128,-1,15
 25 322 25 322 31 322 c 0,16,17
 56 322 56 322 79 346.5 c 128,-1,18
 102 371 102 371 102 398 c 0,19,20
 102 548 102 548 150 648.5 c 128,-1,21
 198 749 198 749 277 749 c 0,22,23
 311 749 311 749 329.5 736 c 128,-1,24
 348 723 348 723 348 703 c 128,-1,25
 348 683 348 683 336 674 c 128,-1,26
 324 665 324 665 307 665 c 128,-1,27
 290 665 290 665 277 677.5 c 128,-1,28
 264 690 264 690 262 707 c 1,29,30
 211 706 211 706 189.5 644 c 128,-1,31
 168 582 168 582 168 438 c 0,32,33
 168 393 168 393 141.5 357.5 c 128,-1,34
 115 322 115 322 78 316 c 1,35,36
 115 311 115 311 141.5 275 c 128,-1,37
 168 239 168 239 168 193 c 0,38,39
 168 51 168 51 190 -11.5 c 128,-1,40
 212 -74 212 -74 262 -75 c 1,41,0
 263 -58 263 -58 276.5 -46 c 128,-1,1
EndSplineSet
EndChar

StartChar: bar
Encoding: 124 124 95
Width: 194
GlyphClass: 2
Flags: W
LayerCount: 2
Fore
SplineSet
97 -124 m 128,-1,1
 86 -124 86 -124 78 -117 c 128,-1,2
 70 -110 70 -110 70 -100 c 2,3,-1
 70 726 l 2,4,5
 70 736 70 736 78 743 c 128,-1,6
 86 750 86 750 97 750 c 128,-1,7
 108 750 108 750 116 743 c 128,-1,8
 124 736 124 736 124 726 c 2,9,-1
 124 -100 l 2,10,11
 124 -110 124 -110 116 -117 c 128,-1,0
 108 -124 108 -124 97 -124 c 128,-1,1
EndSplineSet
EndChar

StartChar: braceright
Encoding: 125 125 96
Width: 348
GlyphClass: 2
Flags: W
LayerCount: 2
Fore
SplineSet
12.5 -43.5 m 128,-1,1
 25 -34 25 -34 41.5 -34 c 128,-1,2
 58 -34 58 -34 71.5 -46 c 128,-1,3
 85 -58 85 -58 86 -75 c 1,4,5
 136 -74 136 -74 158 -11.5 c 128,-1,6
 180 51 180 51 180 193 c 0,7,8
 180 239 180 239 206.5 275 c 128,-1,9
 233 311 233 311 270 316 c 1,10,11
 233 322 233 322 206.5 357.5 c 128,-1,12
 180 393 180 393 180 438 c 0,13,14
 180 582 180 582 158.5 644 c 128,-1,15
 137 706 137 706 86 707 c 1,16,17
 84 690 84 690 71 677.5 c 128,-1,18
 58 665 58 665 41 665 c 128,-1,19
 24 665 24 665 12 674 c 128,-1,20
 0 683 0 683 0 703 c 128,-1,21
 0 723 0 723 18.5 736 c 128,-1,22
 37 749 37 749 71 749 c 0,23,24
 150 749 150 749 198 648.5 c 128,-1,25
 246 548 246 548 246 398 c 0,26,27
 246 371 246 371 269 346.5 c 128,-1,28
 292 322 292 322 317 322 c 0,29,30
 323 322 323 322 323 315.5 c 128,-1,31
 323 309 323 309 317 309 c 0,32,33
 292 309 292 309 269 284.5 c 128,-1,34
 246 260 246 260 246 234 c 0,35,36
 246 28 246 28 166 -68 c 0,37,38
 125 -117 125 -117 71 -117 c 0,39,40
 37 -117 37 -117 18.5 -103.5 c 128,-1,41
 0 -90 0 -90 0 -71.5 c 128,-1,0
 0 -53 0 -53 12.5 -43.5 c 128,-1,1
EndSplineSet
EndChar

StartChar: asciitilde
Encoding: 126 126 97
Width: 434
GlyphClass: 2
Flags: W
LayerCount: 2
Fore
SplineSet
15 236 m 0,0,1
 15 277 15 277 49 296.5 c 128,-1,2
 83 316 83 316 119 316 c 128,-1,3
 155 316 155 316 185 303.5 c 128,-1,4
 215 291 215 291 228 279.5 c 128,-1,5
 241 268 241 268 271 237.5 c 128,-1,6
 301 207 301 207 319 207 c 128,-1,7
 337 207 337 207 351 216.5 c 128,-1,8
 365 226 365 226 366 243 c 1,9,10
 347 254 347 254 347 281 c 128,-1,11
 347 308 347 308 373 308 c 0,12,13
 393 308 393 308 406 293 c 128,-1,14
 419 278 419 278 418.5 242.5 c 128,-1,15
 418 207 418 207 384.5 187 c 128,-1,16
 351 167 351 167 316 167 c 128,-1,17
 281 167 281 167 251 180 c 128,-1,18
 221 193 221 193 207.5 204.5 c 128,-1,19
 194 216 194 216 164 246 c 128,-1,20
 134 276 134 276 115.5 276 c 128,-1,21
 97 276 97 276 82.5 266 c 128,-1,22
 68 256 68 256 67 239 c 1,23,24
 88 228 88 228 88 201.5 c 128,-1,25
 88 175 88 175 62 175 c 0,26,27
 43 175 43 175 29 192 c 128,-1,28
 15 209 15 209 15 236 c 0,0,1
EndSplineSet
EndChar

StartChar: exclamdown
Encoding: 161 161 98
Width: 197
GlyphClass: 2
Flags: W
LayerCount: 2
Fore
SplineSet
116 491 m 1,0,-1
 139 34 l 1,1,-1
 139 29 l 2,2,3
 139 11 139 11 127 2 c 128,-1,4
 115 -7 115 -7 97 -7 c 128,-1,5
 79 -7 79 -7 67 3.5 c 128,-1,6
 55 14 55 14 55 29 c 2,7,-1
 55 34 l 1,8,-1
 79 491 l 1,9,10
 81 509 81 509 97.5 509 c 128,-1,11
 114 509 114 509 116 491 c 1,0,-1
132.5 570 m 128,-1,13
 118 557 118 557 98 557 c 128,-1,14
 78 557 78 557 64 570.5 c 128,-1,15
 50 584 50 584 50 603.5 c 128,-1,16
 50 623 50 623 64 636 c 128,-1,17
 78 649 78 649 98 649 c 128,-1,18
 118 649 118 649 132.5 636 c 128,-1,19
 147 623 147 623 147 603 c 128,-1,12
 147 583 147 583 132.5 570 c 128,-1,13
EndSplineSet
EndChar

StartChar: cent
Encoding: 162 162 99
Width: 392
GlyphClass: 2
Flags: W
LayerCount: 2
Fore
SplineSet
230.5 -97.5 m 128,-1,1
 224 -103 224 -103 215.5 -103 c 128,-1,2
 207 -103 207 -103 200.5 -97.5 c 128,-1,3
 194 -92 194 -92 194 -84 c 2,4,-1
 194 -10 l 1,5,6
 116 2 116 2 65.5 72.5 c 128,-1,7
 15 143 15 143 15 238.5 c 128,-1,8
 15 334 15 334 65.5 402 c 128,-1,9
 116 470 116 470 194 483 c 1,10,-1
 194 539 l 2,11,12
 194 547 194 547 200.5 552.5 c 128,-1,13
 207 558 207 558 215.5 558 c 128,-1,14
 224 558 224 558 230.5 552.5 c 128,-1,15
 237 547 237 547 237 539 c 2,16,-1
 237 482 l 1,17,18
 288 482 288 482 328 460.5 c 128,-1,19
 368 439 368 439 368 400 c 128,-1,20
 368 361 368 361 332 361 c 0,21,22
 313 361 313 361 298 378.5 c 128,-1,23
 283 396 283 396 283 413 c 128,-1,24
 283 430 283 430 284 435 c 1,25,26
 273 443 273 443 237 443 c 1,27,-1
 237 35 l 1,28,29
 299 39 299 39 328 112 c 0,30,31
 337 135 337 135 359 135 c 0,32,33
 387 135 387 135 387 109 c 0,34,35
 387 75 387 75 346.5 34.5 c 128,-1,36
 306 -6 306 -6 237 -10 c 1,37,-1
 237 -84 l 2,38,0
 237 -92 237 -92 230.5 -97.5 c 128,-1,1
72 242 m 128,-1,40
 72 169 72 169 108.5 108 c 128,-1,41
 145 47 145 47 194 37 c 1,42,-1
 194 440 l 1,43,44
 143 426 143 426 107.5 370.5 c 128,-1,39
 72 315 72 315 72 242 c 128,-1,40
EndSplineSet
EndChar

StartChar: sterling
Encoding: 163 163 100
Width: 385
GlyphClass: 2
Flags: W
LayerCount: 2
Fore
SplineSet
261 264 m 2,0,-1
 189 264 l 1,1,2
 203 217 203 217 203 174.5 c 128,-1,3
 203 132 203 132 183 92 c 1,4,5
 206 85 206 85 239 56 c 128,-1,6
 272 27 272 27 287 27 c 0,7,8
 318 27 318 27 318 59 c 1,9,10
 306 59 306 59 296 71 c 128,-1,11
 286 83 286 83 286 97 c 128,-1,12
 286 111 286 111 295 123.5 c 128,-1,13
 304 136 304 136 323 136 c 128,-1,14
 342 136 342 136 356 117.5 c 128,-1,15
 370 99 370 99 370 70.5 c 128,-1,16
 370 42 370 42 347 17 c 128,-1,17
 324 -8 324 -8 293 -8 c 128,-1,18
 262 -8 262 -8 239 0 c 128,-1,19
 216 8 216 8 203.5 16.5 c 128,-1,20
 191 25 191 25 174.5 38.5 c 128,-1,21
 158 52 158 52 155 54 c 1,22,23
 112 0 112 0 75 0 c 0,24,25
 52 0 52 0 33.5 14 c 128,-1,26
 15 28 15 28 15 53 c 128,-1,27
 15 78 15 78 39 97 c 128,-1,28
 63 116 63 116 93 116 c 128,-1,29
 123 116 123 116 148 107 c 1,30,31
 158 130 158 130 158 155 c 0,32,33
 158 217 158 217 131 264 c 1,34,-1
 39 264 l 2,35,36
 18 264 18 264 18 287 c 128,-1,37
 18 310 18 310 39 310 c 2,38,-1
 107 310 l 1,39,40
 88 345 88 345 77 366.5 c 128,-1,41
 66 388 66 388 55.5 425.5 c 128,-1,42
 45 463 45 463 45 499 c 0,43,44
 45 567 45 567 90.5 609.5 c 128,-1,45
 136 652 136 652 197.5 652 c 128,-1,46
 259 652 259 652 296.5 619 c 128,-1,47
 334 586 334 586 334 537 c 0,48,49
 334 512 334 512 321 492 c 128,-1,50
 308 472 308 472 289 472 c 128,-1,51
 270 472 270 472 259.5 485.5 c 128,-1,52
 249 499 249 499 249 518.5 c 128,-1,53
 249 538 249 538 259 553.5 c 128,-1,54
 269 569 269 569 283 574 c 1,55,56
 275 589 275 589 257 601.5 c 128,-1,57
 239 614 239 614 218 614 c 0,58,59
 183 614 183 614 151.5 581 c 128,-1,60
 120 548 120 548 120 496 c 0,61,62
 120 462 120 462 132 427 c 128,-1,63
 144 392 144 392 157 358.5 c 128,-1,64
 170 325 170 325 175 310 c 1,65,-1
 261 310 l 2,66,67
 271 310 271 310 277 303 c 128,-1,68
 283 296 283 296 283 287 c 0,69,70
 283 264 283 264 261 264 c 2,0,-1
52 48 m 0,71,72
 52 31 52 31 72 31 c 128,-1,73
 92 31 92 31 109 46.5 c 128,-1,74
 126 62 126 62 126 68 c 1,75,76
 112 77 112 77 94 77 c 128,-1,77
 76 77 76 77 64 69.5 c 128,-1,78
 52 62 52 62 52 48 c 0,71,72
EndSplineSet
EndChar

StartChar: yen
Encoding: 165 165 101
Width: 556
GlyphClass: 2
Flags: W
LayerCount: 2
Fore
SplineSet
307 50 m 1,0,-1
 339 50 l 2,1,2
 361 50 361 50 361 25 c 128,-1,3
 361 0 361 0 339 0 c 2,4,-1
 221 0 l 2,5,6
 199 0 199 0 199 25 c 128,-1,7
 199 50 199 50 221 50 c 2,8,-1
 253 50 l 1,9,-1
 253 143 l 1,10,-1
 198 143 l 2,11,12
 177 143 177 143 177 166.5 c 128,-1,13
 177 190 177 190 198 190 c 2,14,-1
 253 190 l 1,15,-1
 253 239 l 1,16,-1
 198 239 l 2,17,18
 177 239 177 239 177 262.5 c 128,-1,19
 177 286 177 286 198 286 c 2,20,-1
 227 286 l 1,21,-1
 60 588 l 1,22,-1
 25 588 l 2,23,24
 16 588 16 588 10.5 595.5 c 128,-1,25
 5 603 5 603 5 613 c 128,-1,26
 5 623 5 623 10.5 630.5 c 128,-1,27
 16 638 16 638 25 638 c 2,28,-1
 152 638 l 2,29,30
 161 638 161 638 166.5 630.5 c 128,-1,31
 172 623 172 623 172 613 c 128,-1,32
 172 603 172 603 166.5 595.5 c 128,-1,33
 161 588 161 588 152 588 c 2,34,-1
 120 588 l 1,35,-1
 283 286 l 1,36,-1
 442 588 l 1,37,-1
 415 588 l 2,38,39
 393 588 393 588 393 613 c 128,-1,40
 393 638 393 638 415 638 c 2,41,-1
 530 638 l 2,42,43
 539 638 539 638 545 631 c 128,-1,44
 551 624 551 624 551 613.5 c 128,-1,45
 551 603 551 603 545 595.5 c 128,-1,46
 539 588 539 588 530 588 c 2,47,-1
 497 588 l 1,48,-1
 332 286 l 1,49,-1
 361 286 l 2,50,51
 371 286 371 286 377 279 c 128,-1,52
 383 272 383 272 383 263 c 0,53,54
 383 239 383 239 361 239 c 2,55,-1
 307 239 l 1,56,-1
 307 190 l 1,57,-1
 361 190 l 2,58,59
 371 190 371 190 377 183 c 128,-1,60
 383 176 383 176 383 167 c 0,61,62
 383 143 383 143 361 143 c 2,63,-1
 307 143 l 1,64,-1
 307 50 l 1,0,-1
EndSplineSet
EndChar

StartChar: brokenbar
Encoding: 166 166 102
Width: 194
GlyphClass: 2
Flags: W
LayerCount: 2
Fore
SplineSet
97 391 m 128,-1,1
 86 391 86 391 78 398 c 128,-1,2
 70 405 70 405 70 415 c 2,3,-1
 70 726 l 2,4,5
 70 736 70 736 78 743 c 128,-1,6
 86 750 86 750 97 750 c 128,-1,7
 108 750 108 750 116 743 c 128,-1,8
 124 736 124 736 124 726 c 2,9,-1
 124 415 l 2,10,11
 124 405 124 405 116 398 c 128,-1,0
 108 391 108 391 97 391 c 128,-1,1
97 -124 m 128,-1,13
 86 -124 86 -124 78 -117 c 128,-1,14
 70 -110 70 -110 70 -100 c 2,15,-1
 70 211 l 2,16,17
 70 221 70 221 78 228 c 128,-1,18
 86 235 86 235 97 235 c 128,-1,19
 108 235 108 235 116 228 c 128,-1,20
 124 221 124 221 124 211 c 2,21,-1
 124 -100 l 2,22,23
 124 -110 124 -110 116 -117 c 128,-1,12
 108 -124 108 -124 97 -124 c 128,-1,13
EndSplineSet
EndChar

StartChar: section
Encoding: 167 167 103
Width: 342
GlyphClass: 2
Flags: W
LayerCount: 2
Fore
SplineSet
305.5 366.5 m 128,-1,1
 327 335 327 335 327 298.5 c 128,-1,2
 327 262 327 262 301.5 231 c 128,-1,3
 276 200 276 200 225 188 c 1,4,5
 285 143 285 143 285 93.5 c 128,-1,6
 285 44 285 44 249 16.5 c 128,-1,7
 213 -11 213 -11 167.5 -11 c 128,-1,8
 122 -11 122 -11 85.5 13 c 128,-1,9
 49 37 49 37 49 75 c 0,10,11
 49 92 49 92 57.5 103.5 c 128,-1,12
 66 115 66 115 82.5 115 c 128,-1,13
 99 115 99 115 114.5 95.5 c 128,-1,14
 130 76 130 76 130 59.5 c 128,-1,15
 130 43 130 43 125 33 c 1,16,17
 140 20 140 20 167 20 c 128,-1,18
 194 20 194 20 211.5 36 c 128,-1,19
 229 52 229 52 229 74 c 128,-1,20
 229 96 229 96 207 120 c 128,-1,21
 185 144 185 144 153.5 166.5 c 128,-1,22
 122 189 122 189 90.5 213 c 128,-1,23
 59 237 59 237 37 270.5 c 128,-1,24
 15 304 15 304 15 341 c 128,-1,25
 15 378 15 378 39 407 c 128,-1,26
 63 436 63 436 110 449 c 1,27,28
 91 466 91 466 75.5 494 c 128,-1,29
 60 522 60 522 60 554.5 c 128,-1,30
 60 587 60 587 91.5 616 c 128,-1,31
 123 645 123 645 166 645 c 128,-1,32
 209 645 209 645 247 621.5 c 128,-1,33
 285 598 285 598 285 562 c 0,34,35
 285 546 285 546 277 534.5 c 128,-1,36
 269 523 269 523 252.5 523 c 128,-1,37
 236 523 236 523 221.5 541.5 c 128,-1,38
 207 560 207 560 207 576.5 c 128,-1,39
 207 593 207 593 212 603 c 1,40,41
 199 614 199 614 170 614 c 128,-1,42
 141 614 141 614 128.5 597 c 128,-1,43
 116 580 116 580 116 558 c 128,-1,44
 116 536 116 536 137.5 512 c 128,-1,45
 159 488 159 488 190 466.5 c 128,-1,46
 221 445 221 445 252.5 421.5 c 128,-1,0
 284 398 284 398 305.5 366.5 c 128,-1,1
84.5 395 m 128,-1,48
 65 375 65 375 65 353 c 128,-1,49
 65 331 65 331 71.5 316.5 c 128,-1,50
 78 302 78 302 92.5 288.5 c 128,-1,51
 107 275 107 275 118 266.5 c 128,-1,52
 129 258 129 258 151.5 243.5 c 128,-1,53
 174 229 174 229 184 222 c 1,54,55
 230 222 230 222 254 240.5 c 128,-1,56
 278 259 278 259 278 284 c 128,-1,57
 278 309 278 309 264 329 c 128,-1,58
 250 349 250 349 233.5 360.5 c 128,-1,59
 217 372 217 372 189 389.5 c 128,-1,60
 161 407 161 407 148 416 c 1,61,47
 104 415 104 415 84.5 395 c 128,-1,48
EndSplineSet
EndChar

StartChar: dieresis
Encoding: 168 168 104
Width: 277
GlyphClass: 2
Flags: W
LayerCount: 2
Fore
SplineSet
73.5 595.5 m 128,-1,1
 86 584 86 584 86 566.5 c 128,-1,2
 86 549 86 549 73 537 c 128,-1,3
 60 525 60 525 42 525 c 128,-1,4
 24 525 24 525 12 537 c 128,-1,5
 0 549 0 549 0 566.5 c 128,-1,6
 0 584 0 584 12 595.5 c 128,-1,7
 24 607 24 607 42.5 607 c 128,-1,0
 61 607 61 607 73.5 595.5 c 128,-1,1
264.5 595.5 m 128,-1,9
 277 584 277 584 277 566.5 c 128,-1,10
 277 549 277 549 264 537 c 128,-1,11
 251 525 251 525 233 525 c 128,-1,12
 215 525 215 525 203 537 c 128,-1,13
 191 549 191 549 191 566.5 c 128,-1,14
 191 584 191 584 203 595.5 c 128,-1,15
 215 607 215 607 233.5 607 c 128,-1,8
 252 607 252 607 264.5 595.5 c 128,-1,9
EndSplineSet
EndChar

StartChar: copyright
Encoding: 169 169 105
Width: 657
GlyphClass: 2
Flags: W
LayerCount: 2
Fore
SplineSet
463 227 m 0,0,1
 491 227 491 227 491 203 c 0,2,3
 491 170 491 170 448.5 131 c 128,-1,4
 406 92 406 92 337 92 c 0,5,6
 250 92 250 92 198.5 157.5 c 128,-1,7
 147 223 147 223 147 323 c 128,-1,8
 147 423 147 423 198 488.5 c 128,-1,9
 249 554 249 554 326 554 c 0,10,11
 370 554 370 554 405 533 c 128,-1,12
 440 512 440 512 440 477 c 0,13,14
 440 459 440 459 430 448.5 c 128,-1,15
 420 438 420 438 401.5 438 c 128,-1,16
 383 438 383 438 369.5 454.5 c 128,-1,17
 356 471 356 471 356 486.5 c 128,-1,18
 356 502 356 502 357 507 c 1,19,20
 349 514 349 514 328 514 c 0,21,22
 274 514 274 514 235.5 461.5 c 128,-1,23
 197 409 197 409 197 327 c 128,-1,24
 197 245 197 245 238 189 c 128,-1,25
 279 133 279 133 339 133 c 0,26,27
 409 133 409 133 437 205 c 1,28,29
 444 227 444 227 463 227 c 0,0,1
144.5 111 m 128,-1,31
 218 29 218 29 333 29 c 128,-1,32
 448 29 448 29 517.5 117 c 128,-1,33
 587 205 587 205 587 331.5 c 128,-1,34
 587 458 587 458 515.5 536 c 128,-1,35
 444 614 444 614 329.5 614 c 128,-1,36
 215 614 215 614 143 533.5 c 128,-1,37
 71 453 71 453 71 323 c 128,-1,30
 71 193 71 193 144.5 111 c 128,-1,31
102.5 562.5 m 128,-1,39
 185 653 185 653 329.5 653 c 128,-1,40
 474 653 474 653 555.5 564.5 c 128,-1,41
 637 476 637 476 637 331.5 c 128,-1,42
 637 187 637 187 555.5 88 c 128,-1,43
 474 -11 474 -11 331 -11 c 128,-1,44
 188 -11 188 -11 104 85 c 128,-1,45
 20 181 20 181 20 326.5 c 128,-1,38
 20 472 20 472 102.5 562.5 c 128,-1,39
EndSplineSet
EndChar

StartChar: guillemotleft
Encoding: 171 171 106
Width: 365
GlyphClass: 2
Flags: W
LayerCount: 2
Fore
SplineSet
156 396 m 2,0,1
 165 407 165 407 175 407 c 128,-1,2
 185 407 185 407 193.5 399.5 c 128,-1,3
 202 392 202 392 202 382 c 128,-1,4
 202 372 202 372 194 361 c 2,5,-1
 91 239 l 1,6,-1
 194 117 l 2,7,8
 202 106 202 106 202 96 c 128,-1,9
 202 86 202 86 193.5 78.5 c 128,-1,10
 185 71 185 71 175 71 c 128,-1,11
 165 71 165 71 156 82 c 2,12,-1
 25 239 l 1,13,-1
 156 396 l 2,0,1
351 117 m 2,14,15
 360 105 360 105 360 96 c 128,-1,16
 360 87 360 87 351.5 79.5 c 128,-1,17
 343 72 343 72 332.5 72 c 128,-1,18
 322 72 322 72 313 82 c 2,19,-1
 182 239 l 1,20,-1
 313 396 l 2,21,22
 321 406 321 406 333 406 c 128,-1,23
 345 406 345 406 352 400 c 128,-1,24
 359 394 359 394 359 383 c 128,-1,25
 359 372 359 372 351 361 c 2,26,-1
 248 239 l 1,27,-1
 351 117 l 2,14,15
EndSplineSet
EndChar

StartChar: registered
Encoding: 174 174 107
Width: 667
GlyphClass: 2
Flags: W
LayerCount: 2
Fore
SplineSet
214 491 m 1,0,-1
 195 491 l 2,1,2
 174 491 174 491 174 514 c 128,-1,3
 174 537 174 537 195 537 c 2,4,-1
 299 537 l 2,5,6
 495 537 495 537 495 398 c 0,7,8
 495 344 495 344 460.5 311.5 c 128,-1,9
 426 279 426 279 364 271 c 1,10,11
 388 265 388 265 399.5 245 c 128,-1,12
 411 225 411 225 412 204 c 0,13,14
 413 148 413 148 437 136 c 1,15,16
 439 154 439 154 454 171.5 c 128,-1,17
 469 189 469 189 483 189 c 0,18,19
 504 189 504 189 504 166.5 c 128,-1,20
 504 144 504 144 484 126 c 128,-1,21
 464 108 464 108 435.5 108 c 128,-1,22
 407 108 407 108 391.5 131 c 128,-1,23
 376 154 376 154 371.5 181 c 128,-1,24
 367 208 367 208 344.5 231 c 128,-1,25
 322 254 322 254 279 254 c 2,26,-1
 258 254 l 1,27,-1
 258 157 l 1,28,-1
 274 157 l 2,29,30
 297 157 297 157 297 132 c 0,31,32
 297 112 297 112 274 112 c 2,33,-1
 195 112 l 2,34,35
 173 112 173 112 173 134.5 c 128,-1,36
 173 157 173 157 195 157 c 2,37,-1
 214 157 l 1,38,-1
 214 491 l 1,0,-1
258 494 m 1,39,-1
 258 300 l 1,40,-1
 278 300 l 2,41,42
 451 300 451 300 451 398 c 0,43,44
 451 447 451 447 410 470.5 c 128,-1,45
 369 494 369 494 303 494 c 2,46,-1
 258 494 l 1,39,-1
149 112 m 128,-1,48
 222 31 222 31 337.5 31 c 128,-1,49
 453 31 453 31 522.5 119 c 128,-1,50
 592 207 592 207 592 333.5 c 128,-1,51
 592 460 592 460 520.5 538 c 128,-1,52
 449 616 449 616 334.5 616 c 128,-1,53
 220 616 220 616 148 534.5 c 128,-1,54
 76 453 76 453 76 323 c 128,-1,47
 76 193 76 193 149 112 c 128,-1,48
107.5 564.5 m 128,-1,56
 190 655 190 655 334.5 655 c 128,-1,57
 479 655 479 655 560.5 566.5 c 128,-1,58
 642 478 642 478 642 333.5 c 128,-1,59
 642 189 642 189 560.5 90 c 128,-1,60
 479 -9 479 -9 336 -9 c 128,-1,61
 193 -9 193 -9 109 87 c 128,-1,62
 25 183 25 183 25 328.5 c 128,-1,55
 25 474 25 474 107.5 564.5 c 128,-1,56
EndSplineSet
EndChar

StartChar: macron
Encoding: 175 175 108
Width: 219
GlyphClass: 2
Flags: W
LayerCount: 2
Fore
SplineSet
196 541 m 2,0,-1
 22 541 l 2,1,2
 0 541 0 541 0 565.5 c 128,-1,3
 0 590 0 590 22 590 c 2,4,-1
 196 590 l 2,5,6
 219 590 219 590 219 565.5 c 128,-1,7
 219 541 219 541 196 541 c 2,0,-1
EndSplineSet
EndChar

StartChar: degree
Encoding: 176 176 109
Width: 291
GlyphClass: 2
Flags: W
LayerCount: 2
Fore
SplineSet
243 702 m 128,-1,1
 276 657 276 657 276 588.5 c 128,-1,2
 276 520 276 520 243.5 476 c 128,-1,3
 211 432 211 432 146 432 c 128,-1,4
 81 432 81 432 48 476.5 c 128,-1,5
 15 521 15 521 15 588 c 128,-1,6
 15 655 15 655 48 701 c 128,-1,7
 81 747 81 747 145.5 747 c 128,-1,0
 210 747 210 747 243 702 c 128,-1,1
68 589 m 0,8,9
 68 535 68 535 88 502.5 c 128,-1,10
 108 470 108 470 145 470 c 0,11,12
 222 470 222 470 222 589 c 0,13,14
 222 645 222 645 202 677.5 c 128,-1,15
 182 710 182 710 145 710 c 0,16,17
 68 710 68 710 68 589 c 0,8,9
EndSplineSet
EndChar

StartChar: plusminus
Encoding: 177 177 110
Width: 272
GlyphClass: 2
Flags: W
LayerCount: 2
Fore
SplineSet
107 216 m 2,0,-1
 107 276 l 1,1,-1
 49 276 l 2,2,3
 25 276 25 276 25 302.5 c 128,-1,4
 25 329 25 329 49 329 c 2,5,-1
 107 329 l 1,6,-1
 107 390 l 2,7,8
 107 401 107 401 115.5 408.5 c 128,-1,9
 124 416 124 416 135.5 416 c 128,-1,10
 147 416 147 416 155.5 408.5 c 128,-1,11
 164 401 164 401 164 390 c 2,12,-1
 164 329 l 1,13,-1
 222 329 l 2,14,15
 234 329 234 329 240.5 321.5 c 128,-1,16
 247 314 247 314 247 303 c 0,17,18
 247 276 247 276 222 276 c 2,19,-1
 164 276 l 1,20,-1
 164 216 l 2,21,22
 164 204 164 204 156 196.5 c 128,-1,23
 148 189 148 189 136 189 c 128,-1,24
 124 189 124 189 115.5 196.5 c 128,-1,25
 107 204 107 204 107 216 c 2,0,-1
222 99 m 2,26,-1
 49 99 l 2,27,28
 25 99 25 99 25 125.5 c 128,-1,29
 25 152 25 152 49 152 c 2,30,-1
 222 152 l 2,31,32
 234 152 234 152 240.5 144.5 c 128,-1,33
 247 137 247 137 247 126 c 0,34,35
 247 99 247 99 222 99 c 2,26,-1
EndSplineSet
EndChar

StartChar: acute
Encoding: 180 180 111
Width: 131
GlyphClass: 2
Flags: W
LayerCount: 2
Fore
SplineSet
13 510 m 0,0,1
 0 510 0 510 0 523 c 0,2,3
 0 525 0 525 2 529 c 2,4,-1
 65 637 l 2,5,6
 77 659 77 659 94.5 659 c 128,-1,7
 112 659 112 659 121.5 650.5 c 128,-1,8
 131 642 131 642 131 628 c 128,-1,9
 131 614 131 614 115 599 c 2,10,-1
 23 514 l 2,11,12
 19 510 19 510 13 510 c 0,0,1
EndSplineSet
EndChar

StartChar: periodcentered
Encoding: 183 183 112
Width: 150
GlyphClass: 2
Flags: W
LayerCount: 2
Fore
SplineSet
39 275.5 m 128,-1,1
 53 289 53 289 74.5 289 c 128,-1,2
 96 289 96 289 110.5 275.5 c 128,-1,3
 125 262 125 262 125 240.5 c 128,-1,4
 125 219 125 219 110.5 206 c 128,-1,5
 96 193 96 193 74.5 193 c 128,-1,6
 53 193 53 193 39 206 c 128,-1,7
 25 219 25 219 25 240.5 c 128,-1,0
 25 262 25 262 39 275.5 c 128,-1,1
EndSplineSet
EndChar

StartChar: cedilla
Encoding: 184 184 113
Width: 141
GlyphClass: 2
Flags: W
LayerCount: 2
Fore
SplineSet
18 -70 m 2,0,-1
 18 2 l 1,1,-1
 64 2 l 1,2,-1
 64 -42 l 1,3,4
 95 -43 95 -43 118 -63.5 c 128,-1,5
 141 -84 141 -84 141 -119 c 128,-1,6
 141 -154 141 -154 118.5 -177 c 128,-1,7
 96 -200 96 -200 66 -200 c 128,-1,8
 36 -200 36 -200 18 -185.5 c 128,-1,9
 0 -171 0 -171 0 -150 c 0,10,11
 0 -117 0 -117 28 -117 c 1,12,13
 52 -119 52 -119 52 -150 c 0,14,15
 52 -157 52 -157 46 -166 c 1,16,17
 51 -170 51 -170 62 -170 c 0,18,19
 101 -170 101 -170 101 -123 c 0,20,21
 101 -100 101 -100 89.5 -89.5 c 128,-1,22
 78 -79 78 -79 65 -78 c 1,23,24
 58 -92 58 -92 42 -92 c 0,25,26
 18 -92 18 -92 18 -70 c 2,0,-1
EndSplineSet
EndChar

StartChar: guillemotright
Encoding: 187 187 114
Width: 365
GlyphClass: 2
Flags: W
LayerCount: 2
Fore
SplineSet
190 72 m 128,-1,1
 180 72 180 72 171.5 79.5 c 128,-1,2
 163 87 163 87 163 97 c 128,-1,3
 163 107 163 107 171 118 c 2,4,-1
 274 240 l 1,5,-1
 171 362 l 2,6,7
 163 373 163 373 163 383 c 128,-1,8
 163 393 163 393 171.5 400.5 c 128,-1,9
 180 408 180 408 190 408 c 128,-1,10
 200 408 200 408 209 397 c 2,11,-1
 340 240 l 1,12,-1
 209 83 l 2,13,0
 200 72 200 72 190 72 c 128,-1,1
6 384 m 128,-1,15
 6 395 6 395 13 401 c 128,-1,16
 20 407 20 407 32 407 c 128,-1,17
 44 407 44 407 52 397 c 2,18,-1
 183 240 l 1,19,-1
 52 83 l 2,20,21
 43 73 43 73 32.5 73 c 128,-1,22
 22 73 22 73 13.5 80.5 c 128,-1,23
 5 88 5 88 5 97 c 128,-1,24
 5 106 5 106 14 118 c 2,25,-1
 117 240 l 1,26,-1
 14 362 l 2,27,14
 6 373 6 373 6 384 c 128,-1,15
EndSplineSet
EndChar

StartChar: questiondown
Encoding: 191 191 115
Width: 407
GlyphClass: 2
Flags: W
LayerCount: 2
Fore
SplineSet
392 144 m 0,0,1
 392 84 392 84 339 38 c 128,-1,2
 286 -8 286 -8 208 -8 c 128,-1,3
 130 -8 130 -8 72.5 38 c 128,-1,4
 15 84 15 84 15 168 c 128,-1,5
 15 252 15 252 112 345 c 2,6,-1
 132 364 l 2,7,8
 208 435 208 435 208 487 c 0,9,10
 208 510 208 510 229 510 c 0,11,12
 238 510 238 510 244.5 504 c 128,-1,13
 251 498 251 498 251 487 c 0,14,15
 251 437 251 437 223 387.5 c 128,-1,16
 195 338 195 338 161.5 305 c 128,-1,17
 128 272 128 272 100 231 c 128,-1,18
 72 190 72 190 72 146 c 128,-1,19
 72 102 72 102 106.5 66.5 c 128,-1,20
 141 31 141 31 207 31 c 0,21,22
 251 31 251 31 286.5 52 c 128,-1,23
 322 73 322 73 330 119 c 1,24,25
 302 137 302 137 302 177 c 0,26,27
 302 196 302 196 312 208.5 c 128,-1,28
 322 221 322 221 339.5 221 c 128,-1,29
 357 221 357 221 374.5 199.5 c 128,-1,30
 392 178 392 178 392 144 c 0,0,1
263 568.5 m 128,-1,32
 249 555 249 555 227.5 555 c 128,-1,33
 206 555 206 555 191.5 568.5 c 128,-1,34
 177 582 177 582 177 603.5 c 128,-1,35
 177 625 177 625 191.5 638 c 128,-1,36
 206 651 206 651 227.5 651 c 128,-1,37
 249 651 249 651 263 638 c 128,-1,38
 277 625 277 625 277 603.5 c 128,-1,31
 277 582 277 582 263 568.5 c 128,-1,32
EndSplineSet
EndChar

StartChar: Agrave
Encoding: 192 192 116
Width: 555
GlyphClass: 2
Flags: W
LayerCount: 2
Fore
SplineSet
522 52 m 2,0,1
 545 52 545 52 545 26 c 128,-1,2
 545 0 545 0 522 0 c 2,3,-1
 412 0 l 2,4,5
 388 0 388 0 388 26 c 128,-1,6
 388 52 388 52 412 52 c 2,7,-1
 435 52 l 1,8,-1
 406 143 l 1,9,-1
 139 143 l 1,10,-1
 111 52 l 1,11,-1
 135 52 l 2,12,13
 159 52 159 52 159 26 c 128,-1,14
 159 0 159 0 135 0 c 2,15,-1
 34 0 l 2,16,17
 10 0 10 0 10 26 c 128,-1,18
 10 52 10 52 34 52 c 2,19,-1
 59 52 l 1,20,-1
 225 585 l 1,21,-1
 185 585 l 2,22,23
 162 585 162 585 162 611.5 c 128,-1,24
 162 638 162 638 185 638 c 2,25,-1
 288 638 l 2,26,27
 310 638 310 638 315 624 c 2,28,-1
 497 52 l 1,29,-1
 522 52 l 2,0,1
152 191 m 1,30,-1
 394 191 l 1,31,-1
 272 581 l 1,32,-1
 152 191 l 1,30,-1
297 668 m 0,33,34
 291 668 291 668 287 672 c 2,35,-1
 195 757 l 2,36,37
 179 772 179 772 179 786 c 128,-1,38
 179 800 179 800 188.5 808.5 c 128,-1,39
 198 817 198 817 215.5 817 c 128,-1,40
 233 817 233 817 245 795 c 2,41,-1
 308 687 l 2,42,43
 310 683 310 683 310 681 c 0,44,45
 310 668 310 668 297 668 c 0,33,34
EndSplineSet
EndChar

StartChar: Aacute
Encoding: 193 193 117
Width: 555
GlyphClass: 2
Flags: W
LayerCount: 2
Fore
SplineSet
522 52 m 2,0,1
 545 52 545 52 545 26 c 128,-1,2
 545 0 545 0 522 0 c 2,3,-1
 412 0 l 2,4,5
 388 0 388 0 388 26 c 128,-1,6
 388 52 388 52 412 52 c 2,7,-1
 435 52 l 1,8,-1
 406 143 l 1,9,-1
 139 143 l 1,10,-1
 111 52 l 1,11,-1
 135 52 l 2,12,13
 159 52 159 52 159 26 c 128,-1,14
 159 0 159 0 135 0 c 2,15,-1
 34 0 l 2,16,17
 10 0 10 0 10 26 c 128,-1,18
 10 52 10 52 34 52 c 2,19,-1
 59 52 l 1,20,-1
 225 585 l 1,21,-1
 185 585 l 2,22,23
 162 585 162 585 162 611.5 c 128,-1,24
 162 638 162 638 185 638 c 2,25,-1
 288 638 l 2,26,27
 310 638 310 638 315 624 c 2,28,-1
 497 52 l 1,29,-1
 522 52 l 2,0,1
152 191 m 1,30,-1
 394 191 l 1,31,-1
 272 581 l 1,32,-1
 152 191 l 1,30,-1
193 668 m 0,33,34
 180 668 180 668 180 681 c 0,35,36
 180 683 180 683 182 687 c 2,37,-1
 245 795 l 2,38,39
 257 817 257 817 274.5 817 c 128,-1,40
 292 817 292 817 301.5 808.5 c 128,-1,41
 311 800 311 800 311 786 c 128,-1,42
 311 772 311 772 295 757 c 2,43,-1
 203 672 l 2,44,45
 199 668 199 668 193 668 c 0,33,34
EndSplineSet
EndChar

StartChar: Acircumflex
Encoding: 194 194 118
Width: 555
GlyphClass: 2
Flags: W
LayerCount: 2
Fore
SplineSet
522 52 m 2,0,1
 545 52 545 52 545 26 c 128,-1,2
 545 0 545 0 522 0 c 2,3,-1
 412 0 l 2,4,5
 388 0 388 0 388 26 c 128,-1,6
 388 52 388 52 412 52 c 2,7,-1
 435 52 l 1,8,-1
 406 143 l 1,9,-1
 139 143 l 1,10,-1
 111 52 l 1,11,-1
 135 52 l 2,12,13
 159 52 159 52 159 26 c 128,-1,14
 159 0 159 0 135 0 c 2,15,-1
 34 0 l 2,16,17
 10 0 10 0 10 26 c 128,-1,18
 10 52 10 52 34 52 c 2,19,-1
 59 52 l 1,20,-1
 225 585 l 1,21,-1
 185 585 l 2,22,23
 162 585 162 585 162 611.5 c 128,-1,24
 162 638 162 638 185 638 c 2,25,-1
 288 638 l 2,26,27
 310 638 310 638 315 624 c 2,28,-1
 497 52 l 1,29,-1
 522 52 l 2,0,1
152 191 m 1,30,-1
 394 191 l 1,31,-1
 272 581 l 1,32,-1
 152 191 l 1,30,-1
373 716 m 1,33,34
 382 708 382 708 382 698 c 128,-1,35
 382 688 382 688 375 682 c 128,-1,36
 368 676 368 676 358 676 c 128,-1,37
 348 676 348 676 339 682 c 2,38,-1
 250 747 l 1,39,-1
 162 682 l 2,40,41
 155 676 155 676 144.5 676 c 128,-1,42
 134 676 134 676 127 682.5 c 128,-1,43
 120 689 120 689 120 700 c 128,-1,44
 120 711 120 711 128 716 c 2,45,-1
 250 806 l 1,46,-1
 373 716 l 1,33,34
EndSplineSet
EndChar

StartChar: Atilde
Encoding: 195 195 119
Width: 555
GlyphClass: 2
Flags: W
LayerCount: 2
Fore
SplineSet
522 52 m 2,0,1
 545 52 545 52 545 26 c 128,-1,2
 545 0 545 0 522 0 c 2,3,-1
 412 0 l 2,4,5
 388 0 388 0 388 26 c 128,-1,6
 388 52 388 52 412 52 c 2,7,-1
 435 52 l 1,8,-1
 406 143 l 1,9,-1
 139 143 l 1,10,-1
 111 52 l 1,11,-1
 135 52 l 2,12,13
 159 52 159 52 159 26 c 128,-1,14
 159 0 159 0 135 0 c 2,15,-1
 34 0 l 2,16,17
 10 0 10 0 10 26 c 128,-1,18
 10 52 10 52 34 52 c 2,19,-1
 59 52 l 1,20,-1
 225 585 l 1,21,-1
 185 585 l 2,22,23
 162 585 162 585 162 611.5 c 128,-1,24
 162 638 162 638 185 638 c 2,25,-1
 288 638 l 2,26,27
 310 638 310 638 315 624 c 2,28,-1
 497 52 l 1,29,-1
 522 52 l 2,0,1
152 191 m 1,30,-1
 394 191 l 1,31,-1
 272 581 l 1,32,-1
 152 191 l 1,30,-1
118 692.5 m 128,-1,34
 107 706 107 706 107 731 c 128,-1,35
 107 756 107 756 131.5 772.5 c 128,-1,36
 156 789 156 789 183 789 c 128,-1,37
 210 789 210 789 233.5 779 c 128,-1,38
 257 769 257 769 268 760 c 128,-1,39
 279 751 279 751 297 734 c 1,40,41
 324 705 324 705 336.5 705 c 128,-1,42
 349 705 349 705 357.5 712.5 c 128,-1,43
 366 720 366 720 367 731 c 1,44,45
 352 741 352 741 352 759 c 0,46,47
 352 783 352 783 375 783 c 0,48,49
 389 783 389 783 401 771.5 c 128,-1,50
 413 760 413 760 413 733.5 c 128,-1,51
 413 707 413 707 389 690 c 128,-1,52
 365 673 365 673 337.5 673 c 128,-1,53
 310 673 310 673 288 682.5 c 128,-1,54
 266 692 266 692 256.5 701 c 128,-1,55
 247 710 247 710 231 727 c 0,56,57
 203 759 203 759 180 759 c 0,58,59
 170 759 170 759 161.5 752 c 128,-1,60
 153 745 153 745 152 734 c 1,61,62
 167 724 167 724 167 701.5 c 128,-1,63
 167 679 167 679 145 679 c 0,64,33
 129 679 129 679 118 692.5 c 128,-1,34
EndSplineSet
EndChar

StartChar: Adieresis
Encoding: 196 196 120
Width: 555
GlyphClass: 2
Flags: W
LayerCount: 2
Fore
SplineSet
522 52 m 2,0,1
 545 52 545 52 545 26 c 128,-1,2
 545 0 545 0 522 0 c 2,3,-1
 412 0 l 2,4,5
 388 0 388 0 388 26 c 128,-1,6
 388 52 388 52 412 52 c 2,7,-1
 435 52 l 1,8,-1
 406 143 l 1,9,-1
 139 143 l 1,10,-1
 111 52 l 1,11,-1
 135 52 l 2,12,13
 159 52 159 52 159 26 c 128,-1,14
 159 0 159 0 135 0 c 2,15,-1
 34 0 l 2,16,17
 10 0 10 0 10 26 c 128,-1,18
 10 52 10 52 34 52 c 2,19,-1
 59 52 l 1,20,-1
 225 585 l 1,21,-1
 185 585 l 2,22,23
 162 585 162 585 162 611.5 c 128,-1,24
 162 638 162 638 185 638 c 2,25,-1
 288 638 l 2,26,27
 310 638 310 638 315 624 c 2,28,-1
 497 52 l 1,29,-1
 522 52 l 2,0,1
152 191 m 1,30,-1
 394 191 l 1,31,-1
 272 581 l 1,32,-1
 152 191 l 1,30,-1
193.5 753.5 m 128,-1,34
 206 742 206 742 206 724.5 c 128,-1,35
 206 707 206 707 193 695 c 128,-1,36
 180 683 180 683 162 683 c 128,-1,37
 144 683 144 683 132 695 c 128,-1,38
 120 707 120 707 120 724.5 c 128,-1,39
 120 742 120 742 132 753.5 c 128,-1,40
 144 765 144 765 162.5 765 c 128,-1,33
 181 765 181 765 193.5 753.5 c 128,-1,34
384.5 753.5 m 128,-1,42
 397 742 397 742 397 724.5 c 128,-1,43
 397 707 397 707 384 695 c 128,-1,44
 371 683 371 683 353 683 c 128,-1,45
 335 683 335 683 323 695 c 128,-1,46
 311 707 311 707 311 724.5 c 128,-1,47
 311 742 311 742 323 753.5 c 128,-1,48
 335 765 335 765 353.5 765 c 128,-1,41
 372 765 372 765 384.5 753.5 c 128,-1,42
EndSplineSet
EndChar

StartChar: Aring
Encoding: 197 197 121
Width: 555
GlyphClass: 2
Flags: W
LayerCount: 2
Fore
SplineSet
522 52 m 2,0,1
 545 52 545 52 545 26 c 128,-1,2
 545 0 545 0 522 0 c 2,3,-1
 412 0 l 2,4,5
 388 0 388 0 388 26 c 128,-1,6
 388 52 388 52 412 52 c 2,7,-1
 435 52 l 1,8,-1
 406 143 l 1,9,-1
 139 143 l 1,10,-1
 111 52 l 1,11,-1
 135 52 l 2,12,13
 159 52 159 52 159 26 c 128,-1,14
 159 0 159 0 135 0 c 2,15,-1
 34 0 l 2,16,17
 10 0 10 0 10 26 c 128,-1,18
 10 52 10 52 34 52 c 2,19,-1
 59 52 l 1,20,-1
 225 585 l 1,21,-1
 185 585 l 2,22,23
 162 585 162 585 162 611.5 c 128,-1,24
 162 638 162 638 185 638 c 2,25,-1
 288 638 l 2,26,27
 310 638 310 638 315 624 c 2,28,-1
 497 52 l 1,29,-1
 522 52 l 2,0,1
152 191 m 1,30,-1
 394 191 l 1,31,-1
 272 581 l 1,32,-1
 152 191 l 1,30,-1
192.5 691.5 m 128,-1,34
 170 715 170 715 170 751 c 128,-1,35
 170 787 170 787 191.5 810.5 c 128,-1,36
 213 834 213 834 255 834 c 128,-1,37
 297 834 297 834 319 810 c 128,-1,38
 341 786 341 786 341 750.5 c 128,-1,39
 341 715 341 715 319 691.5 c 128,-1,40
 297 668 297 668 256 668 c 128,-1,33
 215 668 215 668 192.5 691.5 c 128,-1,34
296 750 m 0,41,42
 296 773 296 773 285 788.5 c 128,-1,43
 274 804 274 804 255 804 c 0,44,45
 215 804 215 804 215 751 c 128,-1,46
 215 698 215 698 255.5 698 c 128,-1,47
 296 698 296 698 296 750 c 0,41,42
EndSplineSet
EndChar

StartChar: AE
Encoding: 198 198 122
Width: 824
GlyphClass: 2
Flags: W
LayerCount: 2
Fore
SplineSet
458 52 m 1,0,-1
 680 52 l 1,1,-1
 783 152 l 2,2,3
 790 159 790 159 798 159 c 0,4,5
 819 159 819 159 819 141 c 0,6,7
 819 135 819 135 813 125 c 2,8,-1
 741 13 l 2,9,10
 733 0 733 0 714 0 c 2,11,-1
 381 0 l 2,12,13
 357 0 357 0 357 26 c 128,-1,14
 357 52 357 52 381 52 c 2,15,-1
 404 52 l 1,16,-1
 404 143 l 1,17,-1
 158 143 l 1,18,-1
 106 52 l 1,19,-1
 130 52 l 2,20,21
 154 52 154 52 154 26 c 128,-1,22
 154 0 154 0 130 0 c 2,23,-1
 29 0 l 2,24,25
 5 0 5 0 5 26 c 128,-1,26
 5 52 5 52 29 52 c 2,27,-1
 54 52 l 1,28,-1
 357 585 l 1,29,-1
 317 585 l 2,30,31
 294 585 294 585 294 611.5 c 128,-1,32
 294 638 294 638 317 638 c 2,33,-1
 614 638 l 2,34,35
 633 638 633 638 643 628 c 1,36,-1
 706 555 l 2,37,38
 713 547 713 547 713 539 c 128,-1,39
 713 531 713 531 707.5 525.5 c 128,-1,40
 702 520 702 520 692 520 c 128,-1,41
 682 520 682 520 674 528 c 2,42,-1
 603 590 l 1,43,-1
 458 590 l 1,44,-1
 458 477 l 1,45,-1
 563 477 l 1,46,47
 557 486 557 486 557 496 c 128,-1,48
 557 506 557 506 564.5 513.5 c 128,-1,49
 572 521 572 521 585 521 c 128,-1,50
 598 521 598 521 605 510 c 2,51,-1
 648 439 l 2,52,53
 652 432 652 432 652 424 c 128,-1,54
 652 416 652 416 646.5 409.5 c 128,-1,55
 641 403 641 403 630.5 403 c 128,-1,56
 620 403 620 403 612 414 c 1,57,-1
 599 429 l 1,58,-1
 458 429 l 1,59,-1
 458 52 l 1,0,-1
404 191 m 1,60,-1
 404 580 l 1,61,-1
 185 191 l 1,62,-1
 404 191 l 1,60,-1
EndSplineSet
EndChar

StartChar: Ccedilla
Encoding: 199 199 123
Width: 491
GlyphClass: 2
Flags: W
LayerCount: 2
Fore
SplineSet
250 -70 m 2,0,-1
 250 -8 l 1,1,2
 147 3 147 3 81 86.5 c 128,-1,3
 15 170 15 170 15 321.5 c 128,-1,4
 15 473 15 473 91.5 560.5 c 128,-1,5
 168 648 168 648 271 648 c 0,6,7
 325 648 325 648 365.5 626 c 128,-1,8
 406 604 406 604 406 560 c 0,9,10
 406 544 406 544 396.5 532 c 128,-1,11
 387 520 387 520 366 520 c 128,-1,12
 345 520 345 520 326.5 538 c 128,-1,13
 308 556 308 556 308 576 c 0,14,15
 308 580 308 580 313 593 c 1,16,17
 297 600 297 600 267 600 c 0,18,19
 190 600 190 600 132 521 c 128,-1,20
 74 442 74 442 74 325 c 0,21,22
 74 258 74 258 97 194 c 128,-1,23
 120 130 120 130 167.5 85 c 128,-1,24
 215 40 215 40 271 40 c 128,-1,25
 327 40 327 40 369 70.5 c 128,-1,26
 411 101 411 101 425 146 c 0,27,28
 428 156 428 156 438 163.5 c 128,-1,29
 448 171 448 171 458.5 171 c 128,-1,30
 469 171 469 171 477.5 161.5 c 128,-1,31
 486 152 486 152 486 141 c 0,32,33
 486 95 486 95 429.5 46 c 128,-1,34
 373 -3 373 -3 296 -9 c 1,35,-1
 296 -42 l 1,36,37
 327 -43 327 -43 350 -63.5 c 128,-1,38
 373 -84 373 -84 373 -119 c 128,-1,39
 373 -154 373 -154 350.5 -177 c 128,-1,40
 328 -200 328 -200 298 -200 c 128,-1,41
 268 -200 268 -200 250 -185.5 c 128,-1,42
 232 -171 232 -171 232 -150 c 0,43,44
 232 -117 232 -117 260 -117 c 1,45,46
 284 -119 284 -119 284 -150 c 0,47,48
 284 -157 284 -157 278 -166 c 1,49,50
 283 -170 283 -170 294 -170 c 0,51,52
 333 -170 333 -170 333 -123 c 0,53,54
 333 -100 333 -100 321.5 -89.5 c 128,-1,55
 310 -79 310 -79 297 -78 c 1,56,57
 290 -92 290 -92 274 -92 c 0,58,59
 250 -92 250 -92 250 -70 c 2,0,-1
EndSplineSet
EndChar

StartChar: Egrave
Encoding: 200 200 124
Width: 496
GlyphClass: 2
Flags: W
LayerCount: 2
Fore
SplineSet
130 52 m 1,0,-1
 352 52 l 1,1,-1
 455 152 l 2,2,3
 462 159 462 159 470 159 c 0,4,5
 491 159 491 159 491 141 c 0,6,7
 491 135 491 135 485 125 c 2,8,-1
 413 13 l 2,9,10
 405 0 405 0 386 0 c 2,11,-1
 49 0 l 2,12,13
 25 0 25 0 25 26 c 128,-1,14
 25 52 25 52 49 52 c 2,15,-1
 73 52 l 1,16,-1
 73 585 l 1,17,-1
 49 585 l 2,18,19
 25 585 25 585 25 611.5 c 128,-1,20
 25 638 25 638 49 638 c 2,21,-1
 286 638 l 2,22,23
 305 638 305 638 315 628 c 1,24,-1
 378 555 l 2,25,26
 385 547 385 547 385 539 c 128,-1,27
 385 531 385 531 379.5 525.5 c 128,-1,28
 374 520 374 520 364 520 c 128,-1,29
 354 520 354 520 346 528 c 2,30,-1
 275 590 l 1,31,-1
 130 590 l 1,32,-1
 130 477 l 1,33,-1
 235 477 l 1,34,35
 229 486 229 486 229 496 c 128,-1,36
 229 506 229 506 236.5 513.5 c 128,-1,37
 244 521 244 521 257 521 c 128,-1,38
 270 521 270 521 277 510 c 2,39,-1
 320 439 l 2,40,41
 324 432 324 432 324 424 c 128,-1,42
 324 416 324 416 318.5 409.5 c 128,-1,43
 313 403 313 403 302.5 403 c 128,-1,44
 292 403 292 403 284 414 c 1,45,-1
 271 429 l 1,46,-1
 130 429 l 1,47,-1
 130 52 l 1,0,-1
222 668 m 0,48,49
 216 668 216 668 212 672 c 2,50,-1
 120 757 l 2,51,52
 104 772 104 772 104 786 c 128,-1,53
 104 800 104 800 113.5 808.5 c 128,-1,54
 123 817 123 817 140.5 817 c 128,-1,55
 158 817 158 817 170 795 c 2,56,-1
 233 687 l 2,57,58
 235 683 235 683 235 681 c 0,59,60
 235 668 235 668 222 668 c 0,48,49
EndSplineSet
EndChar

StartChar: Eacute
Encoding: 201 201 125
Width: 496
GlyphClass: 2
Flags: W
LayerCount: 2
Fore
SplineSet
130 52 m 1,0,-1
 352 52 l 1,1,-1
 455 152 l 2,2,3
 462 159 462 159 470 159 c 0,4,5
 491 159 491 159 491 141 c 0,6,7
 491 135 491 135 485 125 c 2,8,-1
 413 13 l 2,9,10
 405 0 405 0 386 0 c 2,11,-1
 49 0 l 2,12,13
 25 0 25 0 25 26 c 128,-1,14
 25 52 25 52 49 52 c 2,15,-1
 73 52 l 1,16,-1
 73 585 l 1,17,-1
 49 585 l 2,18,19
 25 585 25 585 25 611.5 c 128,-1,20
 25 638 25 638 49 638 c 2,21,-1
 286 638 l 2,22,23
 305 638 305 638 315 628 c 1,24,-1
 378 555 l 2,25,26
 385 547 385 547 385 539 c 128,-1,27
 385 531 385 531 379.5 525.5 c 128,-1,28
 374 520 374 520 364 520 c 128,-1,29
 354 520 354 520 346 528 c 2,30,-1
 275 590 l 1,31,-1
 130 590 l 1,32,-1
 130 477 l 1,33,-1
 235 477 l 1,34,35
 229 486 229 486 229 496 c 128,-1,36
 229 506 229 506 236.5 513.5 c 128,-1,37
 244 521 244 521 257 521 c 128,-1,38
 270 521 270 521 277 510 c 2,39,-1
 320 439 l 2,40,41
 324 432 324 432 324 424 c 128,-1,42
 324 416 324 416 318.5 409.5 c 128,-1,43
 313 403 313 403 302.5 403 c 128,-1,44
 292 403 292 403 284 414 c 1,45,-1
 271 429 l 1,46,-1
 130 429 l 1,47,-1
 130 52 l 1,0,-1
132 668 m 0,48,49
 119 668 119 668 119 681 c 0,50,51
 119 683 119 683 121 687 c 2,52,-1
 184 795 l 2,53,54
 196 817 196 817 213.5 817 c 128,-1,55
 231 817 231 817 240.5 808.5 c 128,-1,56
 250 800 250 800 250 786 c 128,-1,57
 250 772 250 772 234 757 c 2,58,-1
 142 672 l 2,59,60
 138 668 138 668 132 668 c 0,48,49
EndSplineSet
EndChar

StartChar: Ecircumflex
Encoding: 202 202 126
Width: 496
GlyphClass: 2
Flags: W
LayerCount: 2
Fore
SplineSet
130 52 m 1,0,-1
 352 52 l 1,1,-1
 455 152 l 2,2,3
 462 159 462 159 470 159 c 0,4,5
 491 159 491 159 491 141 c 0,6,7
 491 135 491 135 485 125 c 2,8,-1
 413 13 l 2,9,10
 405 0 405 0 386 0 c 2,11,-1
 49 0 l 2,12,13
 25 0 25 0 25 26 c 128,-1,14
 25 52 25 52 49 52 c 2,15,-1
 73 52 l 1,16,-1
 73 585 l 1,17,-1
 49 585 l 2,18,19
 25 585 25 585 25 611.5 c 128,-1,20
 25 638 25 638 49 638 c 2,21,-1
 286 638 l 2,22,23
 305 638 305 638 315 628 c 1,24,-1
 378 555 l 2,25,26
 385 547 385 547 385 539 c 128,-1,27
 385 531 385 531 379.5 525.5 c 128,-1,28
 374 520 374 520 364 520 c 128,-1,29
 354 520 354 520 346 528 c 2,30,-1
 275 590 l 1,31,-1
 130 590 l 1,32,-1
 130 477 l 1,33,-1
 235 477 l 1,34,35
 229 486 229 486 229 496 c 128,-1,36
 229 506 229 506 236.5 513.5 c 128,-1,37
 244 521 244 521 257 521 c 128,-1,38
 270 521 270 521 277 510 c 2,39,-1
 320 439 l 2,40,41
 324 432 324 432 324 424 c 128,-1,42
 324 416 324 416 318.5 409.5 c 128,-1,43
 313 403 313 403 302.5 403 c 128,-1,44
 292 403 292 403 284 414 c 1,45,-1
 271 429 l 1,46,-1
 130 429 l 1,47,-1
 130 52 l 1,0,-1
301 716 m 1,48,49
 310 708 310 708 310 698 c 128,-1,50
 310 688 310 688 303 682 c 128,-1,51
 296 676 296 676 286 676 c 128,-1,52
 276 676 276 676 267 682 c 2,53,-1
 178 747 l 1,54,-1
 90 682 l 2,55,56
 82 676 82 676 72 676 c 128,-1,57
 62 676 62 676 55 682.5 c 128,-1,58
 48 689 48 689 48 700 c 128,-1,59
 48 711 48 711 56 716 c 2,60,-1
 178 806 l 1,61,-1
 301 716 l 1,48,49
EndSplineSet
EndChar

StartChar: Edieresis
Encoding: 203 203 127
Width: 496
GlyphClass: 2
Flags: W
LayerCount: 2
Fore
SplineSet
130 52 m 1,0,-1
 352 52 l 1,1,-1
 455 152 l 2,2,3
 462 159 462 159 470 159 c 0,4,5
 491 159 491 159 491 141 c 0,6,7
 491 135 491 135 485 125 c 2,8,-1
 413 13 l 2,9,10
 405 0 405 0 386 0 c 2,11,-1
 49 0 l 2,12,13
 25 0 25 0 25 26 c 128,-1,14
 25 52 25 52 49 52 c 2,15,-1
 73 52 l 1,16,-1
 73 585 l 1,17,-1
 49 585 l 2,18,19
 25 585 25 585 25 611.5 c 128,-1,20
 25 638 25 638 49 638 c 2,21,-1
 286 638 l 2,22,23
 305 638 305 638 315 628 c 1,24,-1
 378 555 l 2,25,26
 385 547 385 547 385 539 c 128,-1,27
 385 531 385 531 379.5 525.5 c 128,-1,28
 374 520 374 520 364 520 c 128,-1,29
 354 520 354 520 346 528 c 2,30,-1
 275 590 l 1,31,-1
 130 590 l 1,32,-1
 130 477 l 1,33,-1
 235 477 l 1,34,35
 229 486 229 486 229 496 c 128,-1,36
 229 506 229 506 236.5 513.5 c 128,-1,37
 244 521 244 521 257 521 c 128,-1,38
 270 521 270 521 277 510 c 2,39,-1
 320 439 l 2,40,41
 324 432 324 432 324 424 c 128,-1,42
 324 416 324 416 318.5 409.5 c 128,-1,43
 313 403 313 403 302.5 403 c 128,-1,44
 292 403 292 403 284 414 c 1,45,-1
 271 429 l 1,46,-1
 130 429 l 1,47,-1
 130 52 l 1,0,-1
112.5 753.5 m 128,-1,49
 125 742 125 742 125 724.5 c 128,-1,50
 125 707 125 707 112 695 c 128,-1,51
 99 683 99 683 81 683 c 128,-1,52
 63 683 63 683 51 695 c 128,-1,53
 39 707 39 707 39 724.5 c 128,-1,54
 39 742 39 742 51 753.5 c 128,-1,55
 63 765 63 765 81.5 765 c 128,-1,48
 100 765 100 765 112.5 753.5 c 128,-1,49
303.5 753.5 m 128,-1,57
 316 742 316 742 316 724.5 c 128,-1,58
 316 707 316 707 303 695 c 128,-1,59
 290 683 290 683 272 683 c 128,-1,60
 254 683 254 683 242 695 c 128,-1,61
 230 707 230 707 230 724.5 c 128,-1,62
 230 742 230 742 242 753.5 c 128,-1,63
 254 765 254 765 272.5 765 c 128,-1,56
 291 765 291 765 303.5 753.5 c 128,-1,57
EndSplineSet
EndChar

StartChar: Igrave
Encoding: 204 204 128
Width: 214
GlyphClass: 2
Flags: W
LayerCount: 2
Fore
SplineSet
78 52 m 1,0,-1
 78 585 l 1,1,-1
 49 585 l 2,2,3
 25 585 25 585 25 611.5 c 128,-1,4
 25 638 25 638 49 638 c 2,5,-1
 164 638 l 2,6,7
 189 638 189 638 189 611.5 c 128,-1,8
 189 585 189 585 164 585 c 2,9,-1
 135 585 l 1,10,-1
 135 52 l 1,11,-1
 164 52 l 2,12,13
 188 52 188 52 188 26 c 128,-1,14
 188 0 188 0 164 0 c 2,15,-1
 49 0 l 2,16,17
 25 0 25 0 25 26 c 128,-1,18
 25 52 25 52 49 52 c 2,19,-1
 78 52 l 1,0,-1
152 668 m 0,20,21
 146 668 146 668 142 672 c 2,22,-1
 50 757 l 2,23,24
 34 772 34 772 34 786 c 128,-1,25
 34 800 34 800 43.5 808.5 c 128,-1,26
 53 817 53 817 70.5 817 c 128,-1,27
 88 817 88 817 100 795 c 2,28,-1
 163 687 l 2,29,30
 165 683 165 683 165 681 c 0,31,32
 165 668 165 668 152 668 c 0,20,21
EndSplineSet
EndChar

StartChar: Iacute
Encoding: 205 205 129
Width: 214
GlyphClass: 2
Flags: W
LayerCount: 2
Fore
SplineSet
78 52 m 1,0,-1
 78 585 l 1,1,-1
 49 585 l 2,2,3
 25 585 25 585 25 611.5 c 128,-1,4
 25 638 25 638 49 638 c 2,5,-1
 164 638 l 2,6,7
 189 638 189 638 189 611.5 c 128,-1,8
 189 585 189 585 164 585 c 2,9,-1
 135 585 l 1,10,-1
 135 52 l 1,11,-1
 164 52 l 2,12,13
 188 52 188 52 188 26 c 128,-1,14
 188 0 188 0 164 0 c 2,15,-1
 49 0 l 2,16,17
 25 0 25 0 25 26 c 128,-1,18
 25 52 25 52 49 52 c 2,19,-1
 78 52 l 1,0,-1
54 668 m 0,20,21
 41 668 41 668 41 681 c 0,22,23
 41 683 41 683 43 687 c 2,24,-1
 106 795 l 2,25,26
 118 817 118 817 135.5 817 c 128,-1,27
 153 817 153 817 162.5 808.5 c 128,-1,28
 172 800 172 800 172 786 c 128,-1,29
 172 772 172 772 156 757 c 2,30,-1
 64 672 l 2,31,32
 60 668 60 668 54 668 c 0,20,21
EndSplineSet
EndChar

StartChar: Icircumflex
Encoding: 206 206 130
Width: 214
GlyphClass: 2
Flags: W
LayerCount: 2
Fore
SplineSet
78 52 m 1,0,-1
 78 585 l 1,1,-1
 49 585 l 2,2,3
 25 585 25 585 25 611.5 c 128,-1,4
 25 638 25 638 49 638 c 2,5,-1
 164 638 l 2,6,7
 189 638 189 638 189 611.5 c 128,-1,8
 189 585 189 585 164 585 c 2,9,-1
 135 585 l 1,10,-1
 135 52 l 1,11,-1
 164 52 l 2,12,13
 188 52 188 52 188 26 c 128,-1,14
 188 0 188 0 164 0 c 2,15,-1
 49 0 l 2,16,17
 25 0 25 0 25 26 c 128,-1,18
 25 52 25 52 49 52 c 2,19,-1
 78 52 l 1,0,-1
229 716 m 1,20,21
 238 708 238 708 238 698 c 128,-1,22
 238 688 238 688 231 682 c 128,-1,23
 224 676 224 676 214 676 c 128,-1,24
 204 676 204 676 195 682 c 2,25,-1
 106 747 l 1,26,-1
 18 682 l 2,27,28
 10 676 10 676 0 676 c 128,-1,29
 -10 676 -10 676 -17 682.5 c 128,-1,30
 -24 689 -24 689 -24 700 c 128,-1,31
 -24 711 -24 711 -16 716 c 2,32,-1
 106 806 l 1,33,-1
 229 716 l 1,20,21
EndSplineSet
EndChar

StartChar: Idieresis
Encoding: 207 207 131
Width: 214
GlyphClass: 2
Flags: W
LayerCount: 2
Fore
SplineSet
78 52 m 1,0,-1
 78 585 l 1,1,-1
 49 585 l 2,2,3
 25 585 25 585 25 611.5 c 128,-1,4
 25 638 25 638 49 638 c 2,5,-1
 164 638 l 2,6,7
 189 638 189 638 189 611.5 c 128,-1,8
 189 585 189 585 164 585 c 2,9,-1
 135 585 l 1,10,-1
 135 52 l 1,11,-1
 164 52 l 2,12,13
 188 52 188 52 188 26 c 128,-1,14
 188 0 188 0 164 0 c 2,15,-1
 49 0 l 2,16,17
 25 0 25 0 25 26 c 128,-1,18
 25 52 25 52 49 52 c 2,19,-1
 78 52 l 1,0,-1
42.5 753.5 m 128,-1,21
 55 742 55 742 55 724.5 c 128,-1,22
 55 707 55 707 42 695 c 128,-1,23
 29 683 29 683 11 683 c 128,-1,24
 -7 683 -7 683 -19 695 c 128,-1,25
 -31 707 -31 707 -31 724.5 c 128,-1,26
 -31 742 -31 742 -19 753.5 c 128,-1,27
 -7 765 -7 765 11.5 765 c 128,-1,20
 30 765 30 765 42.5 753.5 c 128,-1,21
233.5 753.5 m 128,-1,29
 246 742 246 742 246 724.5 c 128,-1,30
 246 707 246 707 233 695 c 128,-1,31
 220 683 220 683 202 683 c 128,-1,32
 184 683 184 683 172 695 c 128,-1,33
 160 707 160 707 160 724.5 c 128,-1,34
 160 742 160 742 172 753.5 c 128,-1,35
 184 765 184 765 202.5 765 c 128,-1,28
 221 765 221 765 233.5 753.5 c 128,-1,29
EndSplineSet
EndChar

StartChar: Eth
Encoding: 208 208 132
Width: 551
GlyphClass: 2
Flags: W
LayerCount: 2
Fore
SplineSet
73 585 m 1,0,-1
 50 585 l 2,1,2
 25 585 25 585 25 611.5 c 128,-1,3
 25 638 25 638 49 638 c 2,4,-1
 168 638 l 1,5,6
 329 637 329 637 432.5 552.5 c 128,-1,7
 536 468 536 468 536 315 c 128,-1,8
 536 162 536 162 433.5 81 c 128,-1,9
 331 0 331 0 163 0 c 2,10,-1
 49 0 l 2,11,12
 25 0 25 0 25 26 c 128,-1,13
 25 52 25 52 49 52 c 2,14,-1
 73 52 l 1,15,-1
 73 283 l 1,16,-1
 35 283 l 2,17,18
 13 283 13 283 13 307.5 c 128,-1,19
 13 332 13 332 35 332 c 2,20,-1
 73 332 l 1,21,-1
 73 585 l 1,0,-1
209 283 m 2,22,-1
 130 283 l 1,23,-1
 130 57 l 2,24,25
 130 45 130 45 179.5 45 c 128,-1,26
 229 45 229 45 282.5 60.5 c 128,-1,27
 336 76 336 76 381.5 106.5 c 128,-1,28
 427 137 427 137 454 190.5 c 128,-1,29
 481 244 481 244 481 324 c 128,-1,30
 481 404 481 404 436 469 c 0,31,32
 351 592 351 592 174 592 c 0,33,34
 130 592 130 592 130 580 c 2,35,-1
 130 332 l 1,36,-1
 209 332 l 2,37,38
 232 332 232 332 232 307.5 c 128,-1,39
 232 283 232 283 209 283 c 2,22,-1
EndSplineSet
EndChar

StartChar: Ntilde
Encoding: 209 209 133
Width: 530
GlyphClass: 2
Flags: W
LayerCount: 2
Fore
SplineSet
480 638 m 2,0,1
 505 638 505 638 505 611.5 c 128,-1,2
 505 585 505 585 480 585 c 2,3,-1
 453 585 l 1,4,-1
 453 23 l 2,5,6
 453 -4 453 -4 426 -4 c 0,7,8
 402 -4 402 -4 393 15 c 2,9,-1
 125 528 l 1,10,-1
 125 52 l 1,11,-1
 148 52 l 2,12,13
 172 52 172 52 172 26 c 128,-1,14
 172 0 172 0 148 0 c 2,15,-1
 49 0 l 2,16,17
 25 0 25 0 25 26 c 128,-1,18
 25 52 25 52 49 52 c 2,19,-1
 73 52 l 1,20,-1
 73 585 l 1,21,-1
 49 585 l 2,22,23
 25 585 25 585 25 611.5 c 128,-1,24
 25 638 25 638 49 638 c 2,25,-1
 116 638 l 2,26,27
 131 638 131 638 139 622 c 2,28,-1
 401 121 l 1,29,-1
 401 585 l 1,30,-1
 375 585 l 2,31,32
 351 585 351 585 351 611.5 c 128,-1,33
 351 638 351 638 375 638 c 2,34,-1
 480 638 l 2,0,1
123 692.5 m 128,-1,36
 112 706 112 706 112 731 c 128,-1,37
 112 756 112 756 136.5 772.5 c 128,-1,38
 161 789 161 789 188 789 c 128,-1,39
 215 789 215 789 238.5 779 c 128,-1,40
 262 769 262 769 273 760 c 128,-1,41
 284 751 284 751 302 734 c 1,42,43
 329 705 329 705 341.5 705 c 128,-1,44
 354 705 354 705 362.5 712.5 c 128,-1,45
 371 720 371 720 372 731 c 1,46,47
 357 741 357 741 357 759 c 0,48,49
 357 783 357 783 380 783 c 0,50,51
 394 783 394 783 406 771.5 c 128,-1,52
 418 760 418 760 418 733.5 c 128,-1,53
 418 707 418 707 394 690 c 128,-1,54
 370 673 370 673 342.5 673 c 128,-1,55
 315 673 315 673 293 682.5 c 128,-1,56
 271 692 271 692 261.5 701 c 128,-1,57
 252 710 252 710 236 727 c 0,58,59
 208 759 208 759 185 759 c 0,60,61
 176 759 176 759 167 752 c 128,-1,62
 158 745 158 745 157 734 c 1,63,64
 172 724 172 724 172 701.5 c 128,-1,65
 172 679 172 679 150 679 c 0,66,35
 134 679 134 679 123 692.5 c 128,-1,36
EndSplineSet
EndChar

StartChar: Ograve
Encoding: 210 210 134
Width: 550
GlyphClass: 2
Flags: W
LayerCount: 2
Fore
SplineSet
460 77.5 m 128,-1,1
 385 -10 385 -10 274.5 -10 c 128,-1,2
 164 -10 164 -10 89.5 79 c 128,-1,3
 15 168 15 168 15 322 c 128,-1,4
 15 476 15 476 90 562 c 128,-1,5
 165 648 165 648 275.5 648 c 128,-1,6
 386 648 386 648 460.5 561 c 128,-1,7
 535 474 535 474 535 319.5 c 128,-1,0
 535 165 535 165 460 77.5 c 128,-1,1
384 556 m 128,-1,9
 337 600 337 600 274.5 600 c 128,-1,10
 212 600 212 600 165 559 c 128,-1,11
 118 518 118 518 95.5 456.5 c 128,-1,12
 73 395 73 395 73 326 c 0,13,14
 73 220 73 220 129 129 c 128,-1,15
 185 38 185 38 276 38 c 128,-1,16
 367 38 367 38 421.5 123 c 128,-1,17
 476 208 476 208 476 316 c 0,18,19
 476 385 476 385 453.5 448.5 c 128,-1,8
 431 512 431 512 384 556 c 128,-1,9
308 668 m 0,20,21
 302 668 302 668 298 672 c 2,22,-1
 206 757 l 2,23,24
 190 772 190 772 190 786 c 128,-1,25
 190 800 190 800 199.5 808.5 c 128,-1,26
 209 817 209 817 226.5 817 c 128,-1,27
 244 817 244 817 256 795 c 2,28,-1
 319 687 l 2,29,30
 321 683 321 683 321 681 c 0,31,32
 321 668 321 668 308 668 c 0,20,21
EndSplineSet
EndChar

StartChar: Oacute
Encoding: 211 211 135
Width: 550
GlyphClass: 2
Flags: W
LayerCount: 2
Fore
SplineSet
460 77.5 m 128,-1,1
 385 -10 385 -10 274.5 -10 c 128,-1,2
 164 -10 164 -10 89.5 79 c 128,-1,3
 15 168 15 168 15 322 c 128,-1,4
 15 476 15 476 90 562 c 128,-1,5
 165 648 165 648 275.5 648 c 128,-1,6
 386 648 386 648 460.5 561 c 128,-1,7
 535 474 535 474 535 319.5 c 128,-1,0
 535 165 535 165 460 77.5 c 128,-1,1
384 556 m 128,-1,9
 337 600 337 600 274.5 600 c 128,-1,10
 212 600 212 600 165 559 c 128,-1,11
 118 518 118 518 95.5 456.5 c 128,-1,12
 73 395 73 395 73 326 c 0,13,14
 73 220 73 220 129 129 c 128,-1,15
 185 38 185 38 276 38 c 128,-1,16
 367 38 367 38 421.5 123 c 128,-1,17
 476 208 476 208 476 316 c 0,18,19
 476 385 476 385 453.5 448.5 c 128,-1,8
 431 512 431 512 384 556 c 128,-1,9
222 668 m 0,20,21
 209 668 209 668 209 681 c 0,22,23
 209 683 209 683 211 687 c 2,24,-1
 274 795 l 2,25,26
 286 817 286 817 303.5 817 c 128,-1,27
 321 817 321 817 330.5 808.5 c 128,-1,28
 340 800 340 800 340 786 c 128,-1,29
 340 772 340 772 324 757 c 2,30,-1
 232 672 l 2,31,32
 228 668 228 668 222 668 c 0,20,21
EndSplineSet
EndChar

StartChar: Ocircumflex
Encoding: 212 212 136
Width: 550
GlyphClass: 2
Flags: W
LayerCount: 2
Fore
SplineSet
460 77.5 m 128,-1,1
 385 -10 385 -10 274.5 -10 c 128,-1,2
 164 -10 164 -10 89.5 79 c 128,-1,3
 15 168 15 168 15 322 c 128,-1,4
 15 476 15 476 90 562 c 128,-1,5
 165 648 165 648 275.5 648 c 128,-1,6
 386 648 386 648 460.5 561 c 128,-1,7
 535 474 535 474 535 319.5 c 128,-1,0
 535 165 535 165 460 77.5 c 128,-1,1
384 556 m 128,-1,9
 337 600 337 600 274.5 600 c 128,-1,10
 212 600 212 600 165 559 c 128,-1,11
 118 518 118 518 95.5 456.5 c 128,-1,12
 73 395 73 395 73 326 c 0,13,14
 73 220 73 220 129 129 c 128,-1,15
 185 38 185 38 276 38 c 128,-1,16
 367 38 367 38 421.5 123 c 128,-1,17
 476 208 476 208 476 316 c 0,18,19
 476 385 476 385 453.5 448.5 c 128,-1,8
 431 512 431 512 384 556 c 128,-1,9
397 716 m 1,20,21
 406 708 406 708 406 698 c 128,-1,22
 406 688 406 688 399 682 c 128,-1,23
 392 676 392 676 382 676 c 128,-1,24
 372 676 372 676 363 682 c 2,25,-1
 274 747 l 1,26,-1
 186 682 l 2,27,28
 178 676 178 676 168 676 c 128,-1,29
 158 676 158 676 151 682.5 c 128,-1,30
 144 689 144 689 144 700 c 128,-1,31
 144 711 144 711 152 716 c 2,32,-1
 274 806 l 1,33,-1
 397 716 l 1,20,21
EndSplineSet
EndChar

StartChar: Otilde
Encoding: 213 213 137
Width: 550
GlyphClass: 2
Flags: W
LayerCount: 2
Fore
SplineSet
460 77.5 m 128,-1,1
 385 -10 385 -10 274.5 -10 c 128,-1,2
 164 -10 164 -10 89.5 79 c 128,-1,3
 15 168 15 168 15 322 c 128,-1,4
 15 476 15 476 90 562 c 128,-1,5
 165 648 165 648 275.5 648 c 128,-1,6
 386 648 386 648 460.5 561 c 128,-1,7
 535 474 535 474 535 319.5 c 128,-1,0
 535 165 535 165 460 77.5 c 128,-1,1
384 556 m 128,-1,9
 337 600 337 600 274.5 600 c 128,-1,10
 212 600 212 600 165 559 c 128,-1,11
 118 518 118 518 95.5 456.5 c 128,-1,12
 73 395 73 395 73 326 c 0,13,14
 73 220 73 220 129 129 c 128,-1,15
 185 38 185 38 276 38 c 128,-1,16
 367 38 367 38 421.5 123 c 128,-1,17
 476 208 476 208 476 316 c 0,18,19
 476 385 476 385 453.5 448.5 c 128,-1,8
 431 512 431 512 384 556 c 128,-1,9
133 692.5 m 128,-1,21
 122 706 122 706 122 731 c 128,-1,22
 122 756 122 756 146.5 772.5 c 128,-1,23
 171 789 171 789 198 789 c 128,-1,24
 225 789 225 789 248.5 779 c 128,-1,25
 272 769 272 769 283 760 c 128,-1,26
 294 751 294 751 312 734 c 1,27,28
 339 705 339 705 351.5 705 c 128,-1,29
 364 705 364 705 372.5 712.5 c 128,-1,30
 381 720 381 720 382 731 c 1,31,32
 367 741 367 741 367 759 c 0,33,34
 367 783 367 783 390 783 c 0,35,36
 404 783 404 783 416 771.5 c 128,-1,37
 428 760 428 760 428 733.5 c 128,-1,38
 428 707 428 707 404 690 c 128,-1,39
 380 673 380 673 352.5 673 c 128,-1,40
 325 673 325 673 303 682.5 c 128,-1,41
 281 692 281 692 271.5 701 c 128,-1,42
 262 710 262 710 246 727 c 0,43,44
 218 759 218 759 195 759 c 0,45,46
 186 759 186 759 177 752 c 128,-1,47
 168 745 168 745 167 734 c 1,48,49
 182 724 182 724 182 701.5 c 128,-1,50
 182 679 182 679 160 679 c 0,51,20
 144 679 144 679 133 692.5 c 128,-1,21
EndSplineSet
EndChar

StartChar: Odieresis
Encoding: 214 214 138
Width: 550
GlyphClass: 2
Flags: W
LayerCount: 2
Fore
SplineSet
460 77.5 m 128,-1,1
 385 -10 385 -10 274.5 -10 c 128,-1,2
 164 -10 164 -10 89.5 79 c 128,-1,3
 15 168 15 168 15 322 c 128,-1,4
 15 476 15 476 90 562 c 128,-1,5
 165 648 165 648 275.5 648 c 128,-1,6
 386 648 386 648 460.5 561 c 128,-1,7
 535 474 535 474 535 319.5 c 128,-1,0
 535 165 535 165 460 77.5 c 128,-1,1
384 556 m 128,-1,9
 337 600 337 600 274.5 600 c 128,-1,10
 212 600 212 600 165 559 c 128,-1,11
 118 518 118 518 95.5 456.5 c 128,-1,12
 73 395 73 395 73 326 c 0,13,14
 73 220 73 220 129 129 c 128,-1,15
 185 38 185 38 276 38 c 128,-1,16
 367 38 367 38 421.5 123 c 128,-1,17
 476 208 476 208 476 316 c 0,18,19
 476 385 476 385 453.5 448.5 c 128,-1,8
 431 512 431 512 384 556 c 128,-1,9
209.5 753.5 m 128,-1,21
 222 742 222 742 222 724.5 c 128,-1,22
 222 707 222 707 209 695 c 128,-1,23
 196 683 196 683 178 683 c 128,-1,24
 160 683 160 683 148 695 c 128,-1,25
 136 707 136 707 136 724.5 c 128,-1,26
 136 742 136 742 148 753.5 c 128,-1,27
 160 765 160 765 178.5 765 c 128,-1,20
 197 765 197 765 209.5 753.5 c 128,-1,21
400.5 753.5 m 128,-1,29
 413 742 413 742 413 724.5 c 128,-1,30
 413 707 413 707 400 695 c 128,-1,31
 387 683 387 683 369 683 c 128,-1,32
 351 683 351 683 339 695 c 128,-1,33
 327 707 327 707 327 724.5 c 128,-1,34
 327 742 327 742 339 753.5 c 128,-1,35
 351 765 351 765 369.5 765 c 128,-1,28
 388 765 388 765 400.5 753.5 c 128,-1,29
EndSplineSet
EndChar

StartChar: multiply
Encoding: 215 215 139
Width: 254
GlyphClass: 2
Flags: W
LayerCount: 2
Fore
SplineSet
26 303 m 2,0,1
 19 310 19 310 19 319.5 c 128,-1,2
 19 329 19 329 27.5 338 c 128,-1,3
 36 347 36 347 46 347 c 128,-1,4
 56 347 56 347 63 340 c 2,5,-1
 126 277 l 1,6,-1
 189 340 l 2,7,8
 196 347 196 347 207.5 347 c 128,-1,9
 219 347 219 347 228 338 c 128,-1,10
 237 329 237 329 237 318 c 128,-1,11
 237 307 237 307 230 300 c 2,12,-1
 167 237 l 1,13,-1
 226 177 l 2,14,15
 233 170 233 170 233 159.5 c 128,-1,16
 233 149 233 149 225 141 c 128,-1,17
 217 133 217 133 206.5 133 c 128,-1,18
 196 133 196 133 189 140 c 2,19,-1
 129 199 l 1,20,-1
 64 134 l 2,21,22
 56 126 56 126 45 126 c 128,-1,23
 34 126 34 126 25 135.5 c 128,-1,24
 16 145 16 145 16 156 c 128,-1,25
 16 167 16 167 24 175 c 2,26,-1
 89 240 l 1,27,-1
 26 303 l 2,0,1
EndSplineSet
EndChar

StartChar: Oslash
Encoding: 216 216 140
Width: 550
GlyphClass: 2
Flags: W
LayerCount: 2
Fore
SplineSet
155 5 m 1,0,1
 146 -10 146 -10 132 -10 c 128,-1,2
 118 -10 118 -10 109.5 -2 c 128,-1,3
 101 6 101 6 101 14 c 128,-1,4
 101 22 101 22 104 30 c 2,5,-1
 114 52 l 1,6,7
 15 143 15 143 15 322 c 0,8,9
 15 476 15 476 90 562 c 128,-1,10
 165 648 165 648 275 648 c 0,11,12
 335 648 335 648 389 620 c 1,13,-1
 396 635 l 2,14,15
 403 650 403 650 417.5 650 c 128,-1,16
 432 650 432 650 440.5 642 c 128,-1,17
 449 634 449 634 449 625.5 c 128,-1,18
 449 617 449 617 446 611 c 2,19,-1
 434 587 l 1,20,21
 535 498 535 498 535 318 c 0,22,23
 535 165 535 165 460 77.5 c 128,-1,24
 385 -10 385 -10 275 -10 c 0,25,26
 215 -10 215 -10 161 18 c 1,27,-1
 155 5 l 1,0,1
365 571 m 1,28,29
 323 600 323 600 267.5 600 c 128,-1,30
 212 600 212 600 165 559 c 128,-1,31
 118 518 118 518 95.5 456.5 c 128,-1,32
 73 395 73 395 73 332 c 0,33,34
 73 199 73 199 142 109 c 1,35,-1
 365 571 l 1,28,29
421.5 123 m 128,-1,37
 476 208 476 208 476 326.5 c 128,-1,38
 476 445 476 445 407 531 c 1,39,-1
 185 68 l 1,40,41
 226 38 226 38 275 38 c 0,42,36
 367 38 367 38 421.5 123 c 128,-1,37
EndSplineSet
EndChar

StartChar: Ugrave
Encoding: 217 217 141
Width: 563
GlyphClass: 2
Flags: W
LayerCount: 2
Fore
SplineSet
520 638 m 2,0,1
 543 638 543 638 543 611.5 c 128,-1,2
 543 585 543 585 520 585 c 2,3,-1
 498 585 l 1,4,-1
 498 217 l 2,5,6
 498 118 498 118 438.5 54 c 128,-1,7
 379 -10 379 -10 286 -10 c 128,-1,8
 193 -10 193 -10 129 50 c 128,-1,9
 65 110 65 110 65 207 c 2,10,-1
 65 585 l 1,11,-1
 43 585 l 2,12,13
 20 585 20 585 20 611.5 c 128,-1,14
 20 638 20 638 43 638 c 2,15,-1
 144 638 l 2,16,17
 169 638 169 638 169 611.5 c 128,-1,18
 169 585 169 585 144 585 c 2,19,-1
 123 585 l 1,20,-1
 123 223 l 2,21,22
 123 139 123 139 168.5 89.5 c 128,-1,23
 214 40 214 40 289.5 40 c 128,-1,24
 365 40 365 40 406 93.5 c 128,-1,25
 447 147 447 147 447 224 c 2,26,-1
 447 585 l 1,27,-1
 425 585 l 2,28,29
 402 585 402 585 402 611.5 c 128,-1,30
 402 638 402 638 425 638 c 2,31,-1
 520 638 l 2,0,1
334 668 m 0,32,33
 328 668 328 668 324 672 c 2,34,-1
 232 757 l 2,35,36
 216 772 216 772 216 786 c 128,-1,37
 216 800 216 800 225.5 808.5 c 128,-1,38
 235 817 235 817 252.5 817 c 128,-1,39
 270 817 270 817 282 795 c 2,40,-1
 345 687 l 2,41,42
 347 683 347 683 347 681 c 0,43,44
 347 668 347 668 334 668 c 0,32,33
EndSplineSet
EndChar

StartChar: Uacute
Encoding: 218 218 142
Width: 563
GlyphClass: 2
Flags: W
LayerCount: 2
Fore
SplineSet
520 638 m 2,0,1
 543 638 543 638 543 611.5 c 128,-1,2
 543 585 543 585 520 585 c 2,3,-1
 498 585 l 1,4,-1
 498 217 l 2,5,6
 498 118 498 118 438.5 54 c 128,-1,7
 379 -10 379 -10 286 -10 c 128,-1,8
 193 -10 193 -10 129 50 c 128,-1,9
 65 110 65 110 65 207 c 2,10,-1
 65 585 l 1,11,-1
 43 585 l 2,12,13
 20 585 20 585 20 611.5 c 128,-1,14
 20 638 20 638 43 638 c 2,15,-1
 144 638 l 2,16,17
 169 638 169 638 169 611.5 c 128,-1,18
 169 585 169 585 144 585 c 2,19,-1
 123 585 l 1,20,-1
 123 223 l 2,21,22
 123 139 123 139 168.5 89.5 c 128,-1,23
 214 40 214 40 289.5 40 c 128,-1,24
 365 40 365 40 406 93.5 c 128,-1,25
 447 147 447 147 447 224 c 2,26,-1
 447 585 l 1,27,-1
 425 585 l 2,28,29
 402 585 402 585 402 611.5 c 128,-1,30
 402 638 402 638 425 638 c 2,31,-1
 520 638 l 2,0,1
239 668 m 0,32,33
 226 668 226 668 226 681 c 0,34,35
 226 683 226 683 228 687 c 2,36,-1
 291 795 l 2,37,38
 303 817 303 817 320.5 817 c 128,-1,39
 338 817 338 817 347.5 808.5 c 128,-1,40
 357 800 357 800 357 786 c 128,-1,41
 357 772 357 772 341 757 c 2,42,-1
 249 672 l 2,43,44
 245 668 245 668 239 668 c 0,32,33
EndSplineSet
EndChar

StartChar: Ucircumflex
Encoding: 219 219 143
Width: 563
GlyphClass: 2
Flags: W
LayerCount: 2
Fore
SplineSet
520 638 m 2,0,1
 543 638 543 638 543 611.5 c 128,-1,2
 543 585 543 585 520 585 c 2,3,-1
 498 585 l 1,4,-1
 498 217 l 2,5,6
 498 118 498 118 438.5 54 c 128,-1,7
 379 -10 379 -10 286 -10 c 128,-1,8
 193 -10 193 -10 129 50 c 128,-1,9
 65 110 65 110 65 207 c 2,10,-1
 65 585 l 1,11,-1
 43 585 l 2,12,13
 20 585 20 585 20 611.5 c 128,-1,14
 20 638 20 638 43 638 c 2,15,-1
 144 638 l 2,16,17
 169 638 169 638 169 611.5 c 128,-1,18
 169 585 169 585 144 585 c 2,19,-1
 123 585 l 1,20,-1
 123 223 l 2,21,22
 123 139 123 139 168.5 89.5 c 128,-1,23
 214 40 214 40 289.5 40 c 128,-1,24
 365 40 365 40 406 93.5 c 128,-1,25
 447 147 447 147 447 224 c 2,26,-1
 447 585 l 1,27,-1
 425 585 l 2,28,29
 402 585 402 585 402 611.5 c 128,-1,30
 402 638 402 638 425 638 c 2,31,-1
 520 638 l 2,0,1
403 716 m 1,32,33
 412 708 412 708 412 698 c 128,-1,34
 412 688 412 688 405 682 c 128,-1,35
 398 676 398 676 388 676 c 128,-1,36
 378 676 378 676 369 682 c 2,37,-1
 280 747 l 1,38,-1
 192 682 l 2,39,40
 185 676 185 676 174.5 676 c 128,-1,41
 164 676 164 676 157 682.5 c 128,-1,42
 150 689 150 689 150 700 c 128,-1,43
 150 711 150 711 158 716 c 2,44,-1
 280 806 l 1,45,-1
 403 716 l 1,32,33
EndSplineSet
EndChar

StartChar: Udieresis
Encoding: 220 220 144
Width: 563
GlyphClass: 2
Flags: W
LayerCount: 2
Fore
SplineSet
520 638 m 2,0,1
 543 638 543 638 543 611.5 c 128,-1,2
 543 585 543 585 520 585 c 2,3,-1
 498 585 l 1,4,-1
 498 217 l 2,5,6
 498 118 498 118 438.5 54 c 128,-1,7
 379 -10 379 -10 286 -10 c 128,-1,8
 193 -10 193 -10 129 50 c 128,-1,9
 65 110 65 110 65 207 c 2,10,-1
 65 585 l 1,11,-1
 43 585 l 2,12,13
 20 585 20 585 20 611.5 c 128,-1,14
 20 638 20 638 43 638 c 2,15,-1
 144 638 l 2,16,17
 169 638 169 638 169 611.5 c 128,-1,18
 169 585 169 585 144 585 c 2,19,-1
 123 585 l 1,20,-1
 123 223 l 2,21,22
 123 139 123 139 168.5 89.5 c 128,-1,23
 214 40 214 40 289.5 40 c 128,-1,24
 365 40 365 40 406 93.5 c 128,-1,25
 447 147 447 147 447 224 c 2,26,-1
 447 585 l 1,27,-1
 425 585 l 2,28,29
 402 585 402 585 402 611.5 c 128,-1,30
 402 638 402 638 425 638 c 2,31,-1
 520 638 l 2,0,1
216.5 753.5 m 128,-1,33
 229 742 229 742 229 724.5 c 128,-1,34
 229 707 229 707 216 695 c 128,-1,35
 203 683 203 683 185 683 c 128,-1,36
 167 683 167 683 155 695 c 128,-1,37
 143 707 143 707 143 724.5 c 128,-1,38
 143 742 143 742 155 753.5 c 128,-1,39
 167 765 167 765 185.5 765 c 128,-1,32
 204 765 204 765 216.5 753.5 c 128,-1,33
407.5 753.5 m 128,-1,41
 420 742 420 742 420 724.5 c 128,-1,42
 420 707 420 707 407 695 c 128,-1,43
 394 683 394 683 376 683 c 128,-1,44
 358 683 358 683 346 695 c 128,-1,45
 334 707 334 707 334 724.5 c 128,-1,46
 334 742 334 742 346 753.5 c 128,-1,47
 358 765 358 765 376.5 765 c 128,-1,40
 395 765 395 765 407.5 753.5 c 128,-1,41
EndSplineSet
EndChar

StartChar: Yacute
Encoding: 221 221 145
Width: 557
GlyphClass: 2
Flags: W
LayerCount: 2
Fore
SplineSet
311 53 m 1,0,-1
 335 53 l 2,1,2
 359 53 359 53 359 26.5 c 128,-1,3
 359 0 359 0 335 0 c 2,4,-1
 229 0 l 2,5,6
 205 0 205 0 205 26.5 c 128,-1,7
 205 53 205 53 229 53 c 2,8,-1
 253 53 l 1,9,-1
 253 232 l 1,10,-1
 62 585 l 1,11,-1
 31 585 l 2,12,13
 10 585 10 585 10 612 c 0,14,15
 10 622 10 622 16 630 c 128,-1,16
 22 638 22 638 31 638 c 2,17,-1
 155 638 l 2,18,19
 164 638 164 638 170 630 c 128,-1,20
 176 622 176 622 176 612 c 0,21,22
 176 585 176 585 155 585 c 2,23,-1
 127 585 l 1,24,-1
 286 290 l 1,25,-1
 442 585 l 1,26,-1
 418 585 l 2,27,28
 395 585 395 585 395 612 c 0,29,30
 395 622 395 622 401 630 c 128,-1,31
 407 638 407 638 418 638 c 2,32,-1
 524 638 l 2,33,34
 534 638 534 638 540.5 630 c 128,-1,35
 547 622 547 622 547 611 c 128,-1,36
 547 600 547 600 540.5 592.5 c 128,-1,37
 534 585 534 585 524 585 c 2,38,-1
 498 585 l 1,39,-1
 311 233 l 1,40,-1
 311 53 l 1,0,-1
254 668 m 0,41,42
 241 668 241 668 241 681 c 0,43,44
 241 683 241 683 243 687 c 2,45,-1
 306 795 l 2,46,47
 318 817 318 817 335.5 817 c 128,-1,48
 353 817 353 817 362.5 808.5 c 128,-1,49
 372 800 372 800 372 786 c 128,-1,50
 372 772 372 772 356 757 c 2,51,-1
 264 672 l 2,52,53
 260 668 260 668 254 668 c 0,41,42
EndSplineSet
EndChar

StartChar: Thorn
Encoding: 222 222 146
Width: 453
GlyphClass: 2
Flags: W
LayerCount: 2
Fore
SplineSet
74 52 m 1,0,-1
 74 586 l 1,1,-1
 48 586 l 2,2,3
 25 586 25 586 25 612 c 128,-1,4
 25 638 25 638 48 638 c 2,5,-1
 112 638 l 2,6,7
 123 638 123 638 126.5 634.5 c 128,-1,8
 130 631 130 631 130 620 c 2,9,-1
 130 523 l 1,10,-1
 233 523 l 2,11,12
 324 523 324 523 383 471.5 c 128,-1,13
 442 420 442 420 443 337 c 1,14,-1
 443 332 l 2,15,16
 443 248 443 248 383.5 196 c 128,-1,17
 324 144 324 144 233 144 c 2,18,-1
 130 144 l 1,19,-1
 130 52 l 1,20,-1
 165 52 l 2,21,22
 189 52 189 52 189 26 c 128,-1,23
 189 0 189 0 165 0 c 2,24,-1
 48 0 l 2,25,26
 25 0 25 0 25 26 c 128,-1,27
 25 52 25 52 48 52 c 2,28,-1
 74 52 l 1,0,-1
343.5 231 m 128,-1,30
 388 269 388 269 388 334.5 c 128,-1,31
 388 400 388 400 343.5 438 c 128,-1,32
 299 476 299 476 235 476 c 2,33,-1
 206 476 l 2,34,35
 131 476 131 476 131 461 c 2,36,-1
 131 207 l 2,37,38
 131 193 131 193 206 193 c 2,39,-1
 235 193 l 2,40,29
 299 193 299 193 343.5 231 c 128,-1,30
EndSplineSet
EndChar

StartChar: germandbls
Encoding: 223 223 147
Width: 463
GlyphClass: 2
Flags: W
LayerCount: 2
Fore
SplineSet
74 52 m 1,0,-1
 74 411 l 2,1,2
 74 515 74 515 127.5 580 c 128,-1,3
 181 645 181 645 259 645 c 0,4,5
 302 645 302 645 337 626 c 128,-1,6
 372 607 372 607 372 577 c 0,7,8
 372 561 372 561 361 552.5 c 128,-1,9
 350 544 350 544 333.5 544 c 128,-1,10
 317 544 317 544 292 563.5 c 128,-1,11
 267 583 267 583 266 603 c 1,12,13
 209 601 209 601 169.5 560 c 128,-1,14
 130 519 130 519 130 432 c 2,15,-1
 130 420 l 1,16,17
 150 449 150 449 184 470 c 128,-1,18
 218 491 218 491 256 491 c 128,-1,19
 294 491 294 491 327.5 468 c 128,-1,20
 361 445 361 445 361 402.5 c 128,-1,21
 361 360 361 360 339 336 c 1,22,23
 391 315 391 315 422 264 c 128,-1,24
 453 213 453 213 453 149.5 c 128,-1,25
 453 86 453 86 421 37.5 c 128,-1,26
 389 -11 389 -11 327 -11 c 0,27,28
 282 -11 282 -11 247 14 c 128,-1,29
 212 39 212 39 212 80 c 0,30,31
 212 101 212 101 222 114 c 128,-1,32
 232 127 232 127 250 127 c 128,-1,33
 268 127 268 127 283 107.5 c 128,-1,34
 298 88 298 88 298 71.5 c 128,-1,35
 298 55 298 55 290 39 c 1,36,37
 302 21 302 21 330.5 21 c 128,-1,38
 359 21 359 21 376 45 c 128,-1,39
 393 69 393 69 397 93 c 128,-1,40
 401 117 401 117 401 142 c 0,41,42
 401 199 401 199 376 245.5 c 128,-1,43
 351 292 351 292 314 310 c 1,44,45
 294 290 294 290 266 290.5 c 128,-1,46
 238 291 238 291 224.5 302.5 c 128,-1,47
 211 314 211 314 211 329 c 128,-1,48
 211 344 211 344 223.5 353.5 c 128,-1,49
 236 363 236 363 258 363 c 128,-1,50
 280 363 280 363 299 354 c 1,51,52
 312 371 312 371 312 393.5 c 128,-1,53
 312 416 312 416 296 431.5 c 128,-1,54
 280 447 280 447 256 447 c 0,55,56
 215 447 215 447 172.5 403 c 128,-1,57
 130 359 130 359 130 320 c 2,58,-1
 130 52 l 1,59,-1
 156 52 l 2,60,61
 168 52 168 52 174 43.5 c 128,-1,62
 180 35 180 35 180 25 c 0,63,64
 180 0 180 0 156 0 c 2,65,-1
 51 0 l 2,66,67
 39 0 39 0 32 7.5 c 128,-1,68
 25 15 25 15 25 25 c 128,-1,69
 25 35 25 35 32.5 43.5 c 128,-1,70
 40 52 40 52 51 52 c 2,71,-1
 74 52 l 1,0,-1
EndSplineSet
EndChar

StartChar: agrave
Encoding: 224 224 148
Width: 434
GlyphClass: 2
Flags: W
LayerCount: 2
Fore
SplineSet
188 492 m 0,0,1
 274 492 274 492 321.5 436 c 128,-1,2
 369 380 369 380 369 293 c 0,3,4
 369 155 369 155 379 106.5 c 128,-1,5
 389 58 389 58 417 38 c 1,6,7
 434 30 434 30 434 16 c 0,8,9
 434 -10 434 -10 410 -10 c 128,-1,10
 386 -10 386 -10 364.5 12.5 c 128,-1,11
 343 35 343 35 330 68 c 1,12,13
 313 35 313 35 275.5 12.5 c 128,-1,14
 238 -10 238 -10 186 -10 c 0,15,16
 110 -10 110 -10 62.5 37.5 c 128,-1,17
 15 85 15 85 15 158.5 c 128,-1,18
 15 232 15 232 65 284 c 128,-1,19
 115 336 115 336 189.5 336 c 128,-1,20
 264 336 264 336 314 287 c 1,21,22
 314 357 314 357 284 404.5 c 128,-1,23
 254 452 254 452 192 452 c 128,-1,24
 130 452 130 452 114 418 c 1,25,26
 123 397 123 397 123 383 c 128,-1,27
 123 369 123 369 111 353 c 128,-1,28
 99 337 99 337 81.5 337 c 128,-1,29
 64 337 64 337 54 352 c 128,-1,30
 44 367 44 367 44 387 c 0,31,32
 44 429 44 429 85.5 460.5 c 128,-1,33
 127 492 127 492 188 492 c 0,0,1
107 71 m 128,-1,35
 144 34 144 34 195.5 34 c 128,-1,36
 247 34 247 34 282 69.5 c 128,-1,37
 317 105 317 105 317 156 c 2,38,-1
 317 165 l 2,39,40
 317 219 317 219 281 254 c 128,-1,41
 245 289 245 289 192.5 289 c 128,-1,42
 140 289 140 289 105 253.5 c 128,-1,43
 70 218 70 218 70 163 c 128,-1,34
 70 108 70 108 107 71 c 128,-1,35
238 510 m 0,44,45
 232 510 232 510 228 514 c 2,46,-1
 136 599 l 2,47,48
 120 614 120 614 120 628 c 128,-1,49
 120 642 120 642 129.5 650.5 c 128,-1,50
 139 659 139 659 156.5 659 c 128,-1,51
 174 659 174 659 186 637 c 2,52,-1
 249 529 l 2,53,54
 251 525 251 525 251 523 c 0,55,56
 251 510 251 510 238 510 c 0,44,45
EndSplineSet
EndChar

StartChar: aacute
Encoding: 225 225 149
Width: 434
GlyphClass: 2
Flags: W
LayerCount: 2
Fore
SplineSet
188 492 m 0,0,1
 274 492 274 492 321.5 436 c 128,-1,2
 369 380 369 380 369 293 c 0,3,4
 369 155 369 155 379 106.5 c 128,-1,5
 389 58 389 58 417 38 c 1,6,7
 434 30 434 30 434 16 c 0,8,9
 434 -10 434 -10 410 -10 c 128,-1,10
 386 -10 386 -10 364.5 12.5 c 128,-1,11
 343 35 343 35 330 68 c 1,12,13
 313 35 313 35 275.5 12.5 c 128,-1,14
 238 -10 238 -10 186 -10 c 0,15,16
 110 -10 110 -10 62.5 37.5 c 128,-1,17
 15 85 15 85 15 158.5 c 128,-1,18
 15 232 15 232 65 284 c 128,-1,19
 115 336 115 336 189.5 336 c 128,-1,20
 264 336 264 336 314 287 c 1,21,22
 314 357 314 357 284 404.5 c 128,-1,23
 254 452 254 452 192 452 c 128,-1,24
 130 452 130 452 114 418 c 1,25,26
 123 397 123 397 123 383 c 128,-1,27
 123 369 123 369 111 353 c 128,-1,28
 99 337 99 337 81.5 337 c 128,-1,29
 64 337 64 337 54 352 c 128,-1,30
 44 367 44 367 44 387 c 0,31,32
 44 429 44 429 85.5 460.5 c 128,-1,33
 127 492 127 492 188 492 c 0,0,1
107 71 m 128,-1,35
 144 34 144 34 195.5 34 c 128,-1,36
 247 34 247 34 282 69.5 c 128,-1,37
 317 105 317 105 317 156 c 2,38,-1
 317 165 l 2,39,40
 317 219 317 219 281 254 c 128,-1,41
 245 289 245 289 192.5 289 c 128,-1,42
 140 289 140 289 105 253.5 c 128,-1,43
 70 218 70 218 70 163 c 128,-1,34
 70 108 70 108 107 71 c 128,-1,35
147 510 m 0,44,45
 134 510 134 510 134 523 c 0,46,47
 134 525 134 525 136 529 c 2,48,-1
 199 637 l 2,49,50
 211 659 211 659 228.5 659 c 128,-1,51
 246 659 246 659 255.5 650.5 c 128,-1,52
 265 642 265 642 265 628 c 128,-1,53
 265 614 265 614 249 599 c 2,54,-1
 157 514 l 2,55,56
 153 510 153 510 147 510 c 0,44,45
EndSplineSet
EndChar

StartChar: acircumflex
Encoding: 226 226 150
Width: 434
GlyphClass: 2
Flags: W
LayerCount: 2
Fore
SplineSet
188 492 m 0,0,1
 274 492 274 492 321.5 436 c 128,-1,2
 369 380 369 380 369 293 c 0,3,4
 369 155 369 155 379 106.5 c 128,-1,5
 389 58 389 58 417 38 c 1,6,7
 434 30 434 30 434 16 c 0,8,9
 434 -10 434 -10 410 -10 c 128,-1,10
 386 -10 386 -10 364.5 12.5 c 128,-1,11
 343 35 343 35 330 68 c 1,12,13
 313 35 313 35 275.5 12.5 c 128,-1,14
 238 -10 238 -10 186 -10 c 0,15,16
 110 -10 110 -10 62.5 37.5 c 128,-1,17
 15 85 15 85 15 158.5 c 128,-1,18
 15 232 15 232 65 284 c 128,-1,19
 115 336 115 336 189.5 336 c 128,-1,20
 264 336 264 336 314 287 c 1,21,22
 314 357 314 357 284 404.5 c 128,-1,23
 254 452 254 452 192 452 c 128,-1,24
 130 452 130 452 114 418 c 1,25,26
 123 397 123 397 123 383 c 128,-1,27
 123 369 123 369 111 353 c 128,-1,28
 99 337 99 337 81.5 337 c 128,-1,29
 64 337 64 337 54 352 c 128,-1,30
 44 367 44 367 44 387 c 0,31,32
 44 429 44 429 85.5 460.5 c 128,-1,33
 127 492 127 492 188 492 c 0,0,1
107 71 m 128,-1,35
 144 34 144 34 195.5 34 c 128,-1,36
 247 34 247 34 282 69.5 c 128,-1,37
 317 105 317 105 317 156 c 2,38,-1
 317 165 l 2,39,40
 317 219 317 219 281 254 c 128,-1,41
 245 289 245 289 192.5 289 c 128,-1,42
 140 289 140 289 105 253.5 c 128,-1,43
 70 218 70 218 70 163 c 128,-1,34
 70 108 70 108 107 71 c 128,-1,35
313 558 m 1,44,45
 322 550 322 550 322 540 c 128,-1,46
 322 530 322 530 315 524 c 128,-1,47
 308 518 308 518 298 518 c 128,-1,48
 288 518 288 518 279 524 c 2,49,-1
 190 589 l 1,50,-1
 102 524 l 2,51,52
 95 518 95 518 84.5 518 c 128,-1,53
 74 518 74 518 67 524.5 c 128,-1,54
 60 531 60 531 60 542 c 128,-1,55
 60 553 60 553 68 558 c 2,56,-1
 190 648 l 1,57,-1
 313 558 l 1,44,45
EndSplineSet
EndChar

StartChar: atilde
Encoding: 227 227 151
Width: 434
GlyphClass: 2
Flags: W
LayerCount: 2
Fore
SplineSet
188 492 m 0,0,1
 274 492 274 492 321.5 436 c 128,-1,2
 369 380 369 380 369 293 c 0,3,4
 369 155 369 155 379 106.5 c 128,-1,5
 389 58 389 58 417 38 c 1,6,7
 434 30 434 30 434 16 c 0,8,9
 434 -10 434 -10 410 -10 c 128,-1,10
 386 -10 386 -10 364.5 12.5 c 128,-1,11
 343 35 343 35 330 68 c 1,12,13
 313 35 313 35 275.5 12.5 c 128,-1,14
 238 -10 238 -10 186 -10 c 0,15,16
 110 -10 110 -10 62.5 37.5 c 128,-1,17
 15 85 15 85 15 158.5 c 128,-1,18
 15 232 15 232 65 284 c 128,-1,19
 115 336 115 336 189.5 336 c 128,-1,20
 264 336 264 336 314 287 c 1,21,22
 314 357 314 357 284 404.5 c 128,-1,23
 254 452 254 452 192 452 c 128,-1,24
 130 452 130 452 114 418 c 1,25,26
 123 397 123 397 123 383 c 128,-1,27
 123 369 123 369 111 353 c 128,-1,28
 99 337 99 337 81.5 337 c 128,-1,29
 64 337 64 337 54 352 c 128,-1,30
 44 367 44 367 44 387 c 0,31,32
 44 429 44 429 85.5 460.5 c 128,-1,33
 127 492 127 492 188 492 c 0,0,1
107 71 m 128,-1,35
 144 34 144 34 195.5 34 c 128,-1,36
 247 34 247 34 282 69.5 c 128,-1,37
 317 105 317 105 317 156 c 2,38,-1
 317 165 l 2,39,40
 317 219 317 219 281 254 c 128,-1,41
 245 289 245 289 192.5 289 c 128,-1,42
 140 289 140 289 105 253.5 c 128,-1,43
 70 218 70 218 70 163 c 128,-1,34
 70 108 70 108 107 71 c 128,-1,35
62 534.5 m 128,-1,45
 51 548 51 548 51 573 c 128,-1,46
 51 598 51 598 75.5 614.5 c 128,-1,47
 100 631 100 631 127 631 c 128,-1,48
 154 631 154 631 177.5 621 c 128,-1,49
 201 611 201 611 212 602 c 128,-1,50
 223 593 223 593 241 576 c 1,51,52
 268 547 268 547 280.5 547 c 128,-1,53
 293 547 293 547 301.5 554.5 c 128,-1,54
 310 562 310 562 311 573 c 1,55,56
 296 583 296 583 296 601 c 0,57,58
 296 625 296 625 319 625 c 0,59,60
 333 625 333 625 345 613.5 c 128,-1,61
 357 602 357 602 357 575.5 c 128,-1,62
 357 549 357 549 333 532 c 128,-1,63
 309 515 309 515 281.5 515 c 128,-1,64
 254 515 254 515 232 524.5 c 128,-1,65
 210 534 210 534 200.5 543 c 128,-1,66
 191 552 191 552 175 569 c 0,67,68
 147 601 147 601 124 601 c 0,69,70
 114 601 114 601 105.5 594 c 128,-1,71
 97 587 97 587 96 576 c 1,72,73
 111 566 111 566 111 543.5 c 128,-1,74
 111 521 111 521 89 521 c 0,75,44
 73 521 73 521 62 534.5 c 128,-1,45
EndSplineSet
EndChar

StartChar: adieresis
Encoding: 228 228 152
Width: 434
GlyphClass: 2
Flags: W
LayerCount: 2
Fore
SplineSet
188 492 m 0,0,1
 274 492 274 492 321.5 436 c 128,-1,2
 369 380 369 380 369 293 c 0,3,4
 369 155 369 155 379 106.5 c 128,-1,5
 389 58 389 58 417 38 c 1,6,7
 434 30 434 30 434 16 c 0,8,9
 434 -10 434 -10 410 -10 c 128,-1,10
 386 -10 386 -10 364.5 12.5 c 128,-1,11
 343 35 343 35 330 68 c 1,12,13
 313 35 313 35 275.5 12.5 c 128,-1,14
 238 -10 238 -10 186 -10 c 0,15,16
 110 -10 110 -10 62.5 37.5 c 128,-1,17
 15 85 15 85 15 158.5 c 128,-1,18
 15 232 15 232 65 284 c 128,-1,19
 115 336 115 336 189.5 336 c 128,-1,20
 264 336 264 336 314 287 c 1,21,22
 314 357 314 357 284 404.5 c 128,-1,23
 254 452 254 452 192 452 c 128,-1,24
 130 452 130 452 114 418 c 1,25,26
 123 397 123 397 123 383 c 128,-1,27
 123 369 123 369 111 353 c 128,-1,28
 99 337 99 337 81.5 337 c 128,-1,29
 64 337 64 337 54 352 c 128,-1,30
 44 367 44 367 44 387 c 0,31,32
 44 429 44 429 85.5 460.5 c 128,-1,33
 127 492 127 492 188 492 c 0,0,1
107 71 m 128,-1,35
 144 34 144 34 195.5 34 c 128,-1,36
 247 34 247 34 282 69.5 c 128,-1,37
 317 105 317 105 317 156 c 2,38,-1
 317 165 l 2,39,40
 317 219 317 219 281 254 c 128,-1,41
 245 289 245 289 192.5 289 c 128,-1,42
 140 289 140 289 105 253.5 c 128,-1,43
 70 218 70 218 70 163 c 128,-1,34
 70 108 70 108 107 71 c 128,-1,35
127.5 595.5 m 128,-1,45
 140 584 140 584 140 566.5 c 128,-1,46
 140 549 140 549 127 537 c 128,-1,47
 114 525 114 525 96 525 c 128,-1,48
 78 525 78 525 66 537 c 128,-1,49
 54 549 54 549 54 566.5 c 128,-1,50
 54 584 54 584 66 595.5 c 128,-1,51
 78 607 78 607 96.5 607 c 128,-1,44
 115 607 115 607 127.5 595.5 c 128,-1,45
318.5 595.5 m 128,-1,53
 331 584 331 584 331 566.5 c 128,-1,54
 331 549 331 549 318 537 c 128,-1,55
 305 525 305 525 287 525 c 128,-1,56
 269 525 269 525 257 537 c 128,-1,57
 245 549 245 549 245 566.5 c 128,-1,58
 245 584 245 584 257 595.5 c 128,-1,59
 269 607 269 607 287.5 607 c 128,-1,52
 306 607 306 607 318.5 595.5 c 128,-1,53
EndSplineSet
EndChar

StartChar: aring
Encoding: 229 229 153
Width: 434
GlyphClass: 2
Flags: W
LayerCount: 2
Fore
SplineSet
188 492 m 0,0,1
 274 492 274 492 321.5 436 c 128,-1,2
 369 380 369 380 369 293 c 0,3,4
 369 155 369 155 379 106.5 c 128,-1,5
 389 58 389 58 417 38 c 1,6,7
 434 30 434 30 434 16 c 0,8,9
 434 -10 434 -10 410 -10 c 128,-1,10
 386 -10 386 -10 364.5 12.5 c 128,-1,11
 343 35 343 35 330 68 c 1,12,13
 313 35 313 35 275.5 12.5 c 128,-1,14
 238 -10 238 -10 186 -10 c 0,15,16
 110 -10 110 -10 62.5 37.5 c 128,-1,17
 15 85 15 85 15 158.5 c 128,-1,18
 15 232 15 232 65 284 c 128,-1,19
 115 336 115 336 189.5 336 c 128,-1,20
 264 336 264 336 314 287 c 1,21,22
 314 357 314 357 284 404.5 c 128,-1,23
 254 452 254 452 192 452 c 128,-1,24
 130 452 130 452 114 418 c 1,25,26
 123 397 123 397 123 383 c 128,-1,27
 123 369 123 369 111 353 c 128,-1,28
 99 337 99 337 81.5 337 c 128,-1,29
 64 337 64 337 54 352 c 128,-1,30
 44 367 44 367 44 387 c 0,31,32
 44 429 44 429 85.5 460.5 c 128,-1,33
 127 492 127 492 188 492 c 0,0,1
107 71 m 128,-1,35
 144 34 144 34 195.5 34 c 128,-1,36
 247 34 247 34 282 69.5 c 128,-1,37
 317 105 317 105 317 156 c 2,38,-1
 317 165 l 2,39,40
 317 219 317 219 281 254 c 128,-1,41
 245 289 245 289 192.5 289 c 128,-1,42
 140 289 140 289 105 253.5 c 128,-1,43
 70 218 70 218 70 163 c 128,-1,34
 70 108 70 108 107 71 c 128,-1,35
126.5 533.5 m 128,-1,45
 104 557 104 557 104 593 c 128,-1,46
 104 629 104 629 125.5 652.5 c 128,-1,47
 147 676 147 676 189 676 c 128,-1,48
 231 676 231 676 253 652 c 128,-1,49
 275 628 275 628 275 592.5 c 128,-1,50
 275 557 275 557 253 533.5 c 128,-1,51
 231 510 231 510 190 510 c 128,-1,44
 149 510 149 510 126.5 533.5 c 128,-1,45
230 592 m 0,52,53
 230 615 230 615 219 630.5 c 128,-1,54
 208 646 208 646 189 646 c 0,55,56
 149 646 149 646 149 593 c 128,-1,57
 149 540 149 540 189.5 540 c 128,-1,58
 230 540 230 540 230 592 c 0,52,53
EndSplineSet
EndChar

StartChar: ae
Encoding: 230 230 154
Width: 662
GlyphClass: 2
Flags: W
LayerCount: 2
Fore
SplineSet
494 -10 m 0,0,1
 391 -10 391 -10 346 84 c 1,2,3
 287 -10 287 -10 186 -10 c 0,4,5
 110 -10 110 -10 62.5 37.5 c 128,-1,6
 15 85 15 85 15 158.5 c 128,-1,7
 15 232 15 232 65 284 c 128,-1,8
 115 336 115 336 189.5 336 c 128,-1,9
 264 336 264 336 314 287 c 1,10,11
 314 357 314 357 284 404.5 c 128,-1,12
 254 452 254 452 192 452 c 128,-1,13
 130 452 130 452 114 418 c 1,14,15
 123 397 123 397 123 383 c 128,-1,16
 123 369 123 369 111 353 c 128,-1,17
 99 337 99 337 81.5 337 c 128,-1,18
 64 337 64 337 54 352 c 128,-1,19
 44 367 44 367 44 387 c 0,20,21
 44 429 44 429 85.5 460.5 c 128,-1,22
 127 492 127 492 188 492 c 0,23,24
 298 492 298 492 345 397 c 1,25,26
 388 488 388 488 484 488 c 0,27,28
 528 488 528 488 563 468.5 c 128,-1,29
 598 449 598 449 618 420 c 0,30,31
 657 361 657 361 657 308 c 0,32,33
 657 280 657 280 631 280 c 2,34,-1
 364 280 l 1,35,-1
 364 241 l 1,36,37
 365 149 365 149 399.5 92 c 128,-1,38
 434 35 434 35 494 35 c 0,39,40
 521 35 521 35 543 49.5 c 128,-1,41
 565 64 565 64 574 77.5 c 128,-1,42
 583 91 583 91 594.5 114 c 128,-1,43
 606 137 606 137 626 137 c 0,44,45
 656 137 656 137 656 110 c 0,46,47
 656 75 656 75 611.5 32.5 c 128,-1,48
 567 -10 567 -10 494 -10 c 0,0,1
107 71 m 128,-1,50
 144 34 144 34 195.5 34 c 128,-1,51
 247 34 247 34 282 69.5 c 128,-1,52
 317 105 317 105 317 156 c 2,53,-1
 317 165 l 2,54,55
 317 219 317 219 281 254 c 128,-1,56
 245 289 245 289 192.5 289 c 128,-1,57
 140 289 140 289 105 253.5 c 128,-1,58
 70 218 70 218 70 163 c 128,-1,49
 70 108 70 108 107 71 c 128,-1,50
563 407 m 128,-1,60
 531 444 531 444 484 444 c 128,-1,61
 437 444 437 444 408.5 410 c 128,-1,62
 380 376 380 376 368 330 c 1,63,-1
 599 330 l 1,64,59
 595 370 595 370 563 407 c 128,-1,60
EndSplineSet
EndChar

StartChar: ccedilla
Encoding: 231 231 155
Width: 380
GlyphClass: 2
Flags: W
LayerCount: 2
Fore
SplineSet
193 -70 m 2,0,-1
 193 -8 l 1,1,2
 114 3 114 3 67 72.5 c 128,-1,3
 20 142 20 142 20 245.5 c 128,-1,4
 20 349 20 349 73 419.5 c 128,-1,5
 126 490 126 490 208 490 c 0,6,7
 253 490 253 490 287 468.5 c 128,-1,8
 321 447 321 447 321 412 c 0,9,10
 321 394 321 394 311.5 382 c 128,-1,11
 302 370 302 370 284 370 c 128,-1,12
 266 370 266 370 252 390.5 c 128,-1,13
 238 411 238 411 237 438 c 1,14,15
 221 445 221 445 209 445 c 0,16,17
 154 445 154 445 115 388.5 c 128,-1,18
 76 332 76 332 76 242.5 c 128,-1,19
 76 153 76 153 117.5 94.5 c 128,-1,20
 159 36 159 36 220 36 c 128,-1,21
 281 36 281 36 317 113 c 0,22,23
 328 137 328 137 348 137 c 0,24,25
 364 137 364 137 372 128.5 c 128,-1,26
 380 120 380 120 380 110 c 0,27,28
 380 78 380 78 341 37.5 c 128,-1,29
 302 -3 302 -3 239 -9 c 1,30,-1
 239 -42 l 1,31,32
 270 -43 270 -43 293 -63.5 c 128,-1,33
 316 -84 316 -84 316 -119 c 128,-1,34
 316 -154 316 -154 293.5 -177 c 128,-1,35
 271 -200 271 -200 241 -200 c 128,-1,36
 211 -200 211 -200 193 -185.5 c 128,-1,37
 175 -171 175 -171 175 -150 c 0,38,39
 175 -117 175 -117 203 -117 c 1,40,41
 227 -119 227 -119 227 -150 c 0,42,43
 227 -157 227 -157 221 -166 c 1,44,45
 226 -170 226 -170 237 -170 c 0,46,47
 276 -170 276 -170 276 -123 c 0,48,49
 276 -100 276 -100 264.5 -89.5 c 128,-1,50
 253 -79 253 -79 240 -78 c 1,51,52
 233 -92 233 -92 217 -92 c 0,53,54
 193 -92 193 -92 193 -70 c 2,0,-1
EndSplineSet
EndChar

StartChar: egrave
Encoding: 232 232 156
Width: 384
GlyphClass: 2
Flags: W
LayerCount: 2
Fore
SplineSet
290 409 m 128,-1,1
 258 446 258 446 210.5 446 c 128,-1,2
 163 446 163 446 132 411 c 128,-1,3
 101 376 101 376 89 332 c 1,4,-1
 326 332 l 1,5,0
 322 372 322 372 290 409 c 128,-1,1
221 -10 m 0,6,7
 130 -10 130 -10 75 61 c 128,-1,8
 20 132 20 132 20 242 c 128,-1,9
 20 352 20 352 72.5 421 c 128,-1,10
 125 490 125 490 211 490 c 0,11,12
 255 490 255 490 290 470.5 c 128,-1,13
 325 451 325 451 344 422 c 0,14,15
 384 363 384 363 384 310 c 0,16,17
 384 282 384 282 358 282 c 2,18,-1
 78 282 l 1,19,20
 76 269 76 269 76 245 c 0,21,22
 76 153 76 153 117.5 94 c 128,-1,23
 159 35 159 35 221 35 c 0,24,25
 248 35 248 35 270 49.5 c 128,-1,26
 292 64 292 64 301 77.5 c 128,-1,27
 310 91 310 91 321.5 114 c 128,-1,28
 333 137 333 137 353 137 c 0,29,30
 383 137 383 137 383 110 c 0,31,32
 383 75 383 75 338.5 32.5 c 128,-1,33
 294 -10 294 -10 221 -10 c 0,6,7
259 510 m 0,34,35
 253 510 253 510 249 514 c 2,36,-1
 157 599 l 2,37,38
 141 614 141 614 141 628 c 128,-1,39
 141 642 141 642 150.5 650.5 c 128,-1,40
 160 659 160 659 177.5 659 c 128,-1,41
 195 659 195 659 207 637 c 2,42,-1
 270 529 l 2,43,44
 272 525 272 525 272 523 c 0,45,46
 272 510 272 510 259 510 c 0,34,35
EndSplineSet
EndChar

StartChar: eacute
Encoding: 233 233 157
Width: 384
GlyphClass: 2
Flags: W
LayerCount: 2
Fore
SplineSet
290 409 m 128,-1,1
 258 446 258 446 210.5 446 c 128,-1,2
 163 446 163 446 132 411 c 128,-1,3
 101 376 101 376 89 332 c 1,4,-1
 326 332 l 1,5,0
 322 372 322 372 290 409 c 128,-1,1
221 -10 m 0,6,7
 130 -10 130 -10 75 61 c 128,-1,8
 20 132 20 132 20 242 c 128,-1,9
 20 352 20 352 72.5 421 c 128,-1,10
 125 490 125 490 211 490 c 0,11,12
 255 490 255 490 290 470.5 c 128,-1,13
 325 451 325 451 344 422 c 0,14,15
 384 363 384 363 384 310 c 0,16,17
 384 282 384 282 358 282 c 2,18,-1
 78 282 l 1,19,20
 76 269 76 269 76 245 c 0,21,22
 76 153 76 153 117.5 94 c 128,-1,23
 159 35 159 35 221 35 c 0,24,25
 248 35 248 35 270 49.5 c 128,-1,26
 292 64 292 64 301 77.5 c 128,-1,27
 310 91 310 91 321.5 114 c 128,-1,28
 333 137 333 137 353 137 c 0,29,30
 383 137 383 137 383 110 c 0,31,32
 383 75 383 75 338.5 32.5 c 128,-1,33
 294 -10 294 -10 221 -10 c 0,6,7
160 510 m 0,34,35
 147 510 147 510 147 523 c 0,36,37
 147 525 147 525 149 529 c 2,38,-1
 212 637 l 2,39,40
 224 659 224 659 241.5 659 c 128,-1,41
 259 659 259 659 268.5 650.5 c 128,-1,42
 278 642 278 642 278 628 c 128,-1,43
 278 614 278 614 262 599 c 2,44,-1
 170 514 l 2,45,46
 166 510 166 510 160 510 c 0,34,35
EndSplineSet
EndChar

StartChar: ecircumflex
Encoding: 234 234 158
Width: 384
GlyphClass: 2
Flags: W
LayerCount: 2
Fore
SplineSet
290 409 m 128,-1,1
 258 446 258 446 210.5 446 c 128,-1,2
 163 446 163 446 132 411 c 128,-1,3
 101 376 101 376 89 332 c 1,4,-1
 326 332 l 1,5,0
 322 372 322 372 290 409 c 128,-1,1
221 -10 m 0,6,7
 130 -10 130 -10 75 61 c 128,-1,8
 20 132 20 132 20 242 c 128,-1,9
 20 352 20 352 72.5 421 c 128,-1,10
 125 490 125 490 211 490 c 0,11,12
 255 490 255 490 290 470.5 c 128,-1,13
 325 451 325 451 344 422 c 0,14,15
 384 363 384 363 384 310 c 0,16,17
 384 282 384 282 358 282 c 2,18,-1
 78 282 l 1,19,20
 76 269 76 269 76 245 c 0,21,22
 76 153 76 153 117.5 94 c 128,-1,23
 159 35 159 35 221 35 c 0,24,25
 248 35 248 35 270 49.5 c 128,-1,26
 292 64 292 64 301 77.5 c 128,-1,27
 310 91 310 91 321.5 114 c 128,-1,28
 333 137 333 137 353 137 c 0,29,30
 383 137 383 137 383 110 c 0,31,32
 383 75 383 75 338.5 32.5 c 128,-1,33
 294 -10 294 -10 221 -10 c 0,6,7
334 558 m 1,34,35
 343 550 343 550 343 540 c 128,-1,36
 343 530 343 530 336 524 c 128,-1,37
 329 518 329 518 319 518 c 128,-1,38
 309 518 309 518 300 524 c 2,39,-1
 211 589 l 1,40,-1
 123 524 l 2,41,42
 115 518 115 518 105 518 c 128,-1,43
 95 518 95 518 88 524.5 c 128,-1,44
 81 531 81 531 81 542 c 128,-1,45
 81 553 81 553 89 558 c 2,46,-1
 211 648 l 1,47,-1
 334 558 l 1,34,35
EndSplineSet
EndChar

StartChar: edieresis
Encoding: 235 235 159
Width: 384
GlyphClass: 2
Flags: W
LayerCount: 2
Fore
SplineSet
290 409 m 128,-1,1
 258 446 258 446 210.5 446 c 128,-1,2
 163 446 163 446 132 411 c 128,-1,3
 101 376 101 376 89 332 c 1,4,-1
 326 332 l 1,5,0
 322 372 322 372 290 409 c 128,-1,1
221 -10 m 0,6,7
 130 -10 130 -10 75 61 c 128,-1,8
 20 132 20 132 20 242 c 128,-1,9
 20 352 20 352 72.5 421 c 128,-1,10
 125 490 125 490 211 490 c 0,11,12
 255 490 255 490 290 470.5 c 128,-1,13
 325 451 325 451 344 422 c 0,14,15
 384 363 384 363 384 310 c 0,16,17
 384 282 384 282 358 282 c 2,18,-1
 78 282 l 1,19,20
 76 269 76 269 76 245 c 0,21,22
 76 153 76 153 117.5 94 c 128,-1,23
 159 35 159 35 221 35 c 0,24,25
 248 35 248 35 270 49.5 c 128,-1,26
 292 64 292 64 301 77.5 c 128,-1,27
 310 91 310 91 321.5 114 c 128,-1,28
 333 137 333 137 353 137 c 0,29,30
 383 137 383 137 383 110 c 0,31,32
 383 75 383 75 338.5 32.5 c 128,-1,33
 294 -10 294 -10 221 -10 c 0,6,7
140.5 595.5 m 128,-1,35
 153 584 153 584 153 566.5 c 128,-1,36
 153 549 153 549 140 537 c 128,-1,37
 127 525 127 525 109 525 c 128,-1,38
 91 525 91 525 79 537 c 128,-1,39
 67 549 67 549 67 566.5 c 128,-1,40
 67 584 67 584 79 595.5 c 128,-1,41
 91 607 91 607 109.5 607 c 128,-1,34
 128 607 128 607 140.5 595.5 c 128,-1,35
331.5 595.5 m 128,-1,43
 344 584 344 584 344 566.5 c 128,-1,44
 344 549 344 549 331 537 c 128,-1,45
 318 525 318 525 300 525 c 128,-1,46
 282 525 282 525 270 537 c 128,-1,47
 258 549 258 549 258 566.5 c 128,-1,48
 258 584 258 584 270 595.5 c 128,-1,49
 282 607 282 607 300.5 607 c 128,-1,42
 319 607 319 607 331.5 595.5 c 128,-1,43
EndSplineSet
EndChar

StartChar: igrave
Encoding: 236 236 160
Width: 214
GlyphClass: 2
Flags: W
LayerCount: 2
Fore
SplineSet
80 429 m 1,0,-1
 54 429 l 2,1,2
 42 429 42 429 35 436.5 c 128,-1,3
 28 444 28 444 28 454 c 0,4,5
 28 480 28 480 54 480 c 2,6,-1
 104 480 l 2,7,8
 135 480 135 480 136 453 c 1,9,-1
 136 52 l 1,10,-1
 161 52 l 2,11,12
 173 52 173 52 179.5 44 c 128,-1,13
 186 36 186 36 186 26 c 0,14,15
 186 0 186 0 161 0 c 2,16,-1
 55 0 l 2,17,18
 45 0 45 0 37.5 7.5 c 128,-1,19
 30 15 30 15 30 25 c 128,-1,20
 30 35 30 35 37.5 43.5 c 128,-1,21
 45 52 45 52 55 52 c 2,22,-1
 80 53 l 1,23,-1
 80 429 l 1,0,-1
139 510 m 0,24,25
 133 510 133 510 129 514 c 2,26,-1
 37 599 l 2,27,28
 21 614 21 614 21 628 c 128,-1,29
 21 642 21 642 30.5 650.5 c 128,-1,30
 40 659 40 659 57.5 659 c 128,-1,31
 75 659 75 659 87 637 c 2,32,-1
 150 529 l 2,33,34
 152 525 152 525 152 523 c 0,35,36
 152 510 152 510 139 510 c 0,24,25
EndSplineSet
EndChar

StartChar: iacute
Encoding: 237 237 161
Width: 214
GlyphClass: 2
Flags: W
LayerCount: 2
Fore
SplineSet
80 429 m 1,0,-1
 54 429 l 2,1,2
 42 429 42 429 35 436.5 c 128,-1,3
 28 444 28 444 28 454 c 0,4,5
 28 480 28 480 54 480 c 2,6,-1
 104 480 l 2,7,8
 135 480 135 480 136 453 c 1,9,-1
 136 52 l 1,10,-1
 161 52 l 2,11,12
 173 52 173 52 179.5 44 c 128,-1,13
 186 36 186 36 186 26 c 0,14,15
 186 0 186 0 161 0 c 2,16,-1
 55 0 l 2,17,18
 45 0 45 0 37.5 7.5 c 128,-1,19
 30 15 30 15 30 25 c 128,-1,20
 30 35 30 35 37.5 43.5 c 128,-1,21
 45 52 45 52 55 52 c 2,22,-1
 80 53 l 1,23,-1
 80 429 l 1,0,-1
38 510 m 0,24,25
 25 510 25 510 25 523 c 0,26,27
 25 525 25 525 27 529 c 2,28,-1
 90 637 l 2,29,30
 102 659 102 659 119.5 659 c 128,-1,31
 137 659 137 659 146.5 650.5 c 128,-1,32
 156 642 156 642 156 628 c 128,-1,33
 156 614 156 614 140 599 c 2,34,-1
 48 514 l 2,35,36
 44 510 44 510 38 510 c 0,24,25
EndSplineSet
EndChar

StartChar: icircumflex
Encoding: 238 238 162
Width: 214
GlyphClass: 2
Flags: W
LayerCount: 2
Fore
SplineSet
80 429 m 1,0,-1
 54 429 l 2,1,2
 42 429 42 429 35 436.5 c 128,-1,3
 28 444 28 444 28 454 c 0,4,5
 28 480 28 480 54 480 c 2,6,-1
 104 480 l 2,7,8
 135 480 135 480 136 453 c 1,9,-1
 136 52 l 1,10,-1
 161 52 l 2,11,12
 173 52 173 52 179.5 44 c 128,-1,13
 186 36 186 36 186 26 c 0,14,15
 186 0 186 0 161 0 c 2,16,-1
 55 0 l 2,17,18
 45 0 45 0 37.5 7.5 c 128,-1,19
 30 15 30 15 30 25 c 128,-1,20
 30 35 30 35 37.5 43.5 c 128,-1,21
 45 52 45 52 55 52 c 2,22,-1
 80 53 l 1,23,-1
 80 429 l 1,0,-1
213 558 m 1,24,25
 222 550 222 550 222 540 c 128,-1,26
 222 530 222 530 215 524 c 128,-1,27
 208 518 208 518 198 518 c 128,-1,28
 188 518 188 518 179 524 c 2,29,-1
 90 589 l 1,30,-1
 2 524 l 2,31,32
 -5 518 -5 518 -15.5 518 c 128,-1,33
 -26 518 -26 518 -33 524.5 c 128,-1,34
 -40 531 -40 531 -40 542 c 128,-1,35
 -40 553 -40 553 -32 558 c 2,36,-1
 90 648 l 1,37,-1
 213 558 l 1,24,25
EndSplineSet
EndChar

StartChar: idieresis
Encoding: 239 239 163
Width: 214
GlyphClass: 2
Flags: W
LayerCount: 2
Fore
SplineSet
80 429 m 1,0,-1
 54 429 l 2,1,2
 42 429 42 429 35 436.5 c 128,-1,3
 28 444 28 444 28 454 c 0,4,5
 28 480 28 480 54 480 c 2,6,-1
 104 480 l 2,7,8
 135 480 135 480 136 453 c 1,9,-1
 136 52 l 1,10,-1
 161 52 l 2,11,12
 173 52 173 52 179.5 44 c 128,-1,13
 186 36 186 36 186 26 c 0,14,15
 186 0 186 0 161 0 c 2,16,-1
 55 0 l 2,17,18
 45 0 45 0 37.5 7.5 c 128,-1,19
 30 15 30 15 30 25 c 128,-1,20
 30 35 30 35 37.5 43.5 c 128,-1,21
 45 52 45 52 55 52 c 2,22,-1
 80 53 l 1,23,-1
 80 429 l 1,0,-1
29.5 598.5 m 128,-1,25
 42 587 42 587 42 569.5 c 128,-1,26
 42 552 42 552 29 540 c 128,-1,27
 16 528 16 528 -2 528 c 128,-1,28
 -20 528 -20 528 -32 540 c 128,-1,29
 -44 552 -44 552 -44 569.5 c 128,-1,30
 -44 587 -44 587 -32 598.5 c 128,-1,31
 -20 610 -20 610 -1.5 610 c 128,-1,24
 17 610 17 610 29.5 598.5 c 128,-1,25
220.5 598.5 m 128,-1,33
 233 587 233 587 233 569.5 c 128,-1,34
 233 552 233 552 220 540 c 128,-1,35
 207 528 207 528 189 528 c 128,-1,36
 171 528 171 528 159 540 c 128,-1,37
 147 552 147 552 147 569.5 c 128,-1,38
 147 587 147 587 159 598.5 c 128,-1,39
 171 610 171 610 189.5 610 c 128,-1,32
 208 610 208 610 220.5 598.5 c 128,-1,33
EndSplineSet
EndChar

StartChar: eth
Encoding: 240 240 164
Width: 409
GlyphClass: 2
Flags: W
LayerCount: 2
Fore
SplineSet
389 255 m 2,0,-1
 389 237 l 2,1,2
 389 119 389 119 339.5 56 c 128,-1,3
 290 -7 290 -7 202 -7 c 128,-1,4
 114 -7 114 -7 64.5 58.5 c 128,-1,5
 15 124 15 124 15 231 c 128,-1,6
 15 338 15 338 63 405.5 c 128,-1,7
 111 473 111 473 195 473 c 0,8,9
 241 473 241 473 278.5 451 c 128,-1,10
 316 429 316 429 337 396 c 1,11,12
 337 487 337 487 285 552 c 1,13,-1
 203 517 l 2,14,15
 197 515 197 515 192 515 c 128,-1,16
 187 515 187 515 181.5 522.5 c 128,-1,17
 176 530 176 530 176 541 c 128,-1,18
 176 552 176 552 188 556 c 2,19,-1
 252 583 l 1,20,21
 222 603 222 603 189 603 c 0,22,23
 132 603 132 603 116 569 c 1,24,25
 125 548 125 548 125 534 c 128,-1,26
 125 520 125 520 113 504 c 128,-1,27
 101 488 101 488 83.5 488 c 128,-1,28
 66 488 66 488 56 503 c 128,-1,29
 46 518 46 518 46 538 c 0,30,31
 46 580 46 580 87.5 611.5 c 128,-1,32
 129 643 129 643 191.5 643 c 128,-1,33
 254 643 254 643 300 603 c 1,34,-1
 360 629 l 2,35,36
 366 631 366 631 371.5 631 c 128,-1,37
 377 631 377 631 382.5 623.5 c 128,-1,38
 388 616 388 616 388 605 c 128,-1,39
 388 594 388 594 375 590 c 1,40,-1
 330 571 l 1,41,42
 363 526 363 526 376 464.5 c 128,-1,43
 389 403 389 403 389 255 c 2,0,-1
101.5 96.5 m 128,-1,45
 133 38 133 38 196.5 38 c 128,-1,46
 260 38 260 38 298.5 85 c 128,-1,47
 337 132 337 132 337 225.5 c 128,-1,48
 337 319 337 319 301 373.5 c 128,-1,49
 265 428 265 428 201 428 c 0,50,51
 165 428 165 428 138 409.5 c 128,-1,52
 111 391 111 391 97 361 c 0,53,54
 70 303 70 303 70 229 c 128,-1,44
 70 155 70 155 101.5 96.5 c 128,-1,45
EndSplineSet
EndChar

StartChar: ntilde
Encoding: 241 241 165
Width: 519
GlyphClass: 2
Flags: W
LayerCount: 2
Fore
SplineSet
145 52 m 1,0,-1
 174 52 l 2,1,2
 185 52 185 52 192 44 c 128,-1,3
 199 36 199 36 199 26 c 128,-1,4
 199 16 199 16 192 8 c 128,-1,5
 185 0 185 0 174 0 c 2,6,-1
 57 0 l 2,7,8
 46 0 46 0 39.5 7.5 c 128,-1,9
 33 15 33 15 33 25.5 c 128,-1,10
 33 36 33 36 39.5 44 c 128,-1,11
 46 52 46 52 57 52 c 2,12,-1
 89 52 l 1,13,-1
 89 428 l 1,14,-1
 48 428 l 2,15,16
 37 428 37 428 31 435.5 c 128,-1,17
 25 443 25 443 25 455 c 128,-1,18
 25 467 25 467 32.5 473.5 c 128,-1,19
 40 480 40 480 48 480 c 2,20,-1
 125 480 l 2,21,22
 136 480 136 480 140 476 c 128,-1,23
 144 472 144 472 144 461 c 2,24,-1
 144 386 l 1,25,26
 171 431 171 431 213 459 c 128,-1,27
 255 487 255 487 301 487 c 0,28,29
 377 487 377 487 409 441.5 c 128,-1,30
 441 396 441 396 441 329 c 2,31,-1
 441 52 l 1,32,-1
 469 52 l 2,33,34
 480 52 480 52 487 44 c 128,-1,35
 494 36 494 36 494 26 c 128,-1,36
 494 16 494 16 487 8 c 128,-1,37
 480 0 480 0 469 0 c 2,38,-1
 361 0 l 2,39,40
 337 0 337 0 337 26 c 128,-1,41
 337 52 337 52 361 52 c 2,42,-1
 385 52 l 1,43,-1
 385 334 l 2,44,45
 385 440 385 440 300 440 c 0,46,47
 243 440 243 440 194 387 c 128,-1,48
 145 334 145 334 145 255 c 2,49,-1
 145 52 l 1,0,-1
117 534.5 m 128,-1,51
 106 548 106 548 106 573 c 128,-1,52
 106 598 106 598 130.5 614.5 c 128,-1,53
 155 631 155 631 182 631 c 128,-1,54
 209 631 209 631 232.5 621 c 128,-1,55
 256 611 256 611 267 602 c 128,-1,56
 278 593 278 593 296 576 c 1,57,58
 323 547 323 547 335.5 547 c 128,-1,59
 348 547 348 547 356.5 554.5 c 128,-1,60
 365 562 365 562 366 573 c 1,61,62
 351 583 351 583 351 601 c 0,63,64
 351 625 351 625 374 625 c 0,65,66
 388 625 388 625 400 613.5 c 128,-1,67
 412 602 412 602 412 575.5 c 128,-1,68
 412 549 412 549 388 532 c 128,-1,69
 364 515 364 515 336.5 515 c 128,-1,70
 309 515 309 515 287 524.5 c 128,-1,71
 265 534 265 534 255.5 543 c 128,-1,72
 246 552 246 552 230 569 c 0,73,74
 202 601 202 601 179 601 c 0,75,76
 170 601 170 601 161 594 c 128,-1,77
 152 587 152 587 151 576 c 1,78,79
 166 566 166 566 166 543.5 c 128,-1,80
 166 521 166 521 144 521 c 0,81,50
 128 521 128 521 117 534.5 c 128,-1,51
EndSplineSet
EndChar

StartChar: ograve
Encoding: 242 242 166
Width: 485
GlyphClass: 2
Flags: W
LayerCount: 2
Fore
SplineSet
76.5 418.5 m 128,-1,1
 138 488 138 488 242.5 488 c 128,-1,2
 347 488 347 488 408.5 419 c 128,-1,3
 470 350 470 350 470 242.5 c 128,-1,4
 470 135 470 135 409 64.5 c 128,-1,5
 348 -6 348 -6 241.5 -6 c 128,-1,6
 135 -6 135 -6 75 64 c 128,-1,7
 15 134 15 134 15 241.5 c 128,-1,0
 15 349 15 349 76.5 418.5 c 128,-1,1
242 41 m 128,-1,9
 315 41 315 41 364.5 98.5 c 128,-1,10
 414 156 414 156 414 241 c 128,-1,11
 414 326 414 326 364 383.5 c 128,-1,12
 314 441 314 441 242 441 c 128,-1,13
 170 441 170 441 120.5 384 c 128,-1,14
 71 327 71 327 71 242 c 128,-1,15
 71 157 71 157 120 99 c 128,-1,8
 169 41 169 41 242 41 c 128,-1,9
282 510 m 0,16,17
 276 510 276 510 272 514 c 2,18,-1
 180 599 l 2,19,20
 164 614 164 614 164 628 c 128,-1,21
 164 642 164 642 173.5 650.5 c 128,-1,22
 183 659 183 659 200.5 659 c 128,-1,23
 218 659 218 659 230 637 c 2,24,-1
 293 529 l 2,25,26
 295 525 295 525 295 523 c 0,27,28
 295 510 295 510 282 510 c 0,16,17
EndSplineSet
EndChar

StartChar: oacute
Encoding: 243 243 167
Width: 485
GlyphClass: 2
Flags: W
LayerCount: 2
Fore
SplineSet
76.5 418.5 m 128,-1,1
 138 488 138 488 242.5 488 c 128,-1,2
 347 488 347 488 408.5 419 c 128,-1,3
 470 350 470 350 470 242.5 c 128,-1,4
 470 135 470 135 409 64.5 c 128,-1,5
 348 -6 348 -6 241.5 -6 c 128,-1,6
 135 -6 135 -6 75 64 c 128,-1,7
 15 134 15 134 15 241.5 c 128,-1,0
 15 349 15 349 76.5 418.5 c 128,-1,1
242 41 m 128,-1,9
 315 41 315 41 364.5 98.5 c 128,-1,10
 414 156 414 156 414 241 c 128,-1,11
 414 326 414 326 364 383.5 c 128,-1,12
 314 441 314 441 242 441 c 128,-1,13
 170 441 170 441 120.5 384 c 128,-1,14
 71 327 71 327 71 242 c 128,-1,15
 71 157 71 157 120 99 c 128,-1,8
 169 41 169 41 242 41 c 128,-1,9
190 510 m 0,16,17
 177 510 177 510 177 523 c 0,18,19
 177 525 177 525 179 529 c 2,20,-1
 242 637 l 2,21,22
 254 659 254 659 271.5 659 c 128,-1,23
 289 659 289 659 298.5 650.5 c 128,-1,24
 308 642 308 642 308 628 c 128,-1,25
 308 614 308 614 292 599 c 2,26,-1
 200 514 l 2,27,28
 196 510 196 510 190 510 c 0,16,17
EndSplineSet
EndChar

StartChar: ocircumflex
Encoding: 244 244 168
Width: 485
GlyphClass: 2
Flags: W
LayerCount: 2
Fore
SplineSet
76.5 418.5 m 128,-1,1
 138 488 138 488 242.5 488 c 128,-1,2
 347 488 347 488 408.5 419 c 128,-1,3
 470 350 470 350 470 242.5 c 128,-1,4
 470 135 470 135 409 64.5 c 128,-1,5
 348 -6 348 -6 241.5 -6 c 128,-1,6
 135 -6 135 -6 75 64 c 128,-1,7
 15 134 15 134 15 241.5 c 128,-1,0
 15 349 15 349 76.5 418.5 c 128,-1,1
242 41 m 128,-1,9
 315 41 315 41 364.5 98.5 c 128,-1,10
 414 156 414 156 414 241 c 128,-1,11
 414 326 414 326 364 383.5 c 128,-1,12
 314 441 314 441 242 441 c 128,-1,13
 170 441 170 441 120.5 384 c 128,-1,14
 71 327 71 327 71 242 c 128,-1,15
 71 157 71 157 120 99 c 128,-1,8
 169 41 169 41 242 41 c 128,-1,9
364 558 m 1,16,17
 373 550 373 550 373 540 c 128,-1,18
 373 530 373 530 366 524 c 128,-1,19
 359 518 359 518 349 518 c 128,-1,20
 339 518 339 518 330 524 c 2,21,-1
 241 589 l 1,22,-1
 153 524 l 2,23,24
 145 518 145 518 135 518 c 128,-1,25
 125 518 125 518 118 524.5 c 128,-1,26
 111 531 111 531 111 542 c 128,-1,27
 111 553 111 553 119 558 c 2,28,-1
 241 648 l 1,29,-1
 364 558 l 1,16,17
EndSplineSet
EndChar

StartChar: otilde
Encoding: 245 245 169
Width: 485
GlyphClass: 2
Flags: W
LayerCount: 2
Fore
SplineSet
76.5 418.5 m 128,-1,1
 138 488 138 488 242.5 488 c 128,-1,2
 347 488 347 488 408.5 419 c 128,-1,3
 470 350 470 350 470 242.5 c 128,-1,4
 470 135 470 135 409 64.5 c 128,-1,5
 348 -6 348 -6 241.5 -6 c 128,-1,6
 135 -6 135 -6 75 64 c 128,-1,7
 15 134 15 134 15 241.5 c 128,-1,0
 15 349 15 349 76.5 418.5 c 128,-1,1
242 41 m 128,-1,9
 315 41 315 41 364.5 98.5 c 128,-1,10
 414 156 414 156 414 241 c 128,-1,11
 414 326 414 326 364 383.5 c 128,-1,12
 314 441 314 441 242 441 c 128,-1,13
 170 441 170 441 120.5 384 c 128,-1,14
 71 327 71 327 71 242 c 128,-1,15
 71 157 71 157 120 99 c 128,-1,8
 169 41 169 41 242 41 c 128,-1,9
100 534.5 m 128,-1,17
 89 548 89 548 89 573 c 128,-1,18
 89 598 89 598 113.5 614.5 c 128,-1,19
 138 631 138 631 165 631 c 128,-1,20
 192 631 192 631 215.5 621 c 128,-1,21
 239 611 239 611 250 602 c 128,-1,22
 261 593 261 593 279 576 c 1,23,24
 306 547 306 547 318.5 547 c 128,-1,25
 331 547 331 547 339.5 554.5 c 128,-1,26
 348 562 348 562 349 573 c 1,27,28
 334 583 334 583 334 601 c 0,29,30
 334 625 334 625 357 625 c 0,31,32
 371 625 371 625 383 613.5 c 128,-1,33
 395 602 395 602 395 575.5 c 128,-1,34
 395 549 395 549 371 532 c 128,-1,35
 347 515 347 515 319.5 515 c 128,-1,36
 292 515 292 515 270 524.5 c 128,-1,37
 248 534 248 534 238.5 543 c 128,-1,38
 229 552 229 552 213 569 c 0,39,40
 185 601 185 601 162 601 c 0,41,42
 152 601 152 601 143.5 594 c 128,-1,43
 135 587 135 587 134 576 c 1,44,45
 149 566 149 566 149 543.5 c 128,-1,46
 149 521 149 521 127 521 c 0,47,16
 111 521 111 521 100 534.5 c 128,-1,17
EndSplineSet
EndChar

StartChar: odieresis
Encoding: 246 246 170
Width: 485
GlyphClass: 2
Flags: W
LayerCount: 2
Fore
SplineSet
76.5 418.5 m 128,-1,1
 138 488 138 488 242.5 488 c 128,-1,2
 347 488 347 488 408.5 419 c 128,-1,3
 470 350 470 350 470 242.5 c 128,-1,4
 470 135 470 135 409 64.5 c 128,-1,5
 348 -6 348 -6 241.5 -6 c 128,-1,6
 135 -6 135 -6 75 64 c 128,-1,7
 15 134 15 134 15 241.5 c 128,-1,0
 15 349 15 349 76.5 418.5 c 128,-1,1
242 41 m 128,-1,9
 315 41 315 41 364.5 98.5 c 128,-1,10
 414 156 414 156 414 241 c 128,-1,11
 414 326 414 326 364 383.5 c 128,-1,12
 314 441 314 441 242 441 c 128,-1,13
 170 441 170 441 120.5 384 c 128,-1,14
 71 327 71 327 71 242 c 128,-1,15
 71 157 71 157 120 99 c 128,-1,8
 169 41 169 41 242 41 c 128,-1,9
177.5 595.5 m 128,-1,17
 190 584 190 584 190 566.5 c 128,-1,18
 190 549 190 549 177 537 c 128,-1,19
 164 525 164 525 146 525 c 128,-1,20
 128 525 128 525 116 537 c 128,-1,21
 104 549 104 549 104 566.5 c 128,-1,22
 104 584 104 584 116 595.5 c 128,-1,23
 128 607 128 607 146.5 607 c 128,-1,16
 165 607 165 607 177.5 595.5 c 128,-1,17
368.5 595.5 m 128,-1,25
 381 584 381 584 381 566.5 c 128,-1,26
 381 549 381 549 368 537 c 128,-1,27
 355 525 355 525 337 525 c 128,-1,28
 319 525 319 525 307 537 c 128,-1,29
 295 549 295 549 295 566.5 c 128,-1,30
 295 584 295 584 307 595.5 c 128,-1,31
 319 607 319 607 337.5 607 c 128,-1,24
 356 607 356 607 368.5 595.5 c 128,-1,25
EndSplineSet
EndChar

StartChar: divide
Encoding: 247 247 171
Width: 252
GlyphClass: 2
Flags: W
LayerCount: 2
Fore
SplineSet
212 212 m 2,0,-1
 39 212 l 2,1,2
 15 212 15 212 15 238.5 c 128,-1,3
 15 265 15 265 39 265 c 2,4,-1
 212 265 l 2,5,6
 224 265 224 265 230.5 257.5 c 128,-1,7
 237 250 237 250 237 239 c 0,8,9
 237 212 237 212 212 212 c 2,0,-1
93 391.5 m 128,-1,11
 105 403 105 403 123.5 403 c 128,-1,12
 142 403 142 403 154.5 391.5 c 128,-1,13
 167 380 167 380 167 361.5 c 128,-1,14
 167 343 167 343 154.5 332 c 128,-1,15
 142 321 142 321 123.5 321 c 128,-1,16
 105 321 105 321 93 332 c 128,-1,17
 81 343 81 343 81 361.5 c 128,-1,10
 81 380 81 380 93 391.5 c 128,-1,11
93 157.5 m 128,-1,19
 105 169 105 169 123.5 169 c 128,-1,20
 142 169 142 169 154.5 157.5 c 128,-1,21
 167 146 167 146 167 127.5 c 128,-1,22
 167 109 167 109 154.5 98 c 128,-1,23
 142 87 142 87 123.5 87 c 128,-1,24
 105 87 105 87 93 98 c 128,-1,25
 81 109 81 109 81 127.5 c 128,-1,18
 81 146 81 146 93 157.5 c 128,-1,19
EndSplineSet
EndChar

StartChar: oslash
Encoding: 248 248 172
Width: 485
GlyphClass: 2
Flags: W
LayerCount: 2
Fore
SplineSet
120 4 m 1,0,1
 113 -10 113 -10 99.5 -10 c 128,-1,2
 86 -10 86 -10 78.5 -2.5 c 128,-1,3
 71 5 71 5 71 13.5 c 128,-1,4
 71 22 71 22 74 26 c 2,5,-1
 89 49 l 1,6,7
 15 117 15 117 15 233 c 128,-1,8
 15 349 15 349 76.5 418.5 c 128,-1,9
 138 488 138 488 242 488 c 0,10,11
 303 488 303 488 351 463 c 1,12,-1
 365 484 l 2,13,14
 374 498 374 498 386 498 c 128,-1,15
 398 498 398 498 405.5 491 c 128,-1,16
 413 484 413 484 413 475.5 c 128,-1,17
 413 467 413 467 410 463 c 2,18,-1
 392 435 l 1,19,20
 470 365 470 365 470 250 c 128,-1,21
 470 135 470 135 409 64.5 c 128,-1,22
 348 -6 348 -6 241 -6 c 0,23,24
 177 -6 177 -6 130 20 c 1,25,-1
 120 4 l 1,0,1
242 41 m 0,26,27
 315 41 315 41 364.5 98.5 c 128,-1,28
 414 156 414 156 414 242 c 128,-1,29
 414 328 414 328 361 386 c 1,30,-1
 159 65 l 1,31,32
 195 41 195 41 242 41 c 0,26,27
120.5 384 m 128,-1,34
 71 327 71 327 71 241 c 128,-1,35
 71 155 71 155 120 98 c 1,36,-1
 323 418 l 1,37,38
 284 441 284 441 242 441 c 0,39,33
 170 441 170 441 120.5 384 c 128,-1,34
EndSplineSet
EndChar

StartChar: ugrave
Encoding: 249 249 173
Width: 498
GlyphClass: 2
Flags: W
LayerCount: 2
Fore
SplineSet
357 428 m 1,0,-1
 334 428 l 2,1,2
 323 428 323 428 315.5 436 c 128,-1,3
 308 444 308 444 308 454 c 128,-1,4
 308 464 308 464 315.5 472 c 128,-1,5
 323 480 323 480 334 480 c 2,6,-1
 435 480 l 2,7,8
 459 480 459 480 459 454 c 128,-1,9
 459 428 459 428 435 428 c 2,10,-1
 413 428 l 1,11,-1
 413 52 l 1,12,-1
 450 52 l 2,13,14
 473 52 473 52 473 26 c 0,15,16
 473 14 473 14 466 7 c 128,-1,17
 459 0 459 0 450 0 c 2,18,-1
 379 0 l 2,19,20
 367 0 367 0 362.5 4.5 c 128,-1,21
 358 9 358 9 358 21 c 2,22,-1
 358 86 l 1,23,24
 301 -7 301 -7 208 -7 c 0,25,26
 135 -7 135 -7 100 42.5 c 128,-1,27
 65 92 65 92 65 157 c 2,28,-1
 65 428 l 1,29,-1
 43 428 l 2,30,31
 32 428 32 428 26 436 c 128,-1,32
 20 444 20 444 20 454 c 128,-1,33
 20 464 20 464 26 472 c 128,-1,34
 32 480 32 480 43 480 c 2,35,-1
 145 480 l 2,36,37
 156 480 156 480 163 472 c 128,-1,38
 170 464 170 464 170 454 c 128,-1,39
 170 444 170 444 163 436 c 128,-1,40
 156 428 156 428 145 428 c 2,41,-1
 121 428 l 1,42,-1
 121 156 l 2,43,44
 121 112 121 112 144 76 c 128,-1,45
 167 40 167 40 218.5 40 c 128,-1,46
 270 40 270 40 313.5 92 c 128,-1,47
 357 144 357 144 357 224 c 2,48,-1
 357 428 l 1,0,-1
279 510 m 0,49,50
 273 510 273 510 269 514 c 2,51,-1
 177 599 l 2,52,53
 161 614 161 614 161 628 c 128,-1,54
 161 642 161 642 170.5 650.5 c 128,-1,55
 180 659 180 659 197.5 659 c 128,-1,56
 215 659 215 659 227 637 c 2,57,-1
 290 529 l 2,58,59
 292 525 292 525 292 523 c 0,60,61
 292 510 292 510 279 510 c 0,49,50
EndSplineSet
EndChar

